<?xml version="1.0" encoding="utf-8"?>
<svg xmlns="http://www.w3.org/2000/svg" xmlns:xlink="http://www.w3.org/1999/xlink" width="600" height="400" viewBox="0 0 2400 1600">
<defs>
  <clipPath id="clip5100">
    <rect x="0" y="0" width="2400" height="1600"/>
  </clipPath>
</defs>
<path clip-path="url(#clip5100)" d="
M0 1600 L2400 1600 L2400 0 L0 0  Z
  " fill="#ffffff" fill-rule="evenodd" fill-opacity="1"/>
<defs>
  <clipPath id="clip5101">
    <rect x="480" y="0" width="1681" height="1600"/>
  </clipPath>
</defs>
<path clip-path="url(#clip5100)" d="
M168.627 1487.47 L2352.76 1487.47 L2352.76 47.2441 L168.627 47.2441  Z
  " fill="#ffffff" fill-rule="evenodd" fill-opacity="1"/>
<defs>
  <clipPath id="clip5102">
    <rect x="168" y="47" width="2185" height="1441"/>
  </clipPath>
</defs>
<polyline clip-path="url(#clip5102)" style="stroke:#000000; stroke-width:2; stroke-opacity:0.1; fill:none" points="
  230.442,1487.47 230.442,47.2441 
  "/>
<polyline clip-path="url(#clip5102)" style="stroke:#000000; stroke-width:2; stroke-opacity:0.1; fill:none" points="
  745.567,1487.47 745.567,47.2441 
  "/>
<polyline clip-path="url(#clip5102)" style="stroke:#000000; stroke-width:2; stroke-opacity:0.1; fill:none" points="
  1260.69,1487.47 1260.69,47.2441 
  "/>
<polyline clip-path="url(#clip5102)" style="stroke:#000000; stroke-width:2; stroke-opacity:0.1; fill:none" points="
  1775.82,1487.47 1775.82,47.2441 
  "/>
<polyline clip-path="url(#clip5102)" style="stroke:#000000; stroke-width:2; stroke-opacity:0.1; fill:none" points="
  2290.94,1487.47 2290.94,47.2441 
  "/>
<polyline clip-path="url(#clip5102)" style="stroke:#000000; stroke-width:2; stroke-opacity:0.1; fill:none" points="
  168.627,1146.61 2352.76,1146.61 
  "/>
<polyline clip-path="url(#clip5102)" style="stroke:#000000; stroke-width:2; stroke-opacity:0.1; fill:none" points="
  168.627,786.636 2352.76,786.636 
  "/>
<polyline clip-path="url(#clip5102)" style="stroke:#000000; stroke-width:2; stroke-opacity:0.1; fill:none" points="
  168.627,426.666 2352.76,426.666 
  "/>
<polyline clip-path="url(#clip5102)" style="stroke:#000000; stroke-width:2; stroke-opacity:0.1; fill:none" points="
  168.627,66.6964 2352.76,66.6964 
  "/>
<polyline clip-path="url(#clip5100)" style="stroke:#000000; stroke-width:4; stroke-opacity:1; fill:none" points="
  168.627,1487.47 2352.76,1487.47 
  "/>
<polyline clip-path="url(#clip5100)" style="stroke:#000000; stroke-width:4; stroke-opacity:1; fill:none" points="
  168.627,1487.47 168.627,47.2441 
  "/>
<polyline clip-path="url(#clip5100)" style="stroke:#000000; stroke-width:4; stroke-opacity:1; fill:none" points="
  230.442,1487.47 230.442,1470.19 
  "/>
<polyline clip-path="url(#clip5100)" style="stroke:#000000; stroke-width:4; stroke-opacity:1; fill:none" points="
  745.567,1487.47 745.567,1470.19 
  "/>
<polyline clip-path="url(#clip5100)" style="stroke:#000000; stroke-width:4; stroke-opacity:1; fill:none" points="
  1260.69,1487.47 1260.69,1470.19 
  "/>
<polyline clip-path="url(#clip5100)" style="stroke:#000000; stroke-width:4; stroke-opacity:1; fill:none" points="
  1775.82,1487.47 1775.82,1470.19 
  "/>
<polyline clip-path="url(#clip5100)" style="stroke:#000000; stroke-width:4; stroke-opacity:1; fill:none" points="
  2290.94,1487.47 2290.94,1470.19 
  "/>
<polyline clip-path="url(#clip5100)" style="stroke:#000000; stroke-width:4; stroke-opacity:1; fill:none" points="
  168.627,1146.61 194.836,1146.61 
  "/>
<polyline clip-path="url(#clip5100)" style="stroke:#000000; stroke-width:4; stroke-opacity:1; fill:none" points="
  168.627,786.636 194.836,786.636 
  "/>
<polyline clip-path="url(#clip5100)" style="stroke:#000000; stroke-width:4; stroke-opacity:1; fill:none" points="
  168.627,426.666 194.836,426.666 
  "/>
<polyline clip-path="url(#clip5100)" style="stroke:#000000; stroke-width:4; stroke-opacity:1; fill:none" points="
  168.627,66.6964 194.836,66.6964 
  "/>
<g clip-path="url(#clip5100)">
<text style="fill:#000000; fill-opacity:1; font-family:Arial,Helvetica Neue,Helvetica,sans-serif; font-size:48px; text-anchor:middle;" transform="rotate(0, 230.442, 1541.47)" x="230.442" y="1541.47">0</text>
</g>
<g clip-path="url(#clip5100)">
<text style="fill:#000000; fill-opacity:1; font-family:Arial,Helvetica Neue,Helvetica,sans-serif; font-size:48px; text-anchor:middle;" transform="rotate(0, 745.567, 1541.47)" x="745.567" y="1541.47">25</text>
</g>
<g clip-path="url(#clip5100)">
<text style="fill:#000000; fill-opacity:1; font-family:Arial,Helvetica Neue,Helvetica,sans-serif; font-size:48px; text-anchor:middle;" transform="rotate(0, 1260.69, 1541.47)" x="1260.69" y="1541.47">50</text>
</g>
<g clip-path="url(#clip5100)">
<text style="fill:#000000; fill-opacity:1; font-family:Arial,Helvetica Neue,Helvetica,sans-serif; font-size:48px; text-anchor:middle;" transform="rotate(0, 1775.82, 1541.47)" x="1775.82" y="1541.47">75</text>
</g>
<g clip-path="url(#clip5100)">
<text style="fill:#000000; fill-opacity:1; font-family:Arial,Helvetica Neue,Helvetica,sans-serif; font-size:48px; text-anchor:middle;" transform="rotate(0, 2290.94, 1541.47)" x="2290.94" y="1541.47">100</text>
</g>
<g clip-path="url(#clip5100)">
<text style="fill:#000000; fill-opacity:1; font-family:Arial,Helvetica Neue,Helvetica,sans-serif; font-size:48px; text-anchor:end;" transform="rotate(0, 144.627, 1164.11)" x="144.627" y="1164.11">-20</text>
</g>
<g clip-path="url(#clip5100)">
<text style="fill:#000000; fill-opacity:1; font-family:Arial,Helvetica Neue,Helvetica,sans-serif; font-size:48px; text-anchor:end;" transform="rotate(0, 144.627, 804.136)" x="144.627" y="804.136">-15</text>
</g>
<g clip-path="url(#clip5100)">
<text style="fill:#000000; fill-opacity:1; font-family:Arial,Helvetica Neue,Helvetica,sans-serif; font-size:48px; text-anchor:end;" transform="rotate(0, 144.627, 444.166)" x="144.627" y="444.166">-10</text>
</g>
<g clip-path="url(#clip5100)">
<text style="fill:#000000; fill-opacity:1; font-family:Arial,Helvetica Neue,Helvetica,sans-serif; font-size:48px; text-anchor:end;" transform="rotate(0, 144.627, 84.1964)" x="144.627" y="84.1964">-5</text>
</g>
<polyline clip-path="url(#clip5102)" style="stroke:#009af9; stroke-width:4; stroke-opacity:1; fill:none" points="
  230.442,88.0053 232.504,88.9098 234.567,90.7372 236.63,93.5263 238.692,97.3397 240.755,102.271 242.817,108.454 244.88,116.085 246.942,125.452 249.005,136.999 
  251.067,151.45 253.13,170.099 255.193,195.619 257.255,235.135 259.318,325.321 261.38,301.073 263.443,231.825 265.505,199.293 267.568,178.836 269.631,164.661 
  271.693,154.476 273.756,147.148 275.818,142.047 277.881,138.8 279.943,137.179 282.006,137.057 284.068,138.375 286.131,141.138 288.194,145.409 290.256,151.326 
  292.319,159.123 294.381,169.19 296.444,182.177 298.506,199.255 300.569,222.808 302.632,258.943 304.694,334.776 306.757,348.314 308.819,266.437 310.882,230.894 
  312.944,208.878 315.007,193.655 317.069,182.669 319.132,174.683 321.195,169.016 323.257,165.265 325.32,163.183 327.382,162.627 329.445,163.529 331.507,165.879 
  333.57,169.73 335.633,175.201 337.695,182.504 339.758,191.99 341.82,204.241 343.883,220.288 345.945,242.166 348.008,274.781 350.07,336.495 352.133,415.12 
  354.196,301.586 356.258,261.318 358.321,237.323 360.383,220.974 362.446,209.235 364.508,200.693 366.571,194.583 368.633,190.458 370.696,188.046 372.759,187.185 
  374.821,187.794 376.884,189.851 378.946,193.396 381.009,198.534 383.071,205.458 385.134,214.484 387.197,226.142 389.259,241.348 391.322,261.87 393.384,291.765 
  395.447,344.479 397.509,539.054 399.572,337.583 401.634,291.722 403.697,265.622 405.76,248.132 407.822,235.656 409.885,226.579 411.947,220.049 414.01,215.573 
  416.072,212.852 418.135,211.707 420.198,212.043 422.26,213.826 424.323,217.086 426.385,221.914 428.448,228.483 430.51,237.084 432.573,248.194 434.635,262.638 
  436.698,281.961 438.761,309.571 440.823,355.721 442.886,515.465 444.948,375.687 447.011,322.649 449.073,294.151 451.136,275.424 453.199,262.167 455.261,252.535 
  457.324,245.574 459.386,240.742 461.449,237.709 463.511,236.279 465.574,236.342 467.636,237.855 469.699,240.834 471.762,245.359 473.824,251.585 475.887,259.777 
  477.949,270.37 480.012,284.104 482.074,302.341 484.137,327.97 486.2,369.028 488.262,473.448 490.325,417.135 492.387,354.302 494.45,322.998 496.512,302.899 
  498.575,288.802 500.637,278.583 502.7,271.173 504.763,265.973 506.825,262.622 508.888,260.904 510.95,260.693 513.013,261.936 515.075,264.637 517.138,268.864 
  519.2,274.756 521.263,282.555 523.326,292.655 525.388,305.724 527.451,322.968 529.513,346.859 531.576,383.829 533.638,463.829 535.701,464.083 537.764,386.859 
  539.826,352.211 541.889,330.578 543.951,315.571 546.014,304.728 548.076,296.849 550.139,291.269 552.201,287.593 554.264,285.582 556.327,285.095 558.389,286.068 
  560.452,288.493 562.514,292.427 564.577,297.994 566.639,305.412 568.702,315.042 570.765,327.487 572.827,343.817 574.89,366.168 576.952,399.775 579.015,465.181 
  581.077,521.738 583.14,420.554 585.202,381.845 587.265,358.48 589.328,342.482 591.39,330.976 593.453,322.605 595.515,316.631 597.578,312.621 599.64,310.312 
  601.703,309.548 603.766,310.25 605.828,312.402 607.891,316.047 609.953,321.295 612.016,328.345 614.078,337.525 616.141,349.382 618.203,364.87 620.266,385.843 
  622.329,416.627 624.391,472.128 626.454,610.349 628.516,455.735 630.579,411.967 632.641,386.629 634.704,369.547 636.767,357.332 638.829,348.444 640.892,342.062 
  642.954,337.709 645.017,335.097 647.079,334.052 649.142,334.483 651.204,336.362 653.267,339.722 655.33,344.659 657.392,351.352 659.455,360.101 661.517,371.401 
  663.58,386.107 665.642,405.84 667.705,434.217 669.767,482.483 671.83,692.854 673.893,492.935 675.955,442.665 678.018,415.054 680.08,396.778 682.143,383.803 
  684.205,374.37 686.268,367.564 688.331,362.858 690.393,359.936 692.456,358.607 694.518,358.766 696.581,360.374 698.643,363.452 700.706,368.083 702.768,374.429 
  704.831,382.764 706.894,393.536 708.956,407.514 711.019,426.122 713.081,452.418 715.144,495.135 717.206,613.018 719.269,533.048 721.332,474.053 723.394,443.79 
  725.457,424.191 727.519,410.397 729.582,400.388 731.644,393.139 733.707,388.069 735.769,384.831 737.832,383.215 739.895,383.1 741.957,384.438 744.02,387.236 
  746.082,391.567 748.145,397.576 750.207,405.511 752.27,415.781 754.333,429.078 756.395,446.66 758.458,471.136 760.52,509.443 762.583,596.42 764.645,577.738 
  766.708,506.283 768.77,472.877 770.833,451.802 772.896,437.122 774.958,426.502 777.021,418.79 779.083,413.344 781.146,409.783 783.208,407.875 785.271,407.485 
  787.334,408.552 789.396,411.073 791.459,415.109 793.521,420.788 795.584,428.338 797.646,438.129 799.709,450.787 801.771,467.428 803.834,490.295 805.897,525.003 
  807.959,594.802 810.022,630.72 812.084,539.567 814.147,502.368 816.209,479.631 818.272,463.988 820.334,452.718 822.397,444.521 824.46,438.686 826.522,434.793 
  828.585,432.588 830.647,431.921 832.71,432.716 834.772,434.963 836.835,438.708 838.898,444.066 840.96,451.242 843.023,460.576 845.085,472.632 847.148,488.404 
  849.21,509.837 851.273,541.546 853.335,600.1 855.398,703.613 857.461,574.208 859.523,532.326 861.586,507.701 863.648,491.005 865.711,479.041 867.773,470.334 
  869.836,464.096 871.899,459.862 873.961,457.355 876.024,456.407 878.086,456.932 880.149,458.905 882.211,462.362 884.274,467.405 886.336,474.22 888.399,483.115 
  890.462,494.603 892.524,509.571 894.587,529.715 896.649,558.878 898.712,609.399 900.774,971.941 902.837,610.67 904.9,562.832 906.962,536.039 909.025,518.186 
  911.087,505.478 913.15,496.235 915.212,489.576 917.275,484.992 919.337,482.177 921.4,480.945 923.463,481.198 925.525,482.898 927.588,486.072 929.65,490.806 
  931.713,497.27 933.775,505.743 935.838,516.692 937.901,530.912 939.963,549.89 942.026,576.862 944.088,621.314 946.151,757.115 948.213,649.702 950.276,593.992 
  952.338,564.679 954.401,545.545 956.464,532.036 958.526,522.226 960.589,515.129 962.651,510.185 964.714,507.054 966.776,505.536 968.839,505.514 970.901,506.943 
  972.964,509.835 975.027,514.266 977.089,520.388 979.152,528.455 981.214,538.892 983.277,552.413 985.339,570.329 987.402,595.391 989.465,635.076 991.527,730.181 
  993.59,692.649 995.652,625.946 997.715,593.659 999.777,573.099 1001.84,558.724 1003.9,548.314 1005.97,540.759 1008.03,535.441 1010.09,531.989 1012.15,530.179 
  1014.22,529.881 1016.28,531.038 1018.34,533.652 1020.4,537.785 1022.47,543.573 1024.53,551.249 1026.59,561.197 1028.65,574.063 1030.72,591.007 1032.78,614.386 
  1034.84,650.213 1036.9,724.836 1038.97,742.318 1041.03,658.888 1043.09,623.031 1045.15,600.868 1047.22,585.553 1049.28,574.502 1051.34,566.469 1053.4,560.764 
  1055.47,556.981 1057.53,554.875 1059.59,554.299 1061.65,555.184 1063.72,557.521 1065.78,561.36 1067.84,566.823 1069.9,574.12 1071.97,583.601 1074.03,595.851 
  1076.09,611.899 1078.15,633.783 1080.22,666.416 1082.28,728.202 1084.34,806.32 1086.4,693.087 1088.47,652.853 1090.53,628.872 1092.59,612.531 1094.66,600.798 
  1096.72,592.261 1098.78,586.155 1100.84,582.034 1102.91,579.625 1104.97,578.769 1107.03,579.381 1109.09,581.443 1111.16,584.992 1113.22,590.136 1115.28,597.066 
  1117.34,606.1 1119.41,617.767 1121.47,632.987 1123.53,653.53 1125.59,683.467 1127.66,736.308 1129.72,927.178 1131.78,728.962 1133.84,683.205 1135.91,657.142 
  1137.97,639.672 1140.03,627.208 1142.09,618.14 1144.16,611.617 1146.22,607.146 1148.28,604.43 1150.34,603.289 1152.41,603.628 1154.47,605.415 1156.53,608.678 
  1158.59,613.51 1160.66,620.083 1162.72,628.688 1164.78,639.804 1166.84,654.254 1168.91,673.588 1170.97,701.216 1173.03,747.416 1175.1,908.003 1177.16,767.148 
  1179.22,714.182 1181.28,685.705 1183.35,666.99 1185.41,653.739 1187.47,644.111 1189.53,637.154 1191.6,632.323 1193.66,629.292 1195.72,627.864 1197.78,627.927 
  1199.85,629.44 1201.91,632.42 1203.97,636.944 1206.03,643.17 1208.1,651.361 1210.16,661.953 1212.22,675.684 1214.28,693.917 1216.35,719.54 1218.41,760.581 
  1220.47,864.879 1222.53,808.796 1224.6,745.921 1226.66,714.605 1228.72,694.5 1230.78,680.399 1232.85,670.177 1234.91,662.765 1236.97,657.562 1239.03,654.209 
  1241.1,652.489 1243.16,652.275 1245.22,653.515 1247.28,656.213 1249.35,660.436 1251.41,666.324 1253.47,674.117 1255.53,684.21 1257.6,697.269 1259.66,714.497 
  1261.72,738.361 1263.79,775.268 1265.85,854.962 1267.91,856.127 1269.97,778.597 1272.04,743.887 1274.1,722.226 1276.16,707.202 1278.22,696.347 1280.29,688.459 
  1282.35,682.871 1284.41,679.188 1286.47,677.17 1288.54,676.677 1290.6,677.642 1292.66,680.06 1294.72,683.985 1296.79,689.542 1298.85,696.949 1300.91,706.564 
  1302.97,718.99 1305.04,735.292 1307.1,757.595 1309.16,791.102 1311.22,856.128 1313.29,914.716 1315.35,812.465 1317.41,773.608 1319.47,750.182 1321.54,734.15 
  1323.6,722.621 1325.66,714.233 1327.72,708.245 1329.79,704.223 1331.85,701.903 1333.91,701.128 1335.97,701.819 1338.04,703.959 1340.1,707.592 1342.16,712.826 
  1344.23,719.859 1346.29,729.019 1348.35,740.847 1350.41,756.296 1352.48,777.204 1354.54,807.859 1356.6,862.946 1358.66,1007.33 1360.73,847.909 1362.79,803.855 
  1364.85,778.41 1366.91,761.27 1368.98,749.017 1371.04,740.1 1373.1,733.696 1375.16,729.324 1377.23,726.694 1379.29,725.632 1381.35,726.046 1383.41,727.909 
  1385.48,731.25 1387.54,736.166 1389.6,742.836 1391.66,751.557 1393.73,762.82 1395.79,777.476 1397.85,797.129 1399.91,825.355 1401.98,873.197 1404.04,1070.04 
  1406.1,885.478 1408.16,834.696 1410.23,806.917 1412.29,788.555 1414.35,775.525 1416.41,766.053 1418.48,759.216 1420.54,754.485 1422.6,751.54 1424.67,750.19 
  1426.73,750.328 1428.79,751.915 1430.85,754.969 1432.92,759.575 1434.98,765.892 1437.04,774.19 1439.1,784.917 1441.17,798.831 1443.23,817.342 1445.29,843.462 
  1447.35,885.735 1449.42,999.738 1451.48,926.253 1453.54,866.308 1455.6,835.779 1457.67,816.051 1459.73,802.177 1461.79,792.111 1463.85,784.818 1465.92,779.713 
  1467.98,776.443 1470.04,774.797 1472.1,774.654 1474.17,775.963 1476.23,778.732 1478.29,783.031 1480.35,789.004 1482.42,796.897 1484.48,807.114 1486.54,820.339 
  1488.6,837.813 1490.67,862.101 1492.73,899.976 1494.79,984.599 1496.85,971.964 1498.92,898.78 1500.98,864.99 1503.04,843.74 1505.1,828.957 1507.17,818.266 
  1509.23,810.5 1511.29,805.011 1513.36,801.411 1515.42,799.467 1517.48,799.043 1519.54,800.076 1521.61,802.561 1523.67,806.558 1525.73,812.193 1527.79,819.69 
  1529.86,829.416 1531.92,841.987 1533.98,858.5 1536.04,881.154 1538.11,915.405 1540.17,983.346 1542.23,1027.43 1544.29,932.48 1546.36,894.68 1548.42,871.688 
  1550.48,855.9 1552.54,844.532 1554.61,836.263 1556.67,830.369 1558.73,826.426 1560.79,824.176 1562.86,823.467 1564.92,824.221 1566.98,826.426 1569.04,830.126 
  1571.11,835.435 1573.17,842.554 1575.23,851.818 1577.29,863.781 1579.36,879.421 1581.42,900.637 1583.48,931.905 1585.54,988.979 1587.61,1107.46 1589.67,967.593 
  1591.73,924.842 1593.8,899.884 1595.86,883.007 1597.92,870.924 1599.98,862.13 1602.05,855.821 1604.11,851.528 1606.17,848.967 1608.23,847.967 1610.3,848.441 
  1612.36,850.361 1614.42,853.763 1616.48,858.744 1618.55,865.487 1620.61,874.295 1622.67,885.671 1624.73,900.484 1626.8,920.383 1628.86,949.079 1630.92,998.254 
  1632.98,1251.48 1635.05,1004.88 1637.11,955.651 1639.17,928.383 1641.23,910.282 1643.3,897.417 1645.36,888.062 1647.42,881.315 1649.48,876.659 1651.55,873.781 
  1653.61,872.492 1655.67,872.688 1657.73,874.333 1659.8,877.448 1661.86,882.119 1663.92,888.509 1665.98,896.894 1668.05,907.729 1670.11,921.791 1672.17,940.523 
  1674.24,967.041 1676.3,1010.32 1678.36,1133.44 1680.42,1045.06 1682.49,987.191 1684.55,957.245 1686.61,937.799 1688.67,924.096 1690.74,914.148 1692.8,906.944 
  1694.86,901.908 1696.92,898.698 1698.99,897.104 1701.05,897.01 1703.11,898.365 1705.17,901.182 1707.24,905.531 1709.3,911.56 1711.36,919.519 1713.42,929.821 
  1715.49,943.161 1717.55,960.809 1719.61,985.403 1721.67,1023.99 1723.74,1112.54 1725.8,1089.97 1727.86,1019.57 1729.92,986.409 1731.99,965.444 1734.05,950.831 
  1736.11,940.257 1738.17,932.58 1740.24,927.164 1742.3,923.627 1744.36,921.742 1746.42,921.373 1748.49,922.459 1750.55,924.998 1752.61,929.052 1754.67,934.748 
  1756.74,942.315 1758.8,952.124 1760.86,964.802 1762.93,981.467 1764.99,1004.37 1767.05,1039.16 1769.11,1109.27 1771.18,1143.87 1773.24,1053.3 1775.3,1016.19 
  1777.36,993.488 1779.43,977.859 1781.49,966.595 1783.55,958.398 1785.61,952.56 1787.68,948.662 1789.74,946.45 1791.8,945.775 1793.86,946.563 1795.93,948.802 
  1797.99,952.539 1800.05,957.89 1802.11,965.06 1804.18,974.388 1806.24,986.439 1808.3,1002.21 1810.36,1023.64 1812.43,1055.34 1814.49,1113.86 1816.55,1217.64 
  1818.61,1088.07 1820.68,1046.18 1822.74,1021.55 1824.8,1004.86 1826.86,992.901 1828.93,984.2 1830.99,977.966 1833.05,973.737 1835.11,971.232 1837.18,970.284 
  1839.24,970.806 1841.3,972.773 1843.37,976.22 1845.43,981.247 1847.49,988.038 1849.55,996.9 1851.62,1008.34 1853.68,1023.24 1855.74,1043.27 1857.8,1072.21 
  1859.87,1122.11 1861.93,1446.71 1863.99,1125.78 1866.05,1077.31 1868.12,1050.29 1870.18,1032.3 1872.24,1019.51 1874.3,1010.2 1876.37,1003.49 1878.43,998.854 
  1880.49,995.997 1882.55,994.727 1884.62,994.945 1886.68,996.614 1888.74,999.758 1890.8,1004.46 1892.87,1010.9 1894.93,1019.34 1896.99,1030.25 1899.05,1044.42 
  1901.12,1063.32 1903.18,1090.14 1905.24,1134.17 1907.3,1265.04 1909.37,1164.87 1911.43,1108.42 1913.49,1078.89 1915.55,1059.66 1917.62,1046.1 1919.68,1036.25 
  1921.74,1029.13 1923.8,1024.15 1925.87,1020.99 1927.93,1019.44 1929.99,1019.38 1932.06,1020.77 1934.12,1023.61 1936.18,1027.98 1938.24,1034.02 1940.31,1041.99 
  1942.37,1052.3 1944.43,1065.65 1946.49,1083.32 1948.56,1107.95 1950.62,1146.65 1952.68,1235.98 1954.74,1211.47 1956.81,1141.55 1958.87,1108.47 1960.93,1087.54 
  1962.99,1072.94 1965.06,1062.37 1967.12,1054.69 1969.18,1049.28 1971.24,1045.75 1973.31,1043.88 1975.37,1043.53 1977.43,1044.64 1979.49,1047.21 1981.56,1051.31 
  1983.62,1057.06 1985.68,1064.69 1987.74,1074.59 1989.81,1087.37 1991.87,1104.19 1993.93,1127.32 1995.99,1162.57 1998.06,1234.54 2000.12,1261.88 2002.18,1174.51 
  2004.24,1137.96 2006.31,1115.51 2008.37,1100.02 2010.43,1088.86 2012.5,1080.73 2014.56,1074.93 2016.62,1071.07 2018.68,1068.87 2020.75,1068.19 2022.81,1068.97 
  2024.87,1071.19 2026.93,1074.9 2029,1080.21 2031.06,1087.33 2033.12,1096.59 2035.18,1108.57 2037.25,1124.21 2039.31,1145.4 2041.37,1176.32 2043.43,1229.2 
  2045.5,1277.17 2047.56,1204.92 2049.62,1166.33 2051.68,1142.67 2053.75,1126.45 2055.81,1114.77 2057.87,1106.16 2059.93,1099.79 2062,1095.13 2064.06,1091.86 
  2066.12,1089.86 2068.18,1089.2 2070.25,1090.16 2072.31,1093.17 2074.37,1098.75 2076.43,1107.34 2078.5,1118.72 2080.56,1130.42 2082.62,1136.08 2084.68,1131.54 
  2086.75,1122.52 2088.81,1116.12 2090.87,1115.82 2092.94,1123.66 2095,1141.36 2097.06,1162.8 2099.12,1151.11 2101.19,1118.83 2103.25,1094.7 2105.31,1080.26 
  2107.37,1074.13 2109.44,1075.76 2111.5,1085.37 2113.56,1102.56 2115.62,1118.51 2117.69,1110.78 2119.75,1089.67 2121.81,1074 2123.87,1067.25 2125.94,1069.97 
  2128,1084.15 2130.06,1116.83 2132.12,1197.6 2134.19,1150.44 2136.25,1095.86 2138.31,1071.22 2140.37,1061.45 2142.44,1063.14 2144.5,1076.95 2146.56,1107.78 
  2148.62,1154.65 2150.69,1120.43 2152.75,1080.65 2154.81,1060.35 2156.87,1053.07 2158.94,1056.85 2161,1072.96 2163.06,1106.84 2165.12,1150.55 2167.19,1110.3 
  2169.25,1074.34 2171.31,1056.98 2173.37,1052.56 2175.44,1059.99 2177.5,1082.54 2179.56,1136.66 2181.63,1224.75 2183.69,1106.5 2185.75,1070.64 2187.81,1055.86 
  2189.88,1054.3 2191.94,1065.19 2194,1092.71 2196.06,1151.16 2198.13,1142.93 2200.19,1088.89 2202.25,1063.81 2204.31,1054.47 2206.38,1057.23 2208.44,1072.94 
  2210.5,1108.24 2212.56,1175.53 2214.63,1126.15 2216.69,1083.23 2218.75,1064.25 2220.81,1059.57 2222.88,1067.34 2224.94,1090.73 2227,1147.09 2229.06,1226.32 
  2231.13,1113.96 2233.19,1079.71 2235.25,1066.27 2237.31,1066.16 2239.38,1078.9 2241.44,1109.54 2243.5,1175.88 2245.56,1151.74 2247.63,1100.32 2249.69,1077.7 
  2251.75,1070.57 2253.81,1075.81 2255.88,1095.08 2257.94,1137.88 2260,1209.43 2262.07,1134.45 2264.13,1097 2266.19,1081.58 2268.25,1079.97 2270.32,1091.25 
  2272.38,1120.25 2274.44,1195.38 2276.5,1198.54 2278.57,1124.23 2280.63,1097.15 2282.69,1087.93 2284.75,1091.63 2286.82,1109.06 2288.88,1147.9 2290.94,1216.97 
  
  "/>
<polyline clip-path="url(#clip5102)" style="stroke:#e26f46; stroke-width:4; stroke-opacity:1; fill:none" points="
  230.442,102.693 232.504,103.798 234.567,104.903 236.63,106.008 238.692,107.112 240.755,108.217 242.817,109.322 244.88,110.427 246.942,111.532 249.005,112.636 
  251.067,113.741 253.13,114.846 255.193,115.951 257.255,117.055 259.318,118.16 261.38,119.265 263.443,120.37 265.505,121.475 267.568,122.579 269.631,123.684 
  271.693,124.789 273.756,125.894 275.818,126.998 277.881,128.103 279.943,129.208 282.006,130.313 284.068,131.417 286.131,132.522 288.194,133.627 290.256,134.732 
  292.319,135.837 294.381,136.941 296.444,138.046 298.506,139.151 300.569,140.256 302.632,141.36 304.694,142.465 306.757,143.57 308.819,144.675 310.882,145.779 
  312.944,146.884 315.007,147.989 317.069,149.094 319.132,150.199 321.195,151.303 323.257,152.408 325.32,153.513 327.382,154.618 329.445,155.722 331.507,156.827 
  333.57,157.932 335.633,159.037 337.695,160.142 339.758,161.246 341.82,162.351 343.883,163.456 345.945,164.561 348.008,165.665 350.07,166.77 352.133,167.875 
  354.196,168.98 356.258,170.084 358.321,171.189 360.383,172.294 362.446,173.399 364.508,174.504 366.571,175.608 368.633,176.713 370.696,177.818 372.759,178.923 
  374.821,180.027 376.884,181.132 378.946,182.237 381.009,183.342 383.071,184.447 385.134,185.551 387.197,186.656 389.259,187.761 391.322,188.866 393.384,189.97 
  395.447,191.075 397.509,192.18 399.572,193.285 401.634,194.389 403.697,195.494 405.76,196.599 407.822,197.704 409.885,198.809 411.947,199.913 414.01,201.018 
  416.072,202.123 418.135,203.228 420.198,204.332 422.26,205.437 424.323,206.542 426.385,207.647 428.448,208.751 430.51,209.856 432.573,210.961 434.635,212.066 
  436.698,213.171 438.761,214.275 440.823,215.38 442.886,216.485 444.948,217.59 447.011,218.694 449.073,219.799 451.136,220.904 453.199,222.009 455.261,223.114 
  457.324,224.218 459.386,225.323 461.449,226.428 463.511,227.533 465.574,228.637 467.636,229.742 469.699,230.847 471.762,231.952 473.824,233.056 475.887,234.161 
  477.949,235.266 480.012,236.371 482.074,237.476 484.137,238.58 486.2,239.685 488.262,240.79 490.325,241.895 492.387,242.999 494.45,244.104 496.512,245.209 
  498.575,246.314 500.637,247.419 502.7,248.523 504.763,249.628 506.825,250.733 508.888,251.838 510.95,252.942 513.013,254.047 515.075,255.152 517.138,256.257 
  519.2,257.361 521.263,258.466 523.326,259.571 525.388,260.676 527.451,261.781 529.513,262.885 531.576,263.99 533.638,265.095 535.701,266.2 537.764,267.304 
  539.826,268.409 541.889,269.514 543.951,270.619 546.014,271.723 548.076,272.828 550.139,273.933 552.201,275.038 554.264,276.143 556.327,277.247 558.389,278.352 
  560.452,279.457 562.514,280.562 564.577,281.666 566.639,282.771 568.702,283.876 570.765,284.981 572.827,286.086 574.89,287.19 576.952,288.295 579.015,289.4 
  581.077,290.505 583.14,291.609 585.202,292.714 587.265,293.819 589.328,294.924 591.39,296.028 593.453,297.133 595.515,298.238 597.578,299.343 599.64,300.448 
  601.703,301.552 603.766,302.657 605.828,303.762 607.891,304.867 609.953,305.971 612.016,307.076 614.078,308.181 616.141,309.286 618.203,310.391 620.266,311.495 
  622.329,312.6 624.391,313.705 626.454,314.81 628.516,315.914 630.579,317.019 632.641,318.124 634.704,319.229 636.767,320.333 638.829,321.438 640.892,322.543 
  642.954,323.648 645.017,324.753 647.079,325.857 649.142,326.962 651.204,328.067 653.267,329.172 655.33,330.276 657.392,331.381 659.455,332.486 661.517,333.591 
  663.58,334.695 665.642,335.8 667.705,336.905 669.767,338.01 671.83,339.115 673.893,340.219 675.955,341.324 678.018,342.429 680.08,343.534 682.143,344.638 
  684.205,345.743 686.268,346.848 688.331,347.953 690.393,349.058 692.456,350.162 694.518,351.267 696.581,352.372 698.643,353.477 700.706,354.581 702.768,355.686 
  704.831,356.791 706.894,357.896 708.956,359 711.019,360.105 713.081,361.21 715.144,362.315 717.206,363.42 719.269,364.524 721.332,365.629 723.394,366.734 
  725.457,367.839 727.519,368.943 729.582,370.048 731.644,371.153 733.707,372.258 735.769,373.363 737.832,374.467 739.895,375.572 741.957,376.677 744.02,377.782 
  746.082,378.886 748.145,379.991 750.207,381.096 752.27,382.201 754.333,383.305 756.395,384.41 758.458,385.515 760.52,386.62 762.583,387.725 764.645,388.829 
  766.708,389.934 768.77,391.039 770.833,392.144 772.896,393.248 774.958,394.353 777.021,395.458 779.083,396.563 781.146,397.667 783.208,398.772 785.271,399.877 
  787.334,400.982 789.396,402.087 791.459,403.191 793.521,404.296 795.584,405.401 797.646,406.506 799.709,407.61 801.771,408.715 803.834,409.82 805.897,410.925 
  807.959,412.03 810.022,413.134 812.084,414.239 814.147,415.344 816.209,416.449 818.272,417.553 820.334,418.658 822.397,419.763 824.46,420.868 826.522,421.972 
  828.585,423.077 830.647,424.182 832.71,425.287 834.772,426.392 836.835,427.496 838.898,428.601 840.96,429.706 843.023,430.811 845.085,431.915 847.148,433.02 
  849.21,434.125 851.273,435.23 853.335,436.335 855.398,437.439 857.461,438.544 859.523,439.649 861.586,440.754 863.648,441.858 865.711,442.963 867.773,444.068 
  869.836,445.173 871.899,446.277 873.961,447.382 876.024,448.487 878.086,449.592 880.149,450.697 882.211,451.801 884.274,452.906 886.336,454.011 888.399,455.116 
  890.462,456.22 892.524,457.325 894.587,458.43 896.649,459.535 898.712,460.639 900.774,461.744 902.837,462.849 904.9,463.954 906.962,465.059 909.025,466.163 
  911.087,467.268 913.15,468.373 915.212,469.478 917.275,470.582 919.337,471.687 921.4,472.792 923.463,473.897 925.525,475.002 927.588,476.106 929.65,477.211 
  931.713,478.316 933.775,479.421 935.838,480.525 937.901,481.63 939.963,482.735 942.026,483.84 944.088,484.944 946.151,486.049 948.213,487.154 950.276,488.259 
  952.338,489.364 954.401,490.468 956.464,491.573 958.526,492.678 960.589,493.783 962.651,494.887 964.714,495.992 966.776,497.097 968.839,498.202 970.901,499.306 
  972.964,500.411 975.027,501.516 977.089,502.621 979.152,503.726 981.214,504.83 983.277,505.935 985.339,507.04 987.402,508.145 989.465,509.249 991.527,510.354 
  993.59,511.459 995.652,512.564 997.715,513.669 999.777,514.773 1001.84,515.878 1003.9,516.983 1005.97,518.088 1008.03,519.192 1010.09,520.297 1012.15,521.402 
  1014.22,522.507 1016.28,523.611 1018.34,524.716 1020.4,525.821 1022.47,526.926 1024.53,528.031 1026.59,529.135 1028.65,530.24 1030.72,531.345 1032.78,532.45 
  1034.84,533.554 1036.9,534.659 1038.97,535.764 1041.03,536.869 1043.09,537.974 1045.15,539.078 1047.22,540.183 1049.28,541.288 1051.34,542.393 1053.4,543.497 
  1055.47,544.602 1057.53,545.707 1059.59,546.812 1061.65,547.916 1063.72,549.021 1065.78,550.126 1067.84,551.231 1069.9,552.336 1071.97,553.44 1074.03,554.545 
  1076.09,555.65 1078.15,556.755 1080.22,557.859 1082.28,558.964 1084.34,560.069 1086.4,561.174 1088.47,562.278 1090.53,563.383 1092.59,564.488 1094.66,565.593 
  1096.72,566.698 1098.78,567.802 1100.84,568.907 1102.91,570.012 1104.97,571.117 1107.03,572.221 1109.09,573.326 1111.16,574.431 1113.22,575.536 1115.28,576.641 
  1117.34,577.745 1119.41,578.85 1121.47,579.955 1123.53,581.06 1125.59,582.164 1127.66,583.269 1129.72,584.374 1131.78,585.479 1133.84,586.583 1135.91,587.688 
  1137.97,588.793 1140.03,589.898 1142.09,591.003 1144.16,592.107 1146.22,593.212 1148.28,594.317 1150.34,595.422 1152.41,596.526 1154.47,597.631 1156.53,598.736 
  1158.59,599.841 1160.66,600.946 1162.72,602.05 1164.78,603.155 1166.84,604.26 1168.91,605.365 1170.97,606.469 1173.03,607.574 1175.1,608.679 1177.16,609.784 
  1179.22,610.888 1181.28,611.993 1183.35,613.098 1185.41,614.203 1187.47,615.308 1189.53,616.412 1191.6,617.517 1193.66,618.622 1195.72,619.727 1197.78,620.831 
  1199.85,621.936 1201.91,623.041 1203.97,624.146 1206.03,625.25 1208.1,626.355 1210.16,627.46 1212.22,628.565 1214.28,629.67 1216.35,630.774 1218.41,631.879 
  1220.47,632.984 1222.53,634.089 1224.6,635.193 1226.66,636.298 1228.72,637.403 1230.78,638.508 1232.85,639.613 1234.91,640.717 1236.97,641.822 1239.03,642.927 
  1241.1,644.032 1243.16,645.136 1245.22,646.241 1247.28,647.346 1249.35,648.451 1251.41,649.555 1253.47,650.66 1255.53,651.765 1257.6,652.87 1259.66,653.975 
  1261.72,655.079 1263.79,656.184 1265.85,657.289 1267.91,658.394 1269.97,659.498 1272.04,660.603 1274.1,661.708 1276.16,662.813 1278.22,663.918 1280.29,665.022 
  1282.35,666.127 1284.41,667.232 1286.47,668.337 1288.54,669.441 1290.6,670.546 1292.66,671.651 1294.72,672.756 1296.79,673.86 1298.85,674.965 1300.91,676.07 
  1302.97,677.175 1305.04,678.28 1307.1,679.384 1309.16,680.489 1311.22,681.594 1313.29,682.699 1315.35,683.803 1317.41,684.908 1319.47,686.013 1321.54,687.118 
  1323.6,688.222 1325.66,689.327 1327.72,690.432 1329.79,691.537 1331.85,692.642 1333.91,693.746 1335.97,694.851 1338.04,695.956 1340.1,697.061 1342.16,698.165 
  1344.23,699.27 1346.29,700.375 1348.35,701.48 1350.41,702.585 1352.48,703.689 1354.54,704.794 1356.6,705.899 1358.66,707.004 1360.73,708.108 1362.79,709.213 
  1364.85,710.318 1366.91,711.423 1368.98,712.527 1371.04,713.632 1373.1,714.737 1375.16,715.842 1377.23,716.947 1379.29,718.051 1381.35,719.156 1383.41,720.261 
  1385.48,721.366 1387.54,722.47 1389.6,723.575 1391.66,724.68 1393.73,725.785 1395.79,726.89 1397.85,727.994 1399.91,729.099 1401.98,730.204 1404.04,731.309 
  1406.1,732.413 1408.16,733.518 1410.23,734.623 1412.29,735.728 1414.35,736.832 1416.41,737.937 1418.48,739.042 1420.54,740.147 1422.6,741.252 1424.67,742.356 
  1426.73,743.461 1428.79,744.566 1430.85,745.671 1432.92,746.775 1434.98,747.88 1437.04,748.985 1439.1,750.09 1441.17,751.194 1443.23,752.299 1445.29,753.404 
  1447.35,754.509 1449.42,755.614 1451.48,756.718 1453.54,757.823 1455.6,758.928 1457.67,760.033 1459.73,761.137 1461.79,762.242 1463.85,763.347 1465.92,764.452 
  1467.98,765.557 1470.04,766.661 1472.1,767.766 1474.17,768.871 1476.23,769.976 1478.29,771.08 1480.35,772.185 1482.42,773.29 1484.48,774.395 1486.54,775.499 
  1488.6,776.604 1490.67,777.709 1492.73,778.814 1494.79,779.919 1496.85,781.023 1498.92,782.128 1500.98,783.233 1503.04,784.338 1505.1,785.442 1507.17,786.547 
  1509.23,787.652 1511.29,788.757 1513.36,789.862 1515.42,790.966 1517.48,792.071 1519.54,793.176 1521.61,794.281 1523.67,795.385 1525.73,796.49 1527.79,797.595 
  1529.86,798.7 1531.92,799.804 1533.98,800.909 1536.04,802.014 1538.11,803.119 1540.17,804.224 1542.23,805.328 1544.29,806.433 1546.36,807.538 1548.42,808.643 
  1550.48,809.747 1552.54,810.852 1554.61,811.957 1556.67,813.062 1558.73,814.166 1560.79,815.271 1562.86,816.376 1564.92,817.481 1566.98,818.586 1569.04,819.69 
  1571.11,820.795 1573.17,821.9 1575.23,823.005 1577.29,824.109 1579.36,825.214 1581.42,826.319 1583.48,827.424 1585.54,828.529 1587.61,829.633 1589.67,830.738 
  1591.73,831.843 1593.8,832.948 1595.86,834.052 1597.92,835.157 1599.98,836.262 1602.05,837.367 1604.11,838.471 1606.17,839.576 1608.23,840.681 1610.3,841.786 
  1612.36,842.891 1614.42,843.995 1616.48,845.1 1618.55,846.205 1620.61,847.31 1622.67,848.414 1624.73,849.519 1626.8,850.624 1628.86,851.729 1630.92,852.834 
  1632.98,853.938 1635.05,855.043 1637.11,856.148 1639.17,857.253 1641.23,858.357 1643.3,859.462 1645.36,860.567 1647.42,861.672 1649.48,862.776 1651.55,863.881 
  1653.61,864.986 1655.67,866.091 1657.73,867.196 1659.8,868.3 1661.86,869.405 1663.92,870.51 1665.98,871.615 1668.05,872.719 1670.11,873.824 1672.17,874.929 
  1674.24,876.034 1676.3,877.138 1678.36,878.243 1680.42,879.348 1682.49,880.453 1684.55,881.558 1686.61,882.662 1688.67,883.767 1690.74,884.872 1692.8,885.977 
  1694.86,887.081 1696.92,888.186 1698.99,889.291 1701.05,890.396 1703.11,891.501 1705.17,892.605 1707.24,893.71 1709.3,894.815 1711.36,895.92 1713.42,897.024 
  1715.49,898.129 1717.55,899.234 1719.61,900.339 1721.67,901.443 1723.74,902.548 1725.8,903.653 1727.86,904.758 1729.92,905.863 1731.99,906.967 1734.05,908.072 
  1736.11,909.177 1738.17,910.282 1740.24,911.386 1742.3,912.491 1744.36,913.596 1746.42,914.701 1748.49,915.805 1750.55,916.91 1752.61,918.015 1754.67,919.12 
  1756.74,920.225 1758.8,921.329 1760.86,922.434 1762.93,923.539 1764.99,924.644 1767.05,925.748 1769.11,926.853 1771.18,927.958 1773.24,929.063 1775.3,930.168 
  1777.36,931.272 1779.43,932.377 1781.49,933.482 1783.55,934.587 1785.61,935.691 1787.68,936.796 1789.74,937.901 1791.8,939.006 1793.86,940.11 1795.93,941.215 
  1797.99,942.32 1800.05,943.425 1802.11,944.53 1804.18,945.634 1806.24,946.739 1808.3,947.844 1810.36,948.949 1812.43,950.053 1814.49,951.158 1816.55,952.263 
  1818.61,953.368 1820.68,954.473 1822.74,955.577 1824.8,956.682 1826.86,957.787 1828.93,958.892 1830.99,959.996 1833.05,961.101 1835.11,962.206 1837.18,963.311 
  1839.24,964.415 1841.3,965.52 1843.37,966.625 1845.43,967.73 1847.49,968.835 1849.55,969.939 1851.62,971.044 1853.68,972.149 1855.74,973.254 1857.8,974.358 
  1859.87,975.463 1861.93,976.568 1863.99,977.673 1866.05,978.777 1868.12,979.882 1870.18,980.987 1872.24,982.092 1874.3,983.197 1876.37,984.301 1878.43,985.406 
  1880.49,986.511 1882.55,987.616 1884.62,988.72 1886.68,989.825 1888.74,990.93 1890.8,992.035 1892.87,993.14 1894.93,994.244 1896.99,995.349 1899.05,996.454 
  1901.12,997.559 1903.18,998.663 1905.24,999.768 1907.3,1000.87 1909.37,1001.98 1911.43,1003.08 1913.49,1004.19 1915.55,1005.29 1917.62,1006.4 1919.68,1007.5 
  1921.74,1008.61 1923.8,1009.71 1925.87,1010.82 1927.93,1011.92 1929.99,1013.03 1932.06,1014.13 1934.12,1015.23 1936.18,1016.34 1938.24,1017.44 1940.31,1018.55 
  1942.37,1019.65 1944.43,1020.76 1946.49,1021.86 1948.56,1022.97 1950.62,1024.07 1952.68,1025.18 1954.74,1026.28 1956.81,1027.39 1958.87,1028.49 1960.93,1029.6 
  1962.99,1030.7 1965.06,1031.81 1967.12,1032.91 1969.18,1034.02 1971.24,1035.12 1973.31,1036.23 1975.37,1037.33 1977.43,1038.44 1979.49,1039.54 1981.56,1040.64 
  1983.62,1041.75 1985.68,1042.85 1987.74,1043.96 1989.81,1045.06 1991.87,1046.17 1993.93,1047.27 1995.99,1048.38 1998.06,1049.48 2000.12,1050.59 2002.18,1051.69 
  2004.24,1052.8 2006.31,1053.9 2008.37,1055.01 2010.43,1056.11 2012.5,1057.22 2014.56,1058.32 2016.62,1059.43 2018.68,1060.53 2020.75,1061.64 2022.81,1062.74 
  2024.87,1063.84 2026.93,1064.95 2029,1066.05 2031.06,1067.16 2033.12,1068.26 2035.18,1069.37 2037.25,1070.47 2039.31,1071.58 2041.37,1072.68 2043.43,1073.79 
  2045.5,1074.89 2047.56,1076 2049.62,1077.1 2051.68,1078.21 2053.75,1079.31 2055.81,1080.42 2057.87,1081.52 2059.93,1082.63 2062,1083.73 2064.06,1084.84 
  2066.12,1085.94 2068.18,1087.05 2070.25,1088.15 2072.31,1089.25 2074.37,1090.36 2076.43,1091.46 2078.5,1092.57 2080.56,1093.67 2082.62,1094.78 2084.68,1095.88 
  2086.75,1096.99 2088.81,1098.09 2090.87,1099.2 2092.94,1100.3 2095,1101.41 2097.06,1102.51 2099.12,1103.62 2101.19,1104.72 2103.25,1105.83 2105.31,1106.93 
  2107.37,1108.04 2109.44,1109.14 2111.5,1110.25 2113.56,1111.35 2115.62,1112.45 2117.69,1113.56 2119.75,1114.66 2121.81,1115.77 2123.87,1116.87 2125.94,1117.98 
  2128,1119.08 2130.06,1120.19 2132.12,1121.29 2134.19,1122.4 2136.25,1123.5 2138.31,1124.61 2140.37,1125.71 2142.44,1126.82 2144.5,1127.92 2146.56,1129.03 
  2148.62,1130.13 2150.69,1131.24 2152.75,1132.34 2154.81,1133.45 2156.87,1134.55 2158.94,1135.66 2161,1136.76 2163.06,1137.86 2165.12,1138.97 2167.19,1140.07 
  2169.25,1141.18 2171.31,1142.28 2173.37,1143.39 2175.44,1144.49 2177.5,1145.6 2179.56,1146.7 2181.63,1147.81 2183.69,1148.91 2185.75,1150.02 2187.81,1151.12 
  2189.88,1152.23 2191.94,1153.33 2194,1154.44 2196.06,1155.54 2198.13,1156.65 2200.19,1157.75 2202.25,1158.86 2204.31,1159.96 2206.38,1161.06 2208.44,1162.17 
  2210.5,1163.27 2212.56,1164.38 2214.63,1165.48 2216.69,1166.59 2218.75,1167.69 2220.81,1168.8 2222.88,1169.9 2224.94,1171.01 2227,1172.11 2229.06,1173.22 
  2231.13,1174.32 2233.19,1175.43 2235.25,1176.53 2237.31,1177.64 2239.38,1178.74 2241.44,1179.85 2243.5,1180.95 2245.56,1182.06 2247.63,1183.16 2249.69,1184.27 
  2251.75,1185.37 2253.81,1186.47 2255.88,1187.58 2257.94,1188.68 2260,1189.79 2262.07,1190.89 2264.13,1192 2266.19,1193.1 2268.25,1194.21 2270.32,1195.31 
  2272.38,1196.42 2274.44,1197.52 2276.5,1198.63 2278.57,1199.73 2280.63,1200.84 2282.69,1201.94 2284.75,1203.05 2286.82,1204.15 2288.88,1205.26 2290.94,1206.36 
  
  "/>
<path clip-path="url(#clip5100)" d="
M1743.67 312.204 L2280.76 312.204 L2280.76 130.764 L1743.67 130.764  Z
  " fill="#ffffff" fill-rule="evenodd" fill-opacity="1"/>
<polyline clip-path="url(#clip5100)" style="stroke:#000000; stroke-width:4; stroke-opacity:1; fill:none" points="
  1743.67,312.204 2280.76,312.204 2280.76,130.764 1743.67,130.764 1743.67,312.204 
  "/>
<polyline clip-path="url(#clip5100)" style="stroke:#009af9; stroke-width:4; stroke-opacity:1; fill:none" points="
  1767.67,191.244 1911.67,191.244 
  "/>
<g clip-path="url(#clip5100)">
<text style="fill:#000000; fill-opacity:1; font-family:Arial,Helvetica Neue,Helvetica,sans-serif; font-size:48px; text-anchor:start;" transform="rotate(0, 1935.67, 208.744)" x="1935.67" y="208.744">E</text>
</g>
<polyline clip-path="url(#clip5100)" style="stroke:#e26f46; stroke-width:4; stroke-opacity:1; fill:none" points="
  1767.67,251.724 1911.67,251.724 
  "/>
<g clip-path="url(#clip5100)">
<text style="fill:#000000; fill-opacity:1; font-family:Arial,Helvetica Neue,Helvetica,sans-serif; font-size:48px; text-anchor:start;" transform="rotate(0, 1935.67, 269.224)" x="1935.67" y="269.224">-0.1533t.-5.5</text>
</g>
</svg>
