<?xml version="1.0" encoding="utf-8"?>
<svg xmlns="http://www.w3.org/2000/svg" xmlns:xlink="http://www.w3.org/1999/xlink" width="600" height="400" viewBox="0 0 2400 1600">
<defs>
  <clipPath id="clip4500">
    <rect x="0" y="0" width="2400" height="1600"/>
  </clipPath>
</defs>
<path clip-path="url(#clip4500)" d="
M0 1600 L2400 1600 L2400 0 L0 0  Z
  " fill="#ffffff" fill-rule="evenodd" fill-opacity="1"/>
<defs>
  <clipPath id="clip4501">
    <rect x="480" y="0" width="1681" height="1600"/>
  </clipPath>
</defs>
<path clip-path="url(#clip4500)" d="
M180.627 1479.47 L2352.76 1479.47 L2352.76 47.2441 L180.627 47.2441  Z
  " fill="#ffffff" fill-rule="evenodd" fill-opacity="1"/>
<defs>
  <clipPath id="clip4502">
    <rect x="180" y="47" width="2173" height="1433"/>
  </clipPath>
</defs>
<polyline clip-path="url(#clip4502)" style="stroke:#000000; stroke-width:2; stroke-opacity:0.1; fill:none" points="
  242.102,1479.47 242.102,47.2441 
  "/>
<polyline clip-path="url(#clip4502)" style="stroke:#000000; stroke-width:2; stroke-opacity:0.1; fill:none" points="
  754.397,1479.47 754.397,47.2441 
  "/>
<polyline clip-path="url(#clip4502)" style="stroke:#000000; stroke-width:2; stroke-opacity:0.1; fill:none" points="
  1266.69,1479.47 1266.69,47.2441 
  "/>
<polyline clip-path="url(#clip4502)" style="stroke:#000000; stroke-width:2; stroke-opacity:0.1; fill:none" points="
  1778.99,1479.47 1778.99,47.2441 
  "/>
<polyline clip-path="url(#clip4502)" style="stroke:#000000; stroke-width:2; stroke-opacity:0.1; fill:none" points="
  2291.28,1479.47 2291.28,47.2441 
  "/>
<polyline clip-path="url(#clip4502)" style="stroke:#000000; stroke-width:2; stroke-opacity:0.1; fill:none" points="
  180.627,1140.5 2352.76,1140.5 
  "/>
<polyline clip-path="url(#clip4502)" style="stroke:#000000; stroke-width:2; stroke-opacity:0.1; fill:none" points="
  180.627,782.529 2352.76,782.529 
  "/>
<polyline clip-path="url(#clip4502)" style="stroke:#000000; stroke-width:2; stroke-opacity:0.1; fill:none" points="
  180.627,424.559 2352.76,424.559 
  "/>
<polyline clip-path="url(#clip4502)" style="stroke:#000000; stroke-width:2; stroke-opacity:0.1; fill:none" points="
  180.627,66.5884 2352.76,66.5884 
  "/>
<polyline clip-path="url(#clip4500)" style="stroke:#000000; stroke-width:4; stroke-opacity:1; fill:none" points="
  180.627,1479.47 2352.76,1479.47 
  "/>
<polyline clip-path="url(#clip4500)" style="stroke:#000000; stroke-width:4; stroke-opacity:1; fill:none" points="
  180.627,1479.47 180.627,47.2441 
  "/>
<polyline clip-path="url(#clip4500)" style="stroke:#000000; stroke-width:4; stroke-opacity:1; fill:none" points="
  242.102,1479.47 242.102,1462.29 
  "/>
<polyline clip-path="url(#clip4500)" style="stroke:#000000; stroke-width:4; stroke-opacity:1; fill:none" points="
  754.397,1479.47 754.397,1462.29 
  "/>
<polyline clip-path="url(#clip4500)" style="stroke:#000000; stroke-width:4; stroke-opacity:1; fill:none" points="
  1266.69,1479.47 1266.69,1462.29 
  "/>
<polyline clip-path="url(#clip4500)" style="stroke:#000000; stroke-width:4; stroke-opacity:1; fill:none" points="
  1778.99,1479.47 1778.99,1462.29 
  "/>
<polyline clip-path="url(#clip4500)" style="stroke:#000000; stroke-width:4; stroke-opacity:1; fill:none" points="
  2291.28,1479.47 2291.28,1462.29 
  "/>
<polyline clip-path="url(#clip4500)" style="stroke:#000000; stroke-width:4; stroke-opacity:1; fill:none" points="
  180.627,1140.5 206.692,1140.5 
  "/>
<polyline clip-path="url(#clip4500)" style="stroke:#000000; stroke-width:4; stroke-opacity:1; fill:none" points="
  180.627,782.529 206.692,782.529 
  "/>
<polyline clip-path="url(#clip4500)" style="stroke:#000000; stroke-width:4; stroke-opacity:1; fill:none" points="
  180.627,424.559 206.692,424.559 
  "/>
<polyline clip-path="url(#clip4500)" style="stroke:#000000; stroke-width:4; stroke-opacity:1; fill:none" points="
  180.627,66.5884 206.692,66.5884 
  "/>
<g clip-path="url(#clip4500)">
<text style="fill:#000000; fill-opacity:1; font-family:Arial,Helvetica Neue,Helvetica,sans-serif; font-size:48px; text-anchor:middle;" transform="rotate(0, 242.102, 1533.47)" x="242.102" y="1533.47">0</text>
</g>
<g clip-path="url(#clip4500)">
<text style="fill:#000000; fill-opacity:1; font-family:Arial,Helvetica Neue,Helvetica,sans-serif; font-size:48px; text-anchor:middle;" transform="rotate(0, 754.397, 1533.47)" x="754.397" y="1533.47">25</text>
</g>
<g clip-path="url(#clip4500)">
<text style="fill:#000000; fill-opacity:1; font-family:Arial,Helvetica Neue,Helvetica,sans-serif; font-size:48px; text-anchor:middle;" transform="rotate(0, 1266.69, 1533.47)" x="1266.69" y="1533.47">50</text>
</g>
<g clip-path="url(#clip4500)">
<text style="fill:#000000; fill-opacity:1; font-family:Arial,Helvetica Neue,Helvetica,sans-serif; font-size:48px; text-anchor:middle;" transform="rotate(0, 1778.99, 1533.47)" x="1778.99" y="1533.47">75</text>
</g>
<g clip-path="url(#clip4500)">
<text style="fill:#000000; fill-opacity:1; font-family:Arial,Helvetica Neue,Helvetica,sans-serif; font-size:48px; text-anchor:middle;" transform="rotate(0, 2291.28, 1533.47)" x="2291.28" y="1533.47">100</text>
</g>
<g clip-path="url(#clip4500)">
<text style="fill:#000000; fill-opacity:1; font-family:Arial,Helvetica Neue,Helvetica,sans-serif; font-size:48px; text-anchor:end;" transform="rotate(0, 156.627, 1158)" x="156.627" y="1158">-20</text>
</g>
<g clip-path="url(#clip4500)">
<text style="fill:#000000; fill-opacity:1; font-family:Arial,Helvetica Neue,Helvetica,sans-serif; font-size:48px; text-anchor:end;" transform="rotate(0, 156.627, 800.029)" x="156.627" y="800.029">-15</text>
</g>
<g clip-path="url(#clip4500)">
<text style="fill:#000000; fill-opacity:1; font-family:Arial,Helvetica Neue,Helvetica,sans-serif; font-size:48px; text-anchor:end;" transform="rotate(0, 156.627, 442.059)" x="156.627" y="442.059">-10</text>
</g>
<g clip-path="url(#clip4500)">
<text style="fill:#000000; fill-opacity:1; font-family:Arial,Helvetica Neue,Helvetica,sans-serif; font-size:48px; text-anchor:end;" transform="rotate(0, 156.627, 84.0884)" x="156.627" y="84.0884">-5</text>
</g>
<polyline clip-path="url(#clip4502)" style="stroke:#009af9; stroke-width:4; stroke-opacity:1; fill:none" points="
  242.102,87.7789 244.153,88.6784 246.205,90.4956 248.256,93.2692 250.307,97.0615 252.358,101.965 254.41,108.114 256.461,115.702 258.512,125.017 260.563,136.5 
  262.615,150.871 264.666,169.417 266.717,194.795 268.768,234.091 270.819,323.777 272.871,299.663 274.922,230.799 276.973,198.448 279.024,178.105 281.076,164.009 
  283.127,153.88 285.178,146.593 287.229,141.521 289.281,138.291 291.332,136.68 293.383,136.558 295.434,137.869 297.485,140.616 299.537,144.864 301.588,150.747 
  303.639,158.502 305.69,168.512 307.742,181.427 309.793,198.41 311.844,221.833 313.895,257.767 315.947,333.179 317.998,346.641 320.049,265.22 322.1,229.874 
  324.151,207.98 326.203,192.842 328.254,181.916 330.305,173.975 332.356,168.34 334.408,164.609 336.459,162.539 338.51,161.987 340.561,162.883 342.612,165.22 
  344.664,169.05 346.715,174.49 348.766,181.753 350.817,191.186 352.869,203.369 354.92,219.327 356.971,241.083 359.022,273.517 361.074,334.888 363.125,413.077 
  365.176,300.174 367.227,260.128 369.278,236.267 371.33,220.009 373.381,208.335 375.432,199.841 377.483,193.765 379.535,189.663 381.586,187.264 383.637,186.408 
  385.688,187.013 387.74,189.059 389.791,192.584 391.842,197.694 393.893,204.579 395.944,213.556 397.996,225.148 400.047,240.27 402.098,260.678 404.149,290.407 
  406.201,342.828 408.252,536.322 410.303,335.971 412.354,290.364 414.406,264.409 416.457,247.017 418.508,234.609 420.559,225.583 422.61,219.09 424.662,214.638 
  426.713,211.932 428.764,210.794 430.815,211.127 432.867,212.901 434.918,216.142 436.969,220.943 439.02,227.476 441.072,236.029 443.123,247.078 445.174,261.441 
  447.225,280.657 449.276,308.114 451.328,354.008 453.379,512.864 455.43,373.863 457.481,321.119 459.533,292.779 461.584,274.157 463.635,260.974 465.686,251.394 
  467.737,244.473 469.789,239.667 471.84,236.651 473.891,235.229 475.942,235.292 477.994,236.796 480.045,239.759 482.096,244.258 484.147,250.45 486.199,258.597 
  488.25,269.131 490.301,282.788 492.352,300.924 494.403,326.411 496.455,367.24 498.506,471.08 500.557,415.08 502.608,352.597 504.66,321.466 506.711,301.479 
  508.762,287.46 510.813,277.298 512.865,269.929 514.916,264.758 516.967,261.426 519.018,259.717 521.069,259.508 523.121,260.743 525.172,263.429 527.223,267.633 
  529.274,273.493 531.326,281.248 533.377,291.292 535.428,304.288 537.479,321.436 539.531,345.194 541.582,381.959 543.633,461.515 545.684,461.768 547.735,384.972 
  549.787,350.517 551.838,329.004 553.889,314.08 555.94,303.298 557.992,295.463 560.043,289.913 562.094,286.258 564.145,284.258 566.197,283.774 568.248,284.741 
  570.299,287.153 572.35,291.065 574.401,296.601 576.453,303.978 578.504,313.554 580.555,325.93 582.606,342.17 584.658,364.396 586.709,397.816 588.76,462.859 
  590.811,519.102 592.862,418.481 594.914,379.986 596.965,356.751 599.016,340.842 601.067,329.4 603.119,321.075 605.17,315.135 607.221,311.147 609.272,308.851 
  611.324,308.091 613.375,308.789 615.426,310.929 617.477,314.553 619.528,319.773 621.58,326.784 623.631,335.913 625.682,347.703 627.733,363.105 629.785,383.962 
  631.836,414.575 633.887,469.768 635.938,607.222 637.99,453.466 640.041,409.941 642.092,384.744 644.143,367.756 646.194,355.609 648.246,346.771 650.297,340.424 
  652.348,336.096 654.399,333.498 656.451,332.459 658.502,332.887 660.553,334.756 662.604,338.097 664.656,343.007 666.707,349.663 668.758,358.363 670.809,369.6 
  672.86,384.225 674.912,403.848 676.963,432.068 679.014,480.066 681.065,689.268 683.117,490.459 685.168,440.468 687.219,413.011 689.27,394.837 691.322,381.934 
  693.373,372.553 695.424,365.784 697.475,361.105 699.526,358.199 701.578,356.878 703.629,357.036 705.68,358.635 707.731,361.696 709.783,366.301 711.834,372.612 
  713.885,380.9 715.936,391.612 717.987,405.513 720.039,424.017 722.09,450.167 724.141,492.647 726.192,609.875 728.244,530.349 730.295,471.682 732.346,441.587 
  734.397,422.097 736.449,408.38 738.5,398.426 740.551,391.217 742.602,386.176 744.653,382.956 746.705,381.349 748.756,381.235 750.807,382.565 752.858,385.348 
  754.91,389.654 756.961,395.63 759.012,403.521 761.063,413.734 763.115,426.957 765.166,444.441 767.217,468.781 769.268,506.876 771.319,593.37 773.371,574.792 
  775.422,503.733 777.473,470.513 779.524,449.555 781.576,434.957 783.627,424.395 785.678,416.726 787.729,411.311 789.781,407.769 791.832,405.872 793.883,405.484 
  795.934,406.545 797.985,409.052 800.037,413.066 802.088,418.713 804.139,426.221 806.19,435.958 808.242,448.546 810.293,465.094 812.344,487.834 814.395,522.35 
  816.447,591.76 818.498,627.479 820.549,536.832 822.6,499.84 824.651,477.229 826.703,461.673 828.754,450.465 830.805,442.314 832.856,436.511 834.908,432.64 
  836.959,430.447 839.01,429.784 841.061,430.575 843.112,432.809 845.164,436.533 847.215,441.861 849.266,448.998 851.317,458.28 853.369,470.269 855.42,485.954 
  857.471,507.268 859.522,538.8 861.574,597.029 863.625,699.967 865.676,571.281 867.727,529.631 869.778,505.143 871.83,488.54 873.881,476.642 875.932,467.984 
  877.983,461.78 880.035,457.57 882.086,455.077 884.137,454.135 886.188,454.656 888.24,456.618 890.291,460.056 892.342,465.071 894.393,471.848 896.444,480.694 
  898.496,492.118 900.547,507.003 902.598,527.035 904.649,556.036 906.701,606.276 908.752,966.804 910.803,607.54 912.854,559.968 914.906,533.324 916.957,515.57 
  919.008,502.932 921.059,493.741 923.11,487.119 925.162,482.561 927.213,479.761 929.264,478.536 931.315,478.787 933.367,480.478 935.418,483.634 937.469,488.342 
  939.52,494.77 941.572,503.196 943.623,514.084 945.674,528.225 947.725,547.098 949.776,573.92 951.828,618.126 953.879,753.172 955.93,646.355 957.981,590.955 
  960.033,561.804 962.084,542.777 964.135,529.343 966.186,519.588 968.237,512.531 970.289,507.613 972.34,504.5 974.391,502.99 976.442,502.968 978.494,504.389 
  980.545,507.265 982.596,511.672 984.647,517.76 986.699,525.782 988.75,536.161 990.801,549.607 992.852,567.424 994.903,592.346 996.955,631.811 999.006,726.388 
  1001.06,689.064 1003.11,622.731 1005.16,590.624 1007.21,570.178 1009.26,555.883 1011.31,545.53 1013.36,538.018 1015.42,532.729 1017.47,529.296 1019.52,527.496 
  1021.57,527.2 1023.62,528.351 1025.67,530.95 1027.72,535.06 1029.77,540.816 1031.83,548.45 1033.88,558.342 1035.93,571.137 1037.98,587.987 1040.03,611.236 
  1042.08,646.864 1044.13,721.072 1046.18,738.457 1048.24,655.49 1050.29,619.833 1052.34,597.792 1054.39,582.563 1056.44,571.574 1058.49,563.584 1060.54,557.911 
  1062.59,554.15 1064.65,552.055 1066.7,551.483 1068.75,552.363 1070.8,554.686 1072.85,558.505 1074.9,563.937 1076.95,571.193 1079,580.622 1081.06,592.803 
  1083.11,608.763 1085.16,630.525 1087.21,662.977 1089.26,724.42 1091.31,802.104 1093.36,689.5 1095.41,649.489 1097.46,625.641 1099.52,609.391 1101.57,597.723 
  1103.62,589.233 1105.67,583.162 1107.72,579.063 1109.77,576.668 1111.82,575.816 1113.87,576.426 1115.93,578.475 1117.98,582.005 1120.03,587.121 1122.08,594.012 
  1124.13,602.996 1126.18,614.598 1128.23,629.733 1130.28,650.163 1132.34,679.933 1134.39,732.48 1136.44,922.29 1138.49,725.175 1140.54,679.672 1142.59,653.754 
  1144.64,636.381 1146.69,623.986 1148.75,614.969 1150.8,608.482 1152.85,604.036 1154.9,601.335 1156.95,600.201 1159,600.538 1161.05,602.315 1163.1,605.56 
  1165.16,610.365 1167.21,616.901 1169.26,625.459 1171.31,636.512 1173.36,650.883 1175.41,670.109 1177.46,697.584 1179.51,743.527 1181.57,903.221 1183.62,763.15 
  1185.67,710.477 1187.72,682.159 1189.77,663.547 1191.82,650.37 1193.87,640.796 1195.92,633.877 1197.98,629.073 1200.03,626.059 1202.08,624.639 1204.13,624.702 
  1206.18,626.206 1208.23,629.169 1210.28,633.669 1212.33,639.86 1214.39,648.006 1216.44,658.538 1218.49,672.193 1220.54,690.325 1222.59,715.805 1224.64,756.618 
  1226.69,860.337 1228.74,804.566 1230.79,742.04 1232.85,710.898 1234.9,690.905 1236.95,676.882 1239,666.716 1241.05,659.346 1243.1,654.172 1245.15,650.838 
  1247.2,649.127 1249.26,648.915 1251.31,650.147 1253.36,652.83 1255.41,657.03 1257.46,662.886 1259.51,670.635 1261.56,680.672 1263.61,693.658 1265.67,710.79 
  1267.72,734.522 1269.77,771.224 1271.82,850.476 1273.87,851.634 1275.92,774.535 1277.97,740.018 1280.02,718.476 1282.08,703.536 1284.13,692.742 1286.18,684.897 
  1288.23,679.34 1290.28,675.678 1292.33,673.671 1294.38,673.18 1296.43,674.14 1298.49,676.545 1300.54,680.448 1302.59,685.974 1304.64,693.34 1306.69,702.902 
  1308.74,715.258 1310.79,731.47 1312.84,753.649 1314.9,786.97 1316.95,851.635 1319,909.897 1321.05,808.214 1323.1,769.573 1325.15,746.277 1327.2,730.334 
  1329.25,718.869 1331.31,710.528 1333.36,704.574 1335.41,700.574 1337.46,698.266 1339.51,697.496 1341.56,698.183 1343.61,700.312 1345.66,703.924 1347.71,709.129 
  1349.77,716.123 1351.82,725.232 1353.87,736.995 1355.92,752.357 1357.97,773.149 1360.02,803.635 1362.07,858.415 1364.12,1002 1366.18,843.462 1368.23,799.652 
  1370.28,774.349 1372.33,757.303 1374.38,745.119 1376.43,736.252 1378.48,729.883 1380.53,725.535 1382.59,722.919 1384.64,721.864 1386.69,722.276 1388.74,724.128 
  1390.79,727.451 1392.84,732.34 1394.89,738.973 1396.94,747.645 1399,758.846 1401.05,773.42 1403.1,792.963 1405.15,821.033 1407.2,868.609 1409.25,1064.36 
  1411.3,880.822 1413.35,830.322 1415.41,802.697 1417.46,784.437 1419.51,771.48 1421.56,762.061 1423.61,755.262 1425.66,750.556 1427.71,747.628 1429.76,746.285 
  1431.82,746.423 1433.87,748 1435.92,751.038 1437.97,755.618 1440.02,761.9 1442.07,770.152 1444.12,780.819 1446.17,794.656 1448.23,813.064 1450.28,839.039 
  1452.33,881.078 1454.38,994.447 1456.43,921.37 1458.48,861.758 1460.53,831.399 1462.58,811.78 1464.64,797.984 1466.69,787.974 1468.74,780.721 1470.79,775.644 
  1472.84,772.392 1474.89,770.755 1476.94,770.614 1478.99,771.915 1481.04,774.669 1483.1,778.944 1485.15,784.884 1487.2,792.733 1489.25,802.893 1491.3,816.045 
  1493.35,833.422 1495.4,857.575 1497.45,895.239 1499.51,979.392 1501.56,966.827 1503.61,894.05 1505.66,860.448 1507.71,839.316 1509.76,824.615 1511.81,813.983 
  1513.86,806.261 1515.92,800.802 1517.97,797.222 1520.02,795.289 1522.07,794.867 1524.12,795.894 1526.17,798.366 1528.22,802.34 1530.27,807.944 1532.33,815.399 
  1534.38,825.071 1536.43,837.572 1538.48,853.994 1540.53,876.522 1542.58,910.583 1544.63,978.146 1546.68,1021.98 1548.74,927.563 1550.79,889.972 1552.84,867.109 
  1554.89,851.408 1556.94,840.104 1558.99,831.88 1561.04,826.019 1563.09,822.098 1565.15,819.861 1567.2,819.155 1569.25,819.906 1571.3,822.098 1573.35,825.778 
  1575.4,831.057 1577.45,838.136 1579.5,847.348 1581.56,859.246 1583.61,874.798 1585.66,895.897 1587.71,926.991 1589.76,983.748 1591.81,1101.57 1593.86,962.481 
  1595.91,919.967 1597.96,895.148 1600.02,878.365 1602.07,866.349 1604.12,857.604 1606.17,851.33 1608.22,847.061 1610.27,844.513 1612.32,843.52 1614.37,843.99 
  1616.43,845.9 1618.48,849.283 1620.53,854.236 1622.58,860.942 1624.63,869.701 1626.68,881.014 1628.73,895.744 1630.78,915.533 1632.84,944.07 1634.89,992.971 
  1636.94,1244.79 1638.99,999.565 1641.04,950.605 1643.09,923.488 1645.14,905.488 1647.19,892.695 1649.25,883.391 1651.3,876.682 1653.35,872.052 1655.4,869.19 
  1657.45,867.908 1659.5,868.103 1661.55,869.739 1663.6,872.837 1665.66,877.482 1667.71,883.836 1669.76,892.175 1671.81,902.949 1673.86,916.933 1675.91,935.561 
  1677.96,961.932 1680.01,1004.97 1682.07,1127.4 1684.12,1039.52 1686.17,981.97 1688.22,952.19 1690.27,932.852 1692.32,919.226 1694.37,909.333 1696.42,902.168 
  1698.48,897.161 1700.53,893.968 1702.58,892.383 1704.63,892.29 1706.68,893.638 1708.73,896.438 1710.78,900.763 1712.83,906.759 1714.89,914.674 1716.94,924.918 
  1718.99,938.185 1721.04,955.735 1723.09,980.192 1725.14,1018.56 1727.19,1106.62 1729.24,1084.18 1731.29,1014.17 1733.35,981.192 1735.4,960.344 1737.45,945.812 
  1739.5,935.296 1741.55,927.662 1743.6,922.276 1745.65,918.759 1747.7,916.884 1749.76,916.517 1751.81,917.597 1753.86,920.123 1755.91,924.153 1757.96,929.818 
  1760.01,937.343 1762.06,947.097 1764.11,959.705 1766.17,976.277 1768.22,999.055 1770.27,1033.65 1772.32,1103.37 1774.37,1137.77 1776.42,1047.71 1778.47,1010.81 
  1780.52,988.232 1782.58,972.69 1784.63,961.488 1786.68,953.337 1788.73,947.531 1790.78,943.655 1792.83,941.455 1794.88,940.784 1796.93,941.568 1798.99,943.794 
  1801.04,947.511 1803.09,952.832 1805.14,959.962 1807.19,969.238 1809.24,981.222 1811.29,996.903 1813.34,1018.21 1815.4,1049.74 1817.45,1107.94 1819.5,1211.14 
  1821.55,1082.29 1823.6,1040.63 1825.65,1016.14 1827.7,999.541 1829.75,987.648 1831.81,978.996 1833.86,972.796 1835.91,968.59 1837.96,966.099 1840.01,965.157 
  1842.06,965.676 1844.11,967.632 1846.16,971.06 1848.21,976.059 1850.27,982.812 1852.32,991.625 1854.37,1003 1856.42,1017.82 1858.47,1037.74 1860.52,1066.52 
  1862.57,1116.14 1864.62,1438.94 1866.68,1119.79 1868.73,1071.59 1870.78,1044.71 1872.83,1026.83 1874.88,1014.11 1876.93,1004.85 1878.98,998.174 1881.03,993.568 
  1883.09,990.727 1885.14,989.464 1887.19,989.681 1889.24,991.34 1891.29,994.467 1893.34,999.147 1895.39,1005.55 1897.44,1013.94 1899.5,1024.79 1901.55,1038.88 
  1903.6,1057.68 1905.65,1084.34 1907.7,1128.13 1909.75,1258.28 1911.8,1158.66 1913.85,1102.52 1915.91,1073.16 1917.96,1054.04 1920.01,1040.55 1922.06,1030.76 
  1924.11,1023.67 1926.16,1018.73 1928.21,1015.59 1930.26,1014.04 1932.32,1013.98 1934.37,1015.36 1936.42,1018.19 1938.47,1022.53 1940.52,1028.54 1942.57,1036.46 
  1944.62,1046.72 1946.67,1059.99 1948.73,1077.56 1950.78,1102.06 1952.83,1140.55 1954.88,1229.37 1956.93,1205 1958.98,1135.47 1961.03,1102.58 1963.08,1081.76 
  1965.14,1067.24 1967.19,1056.73 1969.24,1049.1 1971.29,1043.71 1973.34,1040.2 1975.39,1038.34 1977.44,1037.99 1979.49,1039.1 1981.54,1041.66 1983.6,1045.73 
  1985.65,1051.45 1987.7,1059.04 1989.75,1068.88 1991.8,1081.59 1993.85,1098.32 1995.9,1121.32 1997.95,1156.38 2000.01,1227.95 2002.06,1255.14 2004.11,1168.24 
  2006.16,1131.9 2008.21,1109.57 2010.26,1094.18 2012.31,1083.07 2014.36,1074.99 2016.42,1069.23 2018.47,1065.38 2020.52,1063.19 2022.57,1062.52 2024.62,1063.3 
  2026.67,1065.5 2028.72,1069.19 2030.77,1074.47 2032.83,1081.55 2034.88,1090.77 2036.93,1102.67 2038.98,1118.23 2041.03,1139.3 2043.08,1170.05 2045.13,1222.64 
  2047.18,1270.34 2049.24,1198.49 2051.29,1160.12 2053.34,1136.58 2055.39,1120.46 2057.44,1108.84 2059.49,1100.28 2061.54,1093.95 2063.59,1089.31 2065.65,1086.06 
  2067.7,1084.07 2069.75,1083.41 2071.8,1084.37 2073.85,1087.36 2075.9,1092.91 2077.95,1101.45 2080,1112.77 2082.06,1124.41 2084.11,1130.03 2086.16,1125.51 
  2088.21,1116.55 2090.26,1110.18 2092.31,1109.89 2094.36,1117.68 2096.41,1135.28 2098.46,1156.61 2100.52,1144.98 2102.57,1112.88 2104.62,1088.89 2106.67,1074.52 
  2108.72,1068.42 2110.77,1070.05 2112.82,1079.6 2114.87,1096.7 2116.93,1112.56 2118.98,1104.87 2121.03,1083.88 2123.08,1068.3 2125.13,1061.59 2127.18,1064.29 
  2129.23,1078.39 2131.28,1110.89 2133.34,1191.21 2135.39,1144.31 2137.44,1090.03 2139.49,1065.53 2141.54,1055.81 2143.59,1057.49 2145.64,1071.24 2147.69,1101.89 
  2149.75,1148.5 2151.8,1114.47 2153.85,1074.91 2155.9,1054.72 2157.95,1047.48 2160,1051.24 2162.05,1067.26 2164.1,1100.95 2166.16,1144.42 2168.21,1104.39 
  2170.26,1068.64 2172.31,1051.37 2174.36,1046.97 2176.41,1054.36 2178.46,1076.78 2180.51,1130.61 2182.57,1218.21 2184.62,1100.62 2186.67,1064.96 2188.72,1050.26 
  2190.77,1048.71 2192.82,1059.53 2194.87,1086.9 2196.92,1145.03 2198.98,1136.85 2201.03,1083.11 2203.08,1058.16 2205.13,1048.87 2207.18,1051.62 2209.23,1067.24 
  2211.28,1102.34 2213.33,1169.26 2215.39,1120.15 2217.44,1077.48 2219.49,1058.6 2221.54,1053.95 2223.59,1061.68 2225.64,1084.94 2227.69,1140.98 2229.74,1219.78 
  2231.79,1108.03 2233.85,1073.98 2235.9,1060.61 2237.95,1060.5 2240,1073.17 2242.05,1103.64 2244.1,1169.61 2246.15,1145.6 2248.2,1094.47 2250.26,1071.98 
  2252.31,1064.88 2254.36,1070.1 2256.41,1089.26 2258.46,1131.82 2260.51,1202.98 2262.56,1128.41 2264.61,1091.17 2266.67,1075.83 2268.72,1074.23 2270.77,1085.45 
  2272.82,1114.29 2274.87,1189 2276.92,1192.14 2278.97,1118.25 2281.02,1091.31 2283.08,1082.15 2285.13,1085.83 2287.18,1103.16 2289.23,1141.79 2291.28,1210.47 
  
  "/>
<polyline clip-path="url(#clip4502)" style="stroke:#e26f46; stroke-width:4; stroke-opacity:1; fill:none" points="
  242.102,102.385 244.153,103.484 246.205,104.583 248.256,105.681 250.307,106.78 252.358,107.879 254.41,108.977 256.461,110.076 258.512,111.174 260.563,112.273 
  262.615,113.372 264.666,114.47 266.717,115.569 268.768,116.668 270.819,117.766 272.871,118.865 274.922,119.964 276.973,121.062 279.024,122.161 281.076,123.259 
  283.127,124.358 285.178,125.457 287.229,126.555 289.281,127.654 291.332,128.753 293.383,129.851 295.434,130.95 297.485,132.049 299.537,133.147 301.588,134.246 
  303.639,135.344 305.69,136.443 307.742,137.542 309.793,138.64 311.844,139.739 313.895,140.838 315.947,141.936 317.998,143.035 320.049,144.134 322.1,145.232 
  324.151,146.331 326.203,147.429 328.254,148.528 330.305,149.627 332.356,150.725 334.408,151.824 336.459,152.923 338.51,154.021 340.561,155.12 342.612,156.219 
  344.664,157.317 346.715,158.416 348.766,159.514 350.817,160.613 352.869,161.712 354.92,162.81 356.971,163.909 359.022,165.008 361.074,166.106 363.125,167.205 
  365.176,168.304 367.227,169.402 369.278,170.501 371.33,171.599 373.381,172.698 375.432,173.797 377.483,174.895 379.535,175.994 381.586,177.093 383.637,178.191 
  385.688,179.29 387.74,180.388 389.791,181.487 391.842,182.586 393.893,183.684 395.944,184.783 397.996,185.882 400.047,186.98 402.098,188.079 404.149,189.178 
  406.201,190.276 408.252,191.375 410.303,192.473 412.354,193.572 414.406,194.671 416.457,195.769 418.508,196.868 420.559,197.967 422.61,199.065 424.662,200.164 
  426.713,201.263 428.764,202.361 430.815,203.46 432.867,204.558 434.918,205.657 436.969,206.756 439.02,207.854 441.072,208.953 443.123,210.052 445.174,211.15 
  447.225,212.249 449.276,213.348 451.328,214.446 453.379,215.545 455.43,216.643 457.481,217.742 459.533,218.841 461.584,219.939 463.635,221.038 465.686,222.137 
  467.737,223.235 469.789,224.334 471.84,225.433 473.891,226.531 475.942,227.63 477.994,228.728 480.045,229.827 482.096,230.926 484.147,232.024 486.199,233.123 
  488.25,234.222 490.301,235.32 492.352,236.419 494.403,237.518 496.455,238.616 498.506,239.715 500.557,240.813 502.608,241.912 504.66,243.011 506.711,244.109 
  508.762,245.208 510.813,246.307 512.865,247.405 514.916,248.504 516.967,249.603 519.018,250.701 521.069,251.8 523.121,252.898 525.172,253.997 527.223,255.096 
  529.274,256.194 531.326,257.293 533.377,258.392 535.428,259.49 537.479,260.589 539.531,261.688 541.582,262.786 543.633,263.885 545.684,264.983 547.735,266.082 
  549.787,267.181 551.838,268.279 553.889,269.378 555.94,270.477 557.992,271.575 560.043,272.674 562.094,273.772 564.145,274.871 566.197,275.97 568.248,277.068 
  570.299,278.167 572.35,279.266 574.401,280.364 576.453,281.463 578.504,282.562 580.555,283.66 582.606,284.759 584.658,285.857 586.709,286.956 588.76,288.055 
  590.811,289.153 592.862,290.252 594.914,291.351 596.965,292.449 599.016,293.548 601.067,294.647 603.119,295.745 605.17,296.844 607.221,297.942 609.272,299.041 
  611.324,300.14 613.375,301.238 615.426,302.337 617.477,303.436 619.528,304.534 621.58,305.633 623.631,306.732 625.682,307.83 627.733,308.929 629.785,310.027 
  631.836,311.126 633.887,312.225 635.938,313.323 637.99,314.422 640.041,315.521 642.092,316.619 644.143,317.718 646.194,318.817 648.246,319.915 650.297,321.014 
  652.348,322.112 654.399,323.211 656.451,324.31 658.502,325.408 660.553,326.507 662.604,327.606 664.656,328.704 666.707,329.803 668.758,330.902 670.809,332 
  672.86,333.099 674.912,334.197 676.963,335.296 679.014,336.395 681.065,337.493 683.117,338.592 685.168,339.691 687.219,340.789 689.27,341.888 691.322,342.987 
  693.373,344.085 695.424,345.184 697.475,346.282 699.526,347.381 701.578,348.48 703.629,349.578 705.68,350.677 707.731,351.776 709.783,352.874 711.834,353.973 
  713.885,355.071 715.936,356.17 717.987,357.269 720.039,358.367 722.09,359.466 724.141,360.565 726.192,361.663 728.244,362.762 730.295,363.861 732.346,364.959 
  734.397,366.058 736.449,367.156 738.5,368.255 740.551,369.354 742.602,370.452 744.653,371.551 746.705,372.65 748.756,373.748 750.807,374.847 752.858,375.946 
  754.91,377.044 756.961,378.143 759.012,379.241 761.063,380.34 763.115,381.439 765.166,382.537 767.217,383.636 769.268,384.735 771.319,385.833 773.371,386.932 
  775.422,388.031 777.473,389.129 779.524,390.228 781.576,391.326 783.627,392.425 785.678,393.524 787.729,394.622 789.781,395.721 791.832,396.82 793.883,397.918 
  795.934,399.017 797.985,400.116 800.037,401.214 802.088,402.313 804.139,403.411 806.19,404.51 808.242,405.609 810.293,406.707 812.344,407.806 814.395,408.905 
  816.447,410.003 818.498,411.102 820.549,412.201 822.6,413.299 824.651,414.398 826.703,415.496 828.754,416.595 830.805,417.694 832.856,418.792 834.908,419.891 
  836.959,420.99 839.01,422.088 841.061,423.187 843.112,424.286 845.164,425.384 847.215,426.483 849.266,427.581 851.317,428.68 853.369,429.779 855.42,430.877 
  857.471,431.976 859.522,433.075 861.574,434.173 863.625,435.272 865.676,436.371 867.727,437.469 869.778,438.568 871.83,439.666 873.881,440.765 875.932,441.864 
  877.983,442.962 880.035,444.061 882.086,445.16 884.137,446.258 886.188,447.357 888.24,448.455 890.291,449.554 892.342,450.653 894.393,451.751 896.444,452.85 
  898.496,453.949 900.547,455.047 902.598,456.146 904.649,457.245 906.701,458.343 908.752,459.442 910.803,460.54 912.854,461.639 914.906,462.738 916.957,463.836 
  919.008,464.935 921.059,466.034 923.11,467.132 925.162,468.231 927.213,469.33 929.264,470.428 931.315,471.527 933.367,472.625 935.418,473.724 937.469,474.823 
  939.52,475.921 941.572,477.02 943.623,478.119 945.674,479.217 947.725,480.316 949.776,481.415 951.828,482.513 953.879,483.612 955.93,484.71 957.981,485.809 
  960.033,486.908 962.084,488.006 964.135,489.105 966.186,490.204 968.237,491.302 970.289,492.401 972.34,493.5 974.391,494.598 976.442,495.697 978.494,496.795 
  980.545,497.894 982.596,498.993 984.647,500.091 986.699,501.19 988.75,502.289 990.801,503.387 992.852,504.486 994.903,505.585 996.955,506.683 999.006,507.782 
  1001.06,508.88 1003.11,509.979 1005.16,511.078 1007.21,512.176 1009.26,513.275 1011.31,514.374 1013.36,515.472 1015.42,516.571 1017.47,517.67 1019.52,518.768 
  1021.57,519.867 1023.62,520.965 1025.67,522.064 1027.72,523.163 1029.77,524.261 1031.83,525.36 1033.88,526.459 1035.93,527.557 1037.98,528.656 1040.03,529.755 
  1042.08,530.853 1044.13,531.952 1046.18,533.05 1048.24,534.149 1050.29,535.248 1052.34,536.346 1054.39,537.445 1056.44,538.544 1058.49,539.642 1060.54,540.741 
  1062.59,541.839 1064.65,542.938 1066.7,544.037 1068.75,545.135 1070.8,546.234 1072.85,547.333 1074.9,548.431 1076.95,549.53 1079,550.629 1081.06,551.727 
  1083.11,552.826 1085.16,553.924 1087.21,555.023 1089.26,556.122 1091.31,557.22 1093.36,558.319 1095.41,559.418 1097.46,560.516 1099.52,561.615 1101.57,562.714 
  1103.62,563.812 1105.67,564.911 1107.72,566.009 1109.77,567.108 1111.82,568.207 1113.87,569.305 1115.93,570.404 1117.98,571.503 1120.03,572.601 1122.08,573.7 
  1124.13,574.799 1126.18,575.897 1128.23,576.996 1130.28,578.094 1132.34,579.193 1134.39,580.292 1136.44,581.39 1138.49,582.489 1140.54,583.588 1142.59,584.686 
  1144.64,585.785 1146.69,586.884 1148.75,587.982 1150.8,589.081 1152.85,590.179 1154.9,591.278 1156.95,592.377 1159,593.475 1161.05,594.574 1163.1,595.673 
  1165.16,596.771 1167.21,597.87 1169.26,598.969 1171.31,600.067 1173.36,601.166 1175.41,602.264 1177.46,603.363 1179.51,604.462 1181.57,605.56 1183.62,606.659 
  1185.67,607.758 1187.72,608.856 1189.77,609.955 1191.82,611.054 1193.87,612.152 1195.92,613.251 1197.98,614.349 1200.03,615.448 1202.08,616.547 1204.13,617.645 
  1206.18,618.744 1208.23,619.843 1210.28,620.941 1212.33,622.04 1214.39,623.138 1216.44,624.237 1218.49,625.336 1220.54,626.434 1222.59,627.533 1224.64,628.632 
  1226.69,629.73 1228.74,630.829 1230.79,631.928 1232.85,633.026 1234.9,634.125 1236.95,635.223 1239,636.322 1241.05,637.421 1243.1,638.519 1245.15,639.618 
  1247.2,640.717 1249.26,641.815 1251.31,642.914 1253.36,644.013 1255.41,645.111 1257.46,646.21 1259.51,647.308 1261.56,648.407 1263.61,649.506 1265.67,650.604 
  1267.72,651.703 1269.77,652.802 1271.82,653.9 1273.87,654.999 1275.92,656.098 1277.97,657.196 1280.02,658.295 1282.08,659.393 1284.13,660.492 1286.18,661.591 
  1288.23,662.689 1290.28,663.788 1292.33,664.887 1294.38,665.985 1296.43,667.084 1298.49,668.183 1300.54,669.281 1302.59,670.38 1304.64,671.478 1306.69,672.577 
  1308.74,673.676 1310.79,674.774 1312.84,675.873 1314.9,676.972 1316.95,678.07 1319,679.169 1321.05,680.268 1323.1,681.366 1325.15,682.465 1327.2,683.563 
  1329.25,684.662 1331.31,685.761 1333.36,686.859 1335.41,687.958 1337.46,689.057 1339.51,690.155 1341.56,691.254 1343.61,692.353 1345.66,693.451 1347.71,694.55 
  1349.77,695.648 1351.82,696.747 1353.87,697.846 1355.92,698.944 1357.97,700.043 1360.02,701.142 1362.07,702.24 1364.12,703.339 1366.18,704.438 1368.23,705.536 
  1370.28,706.635 1372.33,707.733 1374.38,708.832 1376.43,709.931 1378.48,711.029 1380.53,712.128 1382.59,713.227 1384.64,714.325 1386.69,715.424 1388.74,716.522 
  1390.79,717.621 1392.84,718.72 1394.89,719.818 1396.94,720.917 1399,722.016 1401.05,723.114 1403.1,724.213 1405.15,725.312 1407.2,726.41 1409.25,727.509 
  1411.3,728.607 1413.35,729.706 1415.41,730.805 1417.46,731.903 1419.51,733.002 1421.56,734.101 1423.61,735.199 1425.66,736.298 1427.71,737.397 1429.76,738.495 
  1431.82,739.594 1433.87,740.692 1435.92,741.791 1437.97,742.89 1440.02,743.988 1442.07,745.087 1444.12,746.186 1446.17,747.284 1448.23,748.383 1450.28,749.482 
  1452.33,750.58 1454.38,751.679 1456.43,752.777 1458.48,753.876 1460.53,754.975 1462.58,756.073 1464.64,757.172 1466.69,758.271 1468.74,759.369 1470.79,760.468 
  1472.84,761.567 1474.89,762.665 1476.94,763.764 1478.99,764.862 1481.04,765.961 1483.1,767.06 1485.15,768.158 1487.2,769.257 1489.25,770.356 1491.3,771.454 
  1493.35,772.553 1495.4,773.652 1497.45,774.75 1499.51,775.849 1501.56,776.947 1503.61,778.046 1505.66,779.145 1507.71,780.243 1509.76,781.342 1511.81,782.441 
  1513.86,783.539 1515.92,784.638 1517.97,785.737 1520.02,786.835 1522.07,787.934 1524.12,789.032 1526.17,790.131 1528.22,791.23 1530.27,792.328 1532.33,793.427 
  1534.38,794.526 1536.43,795.624 1538.48,796.723 1540.53,797.821 1542.58,798.92 1544.63,800.019 1546.68,801.117 1548.74,802.216 1550.79,803.315 1552.84,804.413 
  1554.89,805.512 1556.94,806.611 1558.99,807.709 1561.04,808.808 1563.09,809.906 1565.15,811.005 1567.2,812.104 1569.25,813.202 1571.3,814.301 1573.35,815.4 
  1575.4,816.498 1577.45,817.597 1579.5,818.696 1581.56,819.794 1583.61,820.893 1585.66,821.991 1587.71,823.09 1589.76,824.189 1591.81,825.287 1593.86,826.386 
  1595.91,827.485 1597.96,828.583 1600.02,829.682 1602.07,830.781 1604.12,831.879 1606.17,832.978 1608.22,834.076 1610.27,835.175 1612.32,836.274 1614.37,837.372 
  1616.43,838.471 1618.48,839.57 1620.53,840.668 1622.58,841.767 1624.63,842.866 1626.68,843.964 1628.73,845.063 1630.78,846.161 1632.84,847.26 1634.89,848.359 
  1636.94,849.457 1638.99,850.556 1641.04,851.655 1643.09,852.753 1645.14,853.852 1647.19,854.951 1649.25,856.049 1651.3,857.148 1653.35,858.246 1655.4,859.345 
  1657.45,860.444 1659.5,861.542 1661.55,862.641 1663.6,863.74 1665.66,864.838 1667.71,865.937 1669.76,867.036 1671.81,868.134 1673.86,869.233 1675.91,870.331 
  1677.96,871.43 1680.01,872.529 1682.07,873.627 1684.12,874.726 1686.17,875.825 1688.22,876.923 1690.27,878.022 1692.32,879.121 1694.37,880.219 1696.42,881.318 
  1698.48,882.416 1700.53,883.515 1702.58,884.614 1704.63,885.712 1706.68,886.811 1708.73,887.91 1710.78,889.008 1712.83,890.107 1714.89,891.205 1716.94,892.304 
  1718.99,893.403 1721.04,894.501 1723.09,895.6 1725.14,896.699 1727.19,897.797 1729.24,898.896 1731.29,899.995 1733.35,901.093 1735.4,902.192 1737.45,903.29 
  1739.5,904.389 1741.55,905.488 1743.6,906.586 1745.65,907.685 1747.7,908.784 1749.76,909.882 1751.81,910.981 1753.86,912.08 1755.91,913.178 1757.96,914.277 
  1760.01,915.375 1762.06,916.474 1764.11,917.573 1766.17,918.671 1768.22,919.77 1770.27,920.869 1772.32,921.967 1774.37,923.066 1776.42,924.165 1778.47,925.263 
  1780.52,926.362 1782.58,927.46 1784.63,928.559 1786.68,929.658 1788.73,930.756 1790.78,931.855 1792.83,932.954 1794.88,934.052 1796.93,935.151 1798.99,936.25 
  1801.04,937.348 1803.09,938.447 1805.14,939.545 1807.19,940.644 1809.24,941.743 1811.29,942.841 1813.34,943.94 1815.4,945.039 1817.45,946.137 1819.5,947.236 
  1821.55,948.335 1823.6,949.433 1825.65,950.532 1827.7,951.63 1829.75,952.729 1831.81,953.828 1833.86,954.926 1835.91,956.025 1837.96,957.124 1840.01,958.222 
  1842.06,959.321 1844.11,960.42 1846.16,961.518 1848.21,962.617 1850.27,963.715 1852.32,964.814 1854.37,965.913 1856.42,967.011 1858.47,968.11 1860.52,969.209 
  1862.57,970.307 1864.62,971.406 1866.68,972.505 1868.73,973.603 1870.78,974.702 1872.83,975.8 1874.88,976.899 1876.93,977.998 1878.98,979.096 1881.03,980.195 
  1883.09,981.294 1885.14,982.392 1887.19,983.491 1889.24,984.589 1891.29,985.688 1893.34,986.787 1895.39,987.885 1897.44,988.984 1899.5,990.083 1901.55,991.181 
  1903.6,992.28 1905.65,993.379 1907.7,994.477 1909.75,995.576 1911.8,996.674 1913.85,997.773 1915.91,998.872 1917.96,999.97 1920.01,1001.07 1922.06,1002.17 
  1924.11,1003.27 1926.16,1004.36 1928.21,1005.46 1930.26,1006.56 1932.32,1007.66 1934.37,1008.76 1936.42,1009.86 1938.47,1010.96 1940.52,1012.06 1942.57,1013.15 
  1944.62,1014.25 1946.67,1015.35 1948.73,1016.45 1950.78,1017.55 1952.83,1018.65 1954.88,1019.75 1956.93,1020.84 1958.98,1021.94 1961.03,1023.04 1963.08,1024.14 
  1965.14,1025.24 1967.19,1026.34 1969.24,1027.44 1971.29,1028.53 1973.34,1029.63 1975.39,1030.73 1977.44,1031.83 1979.49,1032.93 1981.54,1034.03 1983.6,1035.13 
  1985.65,1036.23 1987.7,1037.32 1989.75,1038.42 1991.8,1039.52 1993.85,1040.62 1995.9,1041.72 1997.95,1042.82 2000.01,1043.92 2002.06,1045.01 2004.11,1046.11 
  2006.16,1047.21 2008.21,1048.31 2010.26,1049.41 2012.31,1050.51 2014.36,1051.61 2016.42,1052.7 2018.47,1053.8 2020.52,1054.9 2022.57,1056 2024.62,1057.1 
  2026.67,1058.2 2028.72,1059.3 2030.77,1060.4 2032.83,1061.49 2034.88,1062.59 2036.93,1063.69 2038.98,1064.79 2041.03,1065.89 2043.08,1066.99 2045.13,1068.09 
  2047.18,1069.18 2049.24,1070.28 2051.29,1071.38 2053.34,1072.48 2055.39,1073.58 2057.44,1074.68 2059.49,1075.78 2061.54,1076.87 2063.59,1077.97 2065.65,1079.07 
  2067.7,1080.17 2069.75,1081.27 2071.8,1082.37 2073.85,1083.47 2075.9,1084.57 2077.95,1085.66 2080,1086.76 2082.06,1087.86 2084.11,1088.96 2086.16,1090.06 
  2088.21,1091.16 2090.26,1092.26 2092.31,1093.35 2094.36,1094.45 2096.41,1095.55 2098.46,1096.65 2100.52,1097.75 2102.57,1098.85 2104.62,1099.95 2106.67,1101.04 
  2108.72,1102.14 2110.77,1103.24 2112.82,1104.34 2114.87,1105.44 2116.93,1106.54 2118.98,1107.64 2121.03,1108.74 2123.08,1109.83 2125.13,1110.93 2127.18,1112.03 
  2129.23,1113.13 2131.28,1114.23 2133.34,1115.33 2135.39,1116.43 2137.44,1117.52 2139.49,1118.62 2141.54,1119.72 2143.59,1120.82 2145.64,1121.92 2147.69,1123.02 
  2149.75,1124.12 2151.8,1125.21 2153.85,1126.31 2155.9,1127.41 2157.95,1128.51 2160,1129.61 2162.05,1130.71 2164.1,1131.81 2166.16,1132.91 2168.21,1134 
  2170.26,1135.1 2172.31,1136.2 2174.36,1137.3 2176.41,1138.4 2178.46,1139.5 2180.51,1140.6 2182.57,1141.69 2184.62,1142.79 2186.67,1143.89 2188.72,1144.99 
  2190.77,1146.09 2192.82,1147.19 2194.87,1148.29 2196.92,1149.38 2198.98,1150.48 2201.03,1151.58 2203.08,1152.68 2205.13,1153.78 2207.18,1154.88 2209.23,1155.98 
  2211.28,1157.08 2213.33,1158.17 2215.39,1159.27 2217.44,1160.37 2219.49,1161.47 2221.54,1162.57 2223.59,1163.67 2225.64,1164.77 2227.69,1165.86 2229.74,1166.96 
  2231.79,1168.06 2233.85,1169.16 2235.9,1170.26 2237.95,1171.36 2240,1172.46 2242.05,1173.55 2244.1,1174.65 2246.15,1175.75 2248.2,1176.85 2250.26,1177.95 
  2252.31,1179.05 2254.36,1180.15 2256.41,1181.25 2258.46,1182.34 2260.51,1183.44 2262.56,1184.54 2264.61,1185.64 2266.67,1186.74 2268.72,1187.84 2270.77,1188.94 
  2272.82,1190.03 2274.87,1191.13 2276.92,1192.23 2278.97,1193.33 2281.02,1194.43 2283.08,1195.53 2285.13,1196.63 2287.18,1197.72 2289.23,1198.82 2291.28,1199.92 
  
  "/>
<path clip-path="url(#clip4500)" d="
M1743.67 312.204 L2280.76 312.204 L2280.76 130.764 L1743.67 130.764  Z
  " fill="#ffffff" fill-rule="evenodd" fill-opacity="1"/>
<polyline clip-path="url(#clip4500)" style="stroke:#000000; stroke-width:4; stroke-opacity:1; fill:none" points="
  1743.67,312.204 2280.76,312.204 2280.76,130.764 1743.67,130.764 1743.67,312.204 
  "/>
<polyline clip-path="url(#clip4500)" style="stroke:#009af9; stroke-width:4; stroke-opacity:1; fill:none" points="
  1767.67,191.244 1911.67,191.244 
  "/>
<g clip-path="url(#clip4500)">
<text style="fill:#000000; fill-opacity:1; font-family:Arial,Helvetica Neue,Helvetica,sans-serif; font-size:48px; text-anchor:start;" transform="rotate(0, 1935.67, 208.744)" x="1935.67" y="208.744">E</text>
</g>
<polyline clip-path="url(#clip4500)" style="stroke:#e26f46; stroke-width:4; stroke-opacity:1; fill:none" points="
  1767.67,251.724 1911.67,251.724 
  "/>
<g clip-path="url(#clip4500)">
<text style="fill:#000000; fill-opacity:1; font-family:Arial,Helvetica Neue,Helvetica,sans-serif; font-size:48px; text-anchor:start;" transform="rotate(0, 1935.67, 269.224)" x="1935.67" y="269.224">-0.1533t.-5.5</text>
</g>
</svg>
