<?xml version="1.0" encoding="utf-8"?>
<svg xmlns="http://www.w3.org/2000/svg" xmlns:xlink="http://www.w3.org/1999/xlink" width="600" height="400" viewBox="0 0 2400 1600">
<defs>
  <clipPath id="clip500">
    <rect x="0" y="0" width="2400" height="1600"/>
  </clipPath>
</defs>
<path clip-path="url(#clip500)" d="
M0 1600 L2400 1600 L2400 0 L0 0  Z
  " fill="#ffffff" fill-rule="evenodd" fill-opacity="1"/>
<defs>
  <clipPath id="clip501">
    <rect x="480" y="0" width="1681" height="1600"/>
  </clipPath>
</defs>
<path clip-path="url(#clip500)" d="
M86.9921 1521.01 L2352.76 1521.01 L2352.76 47.2441 L86.9921 47.2441  Z
  " fill="#ffffff" fill-rule="evenodd" fill-opacity="1"/>
<defs>
  <clipPath id="clip502">
    <rect x="86" y="47" width="2267" height="1475"/>
  </clipPath>
</defs>
<polyline clip-path="url(#clip502)" style="stroke:#000000; stroke-width:2; stroke-opacity:0.1; fill:none" points="
  151.118,1521.01 151.118,47.2441 
  "/>
<polyline clip-path="url(#clip502)" style="stroke:#000000; stroke-width:2; stroke-opacity:0.1; fill:none" points="
  491.313,1521.01 491.313,47.2441 
  "/>
<polyline clip-path="url(#clip502)" style="stroke:#000000; stroke-width:2; stroke-opacity:0.1; fill:none" points="
  831.509,1521.01 831.509,47.2441 
  "/>
<polyline clip-path="url(#clip502)" style="stroke:#000000; stroke-width:2; stroke-opacity:0.1; fill:none" points="
  1171.7,1521.01 1171.7,47.2441 
  "/>
<polyline clip-path="url(#clip502)" style="stroke:#000000; stroke-width:2; stroke-opacity:0.1; fill:none" points="
  1511.9,1521.01 1511.9,47.2441 
  "/>
<polyline clip-path="url(#clip502)" style="stroke:#000000; stroke-width:2; stroke-opacity:0.1; fill:none" points="
  1852.1,1521.01 1852.1,47.2441 
  "/>
<polyline clip-path="url(#clip502)" style="stroke:#000000; stroke-width:2; stroke-opacity:0.1; fill:none" points="
  2192.29,1521.01 2192.29,47.2441 
  "/>
<polyline clip-path="url(#clip500)" style="stroke:#000000; stroke-width:4; stroke-opacity:1; fill:none" points="
  86.9921,1521.01 2352.76,1521.01 
  "/>
<polyline clip-path="url(#clip500)" style="stroke:#000000; stroke-width:4; stroke-opacity:1; fill:none" points="
  151.118,1521.01 151.118,1503.32 
  "/>
<polyline clip-path="url(#clip500)" style="stroke:#000000; stroke-width:4; stroke-opacity:1; fill:none" points="
  491.313,1521.01 491.313,1503.32 
  "/>
<polyline clip-path="url(#clip500)" style="stroke:#000000; stroke-width:4; stroke-opacity:1; fill:none" points="
  831.509,1521.01 831.509,1503.32 
  "/>
<polyline clip-path="url(#clip500)" style="stroke:#000000; stroke-width:4; stroke-opacity:1; fill:none" points="
  1171.7,1521.01 1171.7,1503.32 
  "/>
<polyline clip-path="url(#clip500)" style="stroke:#000000; stroke-width:4; stroke-opacity:1; fill:none" points="
  1511.9,1521.01 1511.9,1503.32 
  "/>
<polyline clip-path="url(#clip500)" style="stroke:#000000; stroke-width:4; stroke-opacity:1; fill:none" points="
  1852.1,1521.01 1852.1,1503.32 
  "/>
<polyline clip-path="url(#clip500)" style="stroke:#000000; stroke-width:4; stroke-opacity:1; fill:none" points="
  2192.29,1521.01 2192.29,1503.32 
  "/>
<path clip-path="url(#clip500)" d="M 0 0 M151.118 1550.2 Q147.506 1550.2 145.678 1553.76 Q143.872 1557.31 143.872 1564.43 Q143.872 1571.54 145.678 1575.11 Q147.506 1578.65 151.118 1578.65 Q154.752 1578.65 156.557 1575.11 Q158.386 1571.54 158.386 1564.43 Q158.386 1557.31 156.557 1553.76 Q154.752 1550.2 151.118 1550.2 M151.118 1546.49 Q156.928 1546.49 159.983 1551.1 Q163.062 1555.68 163.062 1564.43 Q163.062 1573.16 159.983 1577.77 Q156.928 1582.35 151.118 1582.35 Q145.307 1582.35 142.229 1577.77 Q139.173 1573.16 139.173 1564.43 Q139.173 1555.68 142.229 1551.1 Q145.307 1546.49 151.118 1546.49 Z" fill="#000000" fill-rule="evenodd" fill-opacity="1" /><path clip-path="url(#clip500)" d="M 0 0 M485.966 1577.74 L502.285 1577.74 L502.285 1581.68 L480.341 1581.68 L480.341 1577.74 Q483.003 1574.99 487.586 1570.36 Q492.193 1565.71 493.373 1564.37 Q495.619 1561.84 496.498 1560.11 Q497.401 1558.35 497.401 1556.66 Q497.401 1553.9 495.457 1552.17 Q493.535 1550.43 490.434 1550.43 Q488.235 1550.43 485.781 1551.19 Q483.35 1551.96 480.573 1553.51 L480.573 1548.79 Q483.397 1547.65 485.85 1547.07 Q488.304 1546.49 490.341 1546.49 Q495.711 1546.49 498.906 1549.18 Q502.1 1551.87 502.1 1556.36 Q502.1 1558.49 501.29 1560.41 Q500.503 1562.3 498.397 1564.9 Q497.818 1565.57 494.716 1568.79 Q491.614 1571.98 485.966 1577.74 Z" fill="#000000" fill-rule="evenodd" fill-opacity="1" /><path clip-path="url(#clip500)" d="M 0 0 M834.518 1551.19 L822.713 1569.64 L834.518 1569.64 L834.518 1551.19 M833.291 1547.12 L839.171 1547.12 L839.171 1569.64 L844.102 1569.64 L844.102 1573.53 L839.171 1573.53 L839.171 1581.68 L834.518 1581.68 L834.518 1573.53 L818.917 1573.53 L818.917 1569.02 L833.291 1547.12 Z" fill="#000000" fill-rule="evenodd" fill-opacity="1" /><path clip-path="url(#clip500)" d="M 0 0 M1172.11 1562.54 Q1168.96 1562.54 1167.11 1564.69 Q1165.28 1566.84 1165.28 1570.59 Q1165.28 1574.32 1167.11 1576.49 Q1168.96 1578.65 1172.11 1578.65 Q1175.26 1578.65 1177.09 1576.49 Q1178.94 1574.32 1178.94 1570.59 Q1178.94 1566.84 1177.09 1564.69 Q1175.26 1562.54 1172.11 1562.54 M1181.39 1547.88 L1181.39 1552.14 Q1179.63 1551.31 1177.83 1550.87 Q1176.05 1550.43 1174.29 1550.43 Q1169.66 1550.43 1167.2 1553.56 Q1164.77 1556.68 1164.42 1563 Q1165.79 1560.99 1167.85 1559.92 Q1169.91 1558.83 1172.39 1558.83 Q1177.6 1558.83 1180.61 1562 Q1183.64 1565.15 1183.64 1570.59 Q1183.64 1575.92 1180.49 1579.13 Q1177.34 1582.35 1172.11 1582.35 Q1166.11 1582.35 1162.94 1577.77 Q1159.77 1573.16 1159.77 1564.43 Q1159.77 1556.24 1163.66 1551.38 Q1167.55 1546.49 1174.1 1546.49 Q1175.86 1546.49 1177.64 1546.84 Q1179.45 1547.19 1181.39 1547.88 Z" fill="#000000" fill-rule="evenodd" fill-opacity="1" /><path clip-path="url(#clip500)" d="M 0 0 M1511.9 1565.27 Q1508.57 1565.27 1506.65 1567.05 Q1504.75 1568.83 1504.75 1571.96 Q1504.75 1575.08 1506.65 1576.87 Q1508.57 1578.65 1511.9 1578.65 Q1515.23 1578.65 1517.16 1576.87 Q1519.08 1575.06 1519.08 1571.96 Q1519.08 1568.83 1517.16 1567.05 Q1515.26 1565.27 1511.9 1565.27 M1507.22 1563.28 Q1504.22 1562.54 1502.53 1560.48 Q1500.86 1558.42 1500.86 1555.45 Q1500.86 1551.31 1503.8 1548.9 Q1506.76 1546.49 1511.9 1546.49 Q1517.06 1546.49 1520 1548.9 Q1522.94 1551.31 1522.94 1555.45 Q1522.94 1558.42 1521.25 1560.48 Q1519.59 1562.54 1516.6 1563.28 Q1519.98 1564.06 1521.85 1566.36 Q1523.75 1568.65 1523.75 1571.96 Q1523.75 1576.98 1520.67 1579.67 Q1517.62 1582.35 1511.9 1582.35 Q1506.18 1582.35 1503.1 1579.67 Q1500.05 1576.98 1500.05 1571.96 Q1500.05 1568.65 1501.95 1566.36 Q1503.85 1564.06 1507.22 1563.28 M1505.51 1555.89 Q1505.51 1558.58 1507.18 1560.08 Q1508.87 1561.59 1511.9 1561.59 Q1514.91 1561.59 1516.6 1560.08 Q1518.31 1558.58 1518.31 1555.89 Q1518.31 1553.21 1516.6 1551.7 Q1514.91 1550.2 1511.9 1550.2 Q1508.87 1550.2 1507.18 1551.7 Q1505.51 1553.21 1505.51 1555.89 Z" fill="#000000" fill-rule="evenodd" fill-opacity="1" /><path clip-path="url(#clip500)" d="M 0 0 M1828.97 1577.74 L1836.61 1577.74 L1836.61 1551.38 L1828.3 1553.05 L1828.3 1548.79 L1836.56 1547.12 L1841.24 1547.12 L1841.24 1577.74 L1848.88 1577.74 L1848.88 1581.68 L1828.97 1581.68 L1828.97 1577.74 Z" fill="#000000" fill-rule="evenodd" fill-opacity="1" /><path clip-path="url(#clip500)" d="M 0 0 M1863.95 1550.2 Q1860.34 1550.2 1858.51 1553.76 Q1856.7 1557.31 1856.7 1564.43 Q1856.7 1571.54 1858.51 1575.11 Q1860.34 1578.65 1863.95 1578.65 Q1867.58 1578.65 1869.39 1575.11 Q1871.22 1571.54 1871.22 1564.43 Q1871.22 1557.31 1869.39 1553.76 Q1867.58 1550.2 1863.95 1550.2 M1863.95 1546.49 Q1869.76 1546.49 1872.81 1551.1 Q1875.89 1555.68 1875.89 1564.43 Q1875.89 1573.16 1872.81 1577.77 Q1869.76 1582.35 1863.95 1582.35 Q1858.14 1582.35 1855.06 1577.77 Q1852 1573.16 1852 1564.43 Q1852 1555.68 1855.06 1551.1 Q1858.14 1546.49 1863.95 1546.49 Z" fill="#000000" fill-rule="evenodd" fill-opacity="1" /><path clip-path="url(#clip500)" d="M 0 0 M2169.97 1577.74 L2177.6 1577.74 L2177.6 1551.38 L2169.29 1553.05 L2169.29 1548.79 L2177.56 1547.12 L2182.23 1547.12 L2182.23 1577.74 L2189.87 1577.74 L2189.87 1581.68 L2169.97 1581.68 L2169.97 1577.74 Z" fill="#000000" fill-rule="evenodd" fill-opacity="1" /><path clip-path="url(#clip500)" d="M 0 0 M2198.97 1577.74 L2215.29 1577.74 L2215.29 1581.68 L2193.35 1581.68 L2193.35 1577.74 Q2196.01 1574.99 2200.59 1570.36 Q2205.2 1565.71 2206.38 1564.37 Q2208.62 1561.84 2209.5 1560.11 Q2210.41 1558.35 2210.41 1556.66 Q2210.41 1553.9 2208.46 1552.17 Q2206.54 1550.43 2203.44 1550.43 Q2201.24 1550.43 2198.79 1551.19 Q2196.35 1551.96 2193.58 1553.51 L2193.58 1548.79 Q2196.4 1547.65 2198.85 1547.07 Q2201.31 1546.49 2203.35 1546.49 Q2208.72 1546.49 2211.91 1549.18 Q2215.1 1551.87 2215.1 1556.36 Q2215.1 1558.49 2214.29 1560.41 Q2213.51 1562.3 2211.4 1564.9 Q2210.82 1565.57 2207.72 1568.79 Q2204.62 1571.98 2198.97 1577.74 Z" fill="#000000" fill-rule="evenodd" fill-opacity="1" /><polyline clip-path="url(#clip502)" style="stroke:#000000; stroke-width:2; stroke-opacity:0.1; fill:none" points="
  86.9921,1479.3 2352.76,1479.3 
  "/>
<polyline clip-path="url(#clip502)" style="stroke:#000000; stroke-width:2; stroke-opacity:0.1; fill:none" points="
  86.9921,1131.71 2352.76,1131.71 
  "/>
<polyline clip-path="url(#clip502)" style="stroke:#000000; stroke-width:2; stroke-opacity:0.1; fill:none" points="
  86.9921,784.126 2352.76,784.126 
  "/>
<polyline clip-path="url(#clip502)" style="stroke:#000000; stroke-width:2; stroke-opacity:0.1; fill:none" points="
  86.9921,436.54 2352.76,436.54 
  "/>
<polyline clip-path="url(#clip502)" style="stroke:#000000; stroke-width:2; stroke-opacity:0.1; fill:none" points="
  86.9921,88.9544 2352.76,88.9544 
  "/>
<polyline clip-path="url(#clip500)" style="stroke:#000000; stroke-width:4; stroke-opacity:1; fill:none" points="
  86.9921,1521.01 86.9921,47.2441 
  "/>
<polyline clip-path="url(#clip500)" style="stroke:#000000; stroke-width:4; stroke-opacity:1; fill:none" points="
  86.9921,1479.3 114.181,1479.3 
  "/>
<polyline clip-path="url(#clip500)" style="stroke:#000000; stroke-width:4; stroke-opacity:1; fill:none" points="
  86.9921,1131.71 114.181,1131.71 
  "/>
<polyline clip-path="url(#clip500)" style="stroke:#000000; stroke-width:4; stroke-opacity:1; fill:none" points="
  86.9921,784.126 114.181,784.126 
  "/>
<polyline clip-path="url(#clip500)" style="stroke:#000000; stroke-width:4; stroke-opacity:1; fill:none" points="
  86.9921,436.54 114.181,436.54 
  "/>
<polyline clip-path="url(#clip500)" style="stroke:#000000; stroke-width:4; stroke-opacity:1; fill:none" points="
  86.9921,88.9544 114.181,88.9544 
  "/>
<path clip-path="url(#clip500)" d="M 0 0 M-24.9334 1465.1 Q-28.5445 1465.1 -30.3732 1468.66 Q-32.1787 1472.2 -32.1787 1479.33 Q-32.1787 1486.44 -30.3732 1490 Q-28.5445 1493.55 -24.9334 1493.55 Q-21.2992 1493.55 -19.4936 1490 Q-17.6649 1486.44 -17.6649 1479.33 Q-17.6649 1472.2 -19.4936 1468.66 Q-21.2992 1465.1 -24.9334 1465.1 M-24.9334 1461.39 Q-19.1232 1461.39 -16.0677 1466 Q-12.989 1470.58 -12.989 1479.33 Q-12.989 1488.06 -16.0677 1492.67 Q-19.1232 1497.25 -24.9334 1497.25 Q-30.7435 1497.25 -33.8222 1492.67 Q-36.8778 1488.06 -36.8778 1479.33 Q-36.8778 1470.58 -33.8222 1466 Q-30.7435 1461.39 -24.9334 1461.39 Z" fill="#000000" fill-rule="evenodd" fill-opacity="1" /><path clip-path="url(#clip500)" d="M 0 0 M-7.9196 1490.7 L-3.03536 1490.7 L-3.03536 1496.58 L-7.9196 1496.58 L-7.9196 1490.7 Z" fill="#000000" fill-rule="evenodd" fill-opacity="1" /><path clip-path="url(#clip500)" d="M 0 0 M12.034 1465.1 Q8.42291 1465.1 6.59422 1468.66 Q4.78867 1472.2 4.78867 1479.33 Q4.78867 1486.44 6.59422 1490 Q8.42291 1493.55 12.034 1493.55 Q15.6682 1493.55 17.4738 1490 Q19.3025 1486.44 19.3025 1479.33 Q19.3025 1472.2 17.4738 1468.66 Q15.6682 1465.1 12.034 1465.1 M12.034 1461.39 Q17.8442 1461.39 20.8997 1466 Q23.9784 1470.58 23.9784 1479.33 Q23.9784 1488.06 20.8997 1492.67 Q17.8442 1497.25 12.034 1497.25 Q6.22385 1497.25 3.14516 1492.67 Q0.089621 1488.06 0.089621 1479.33 Q0.089621 1470.58 3.14516 1466 Q6.22385 1461.39 12.034 1461.39 Z" fill="#000000" fill-rule="evenodd" fill-opacity="1" /><path clip-path="url(#clip500)" d="M 0 0 M39.0477 1465.1 Q35.4367 1465.1 33.608 1468.66 Q31.8024 1472.2 31.8024 1479.33 Q31.8024 1486.44 33.608 1490 Q35.4367 1493.55 39.0477 1493.55 Q42.682 1493.55 44.4875 1490 Q46.3162 1486.44 46.3162 1479.33 Q46.3162 1472.2 44.4875 1468.66 Q42.682 1465.1 39.0477 1465.1 M39.0477 1461.39 Q44.8579 1461.39 47.9134 1466 Q50.9921 1470.58 50.9921 1479.33 Q50.9921 1488.06 47.9134 1492.67 Q44.8579 1497.25 39.0477 1497.25 Q33.2376 1497.25 30.1589 1492.67 Q27.1034 1488.06 27.1034 1479.33 Q27.1034 1470.58 30.1589 1466 Q33.2376 1461.39 39.0477 1461.39 Z" fill="#000000" fill-rule="evenodd" fill-opacity="1" /><path clip-path="url(#clip500)" d="M 0 0 M-22.3408 1117.51 Q-25.9519 1117.51 -27.7806 1121.08 Q-29.5861 1124.62 -29.5861 1131.75 Q-29.5861 1138.85 -27.7806 1142.42 Q-25.9519 1145.96 -22.3408 1145.96 Q-18.7066 1145.96 -16.901 1142.42 Q-15.0723 1138.85 -15.0723 1131.75 Q-15.0723 1124.62 -16.901 1121.08 Q-18.7066 1117.51 -22.3408 1117.51 M-22.3408 1113.81 Q-16.5307 1113.81 -13.4751 1118.41 Q-10.3964 1123 -10.3964 1131.75 Q-10.3964 1140.47 -13.4751 1145.08 Q-16.5307 1149.66 -22.3408 1149.66 Q-28.151 1149.66 -31.2297 1145.08 Q-34.2852 1140.47 -34.2852 1131.75 Q-34.2852 1123 -31.2297 1118.41 Q-28.151 1113.81 -22.3408 1113.81 Z" fill="#000000" fill-rule="evenodd" fill-opacity="1" /><path clip-path="url(#clip500)" d="M 0 0 M-5.32702 1143.11 L-0.442784 1143.11 L-0.442784 1148.99 L-5.32702 1148.99 L-5.32702 1143.11 Z" fill="#000000" fill-rule="evenodd" fill-opacity="1" /><path clip-path="url(#clip500)" d="M 0 0 M8.65439 1145.06 L24.9737 1145.06 L24.9737 1148.99 L3.02942 1148.99 L3.02942 1145.06 Q5.69144 1142.3 10.2748 1137.67 Q14.8812 1133.02 16.0618 1131.68 Q18.3071 1129.15 19.1867 1127.42 Q20.0895 1125.66 20.0895 1123.97 Q20.0895 1121.21 18.1451 1119.48 Q16.2238 1117.74 13.122 1117.74 Q10.9229 1117.74 8.46921 1118.51 Q6.03866 1119.27 3.2609 1120.82 L3.2609 1116.1 Q6.08496 1114.96 8.53865 1114.39 Q10.9923 1113.81 13.0294 1113.81 Q18.3997 1113.81 21.5941 1116.49 Q24.7886 1119.18 24.7886 1123.67 Q24.7886 1125.8 23.9784 1127.72 Q23.1913 1129.62 21.0849 1132.21 Q20.5062 1132.88 17.4043 1136.1 Q14.3025 1139.29 8.65439 1145.06 Z" fill="#000000" fill-rule="evenodd" fill-opacity="1" /><path clip-path="url(#clip500)" d="M 0 0 M30.0895 1114.43 L48.4458 1114.43 L48.4458 1118.37 L34.3718 1118.37 L34.3718 1126.84 Q35.3904 1126.49 36.4089 1126.33 Q37.4274 1126.14 38.4459 1126.14 Q44.2329 1126.14 47.6125 1129.32 Q50.9921 1132.49 50.9921 1137.9 Q50.9921 1143.48 47.5199 1146.58 Q44.0477 1149.66 37.7283 1149.66 Q35.5524 1149.66 33.2839 1149.29 Q31.0385 1148.92 28.6311 1148.18 L28.6311 1143.48 Q30.7145 1144.62 32.9367 1145.17 Q35.1589 1145.73 37.6357 1145.73 Q41.6403 1145.73 43.9783 1143.62 Q46.3162 1141.51 46.3162 1137.9 Q46.3162 1134.29 43.9783 1132.19 Q41.6403 1130.08 37.6357 1130.08 Q35.7607 1130.08 33.8857 1130.5 Q32.0339 1130.91 30.0895 1131.79 L30.0895 1114.43 Z" fill="#000000" fill-rule="evenodd" fill-opacity="1" /><path clip-path="url(#clip500)" d="M 0 0 M-23.938 769.925 Q-27.5491 769.925 -29.3778 773.489 Q-31.1834 777.031 -31.1834 784.161 Q-31.1834 791.267 -29.3778 794.832 Q-27.5491 798.374 -23.938 798.374 Q-20.3038 798.374 -18.4982 794.832 Q-16.6695 791.267 -16.6695 784.161 Q-16.6695 777.031 -18.4982 773.489 Q-20.3038 769.925 -23.938 769.925 M-23.938 766.221 Q-18.1279 766.221 -15.0723 770.827 Q-11.9936 775.411 -11.9936 784.161 Q-11.9936 792.888 -15.0723 797.494 Q-18.1279 802.077 -23.938 802.077 Q-29.7482 802.077 -32.8269 797.494 Q-35.8824 792.888 -35.8824 784.161 Q-35.8824 775.411 -32.8269 770.827 Q-29.7482 766.221 -23.938 766.221 Z" fill="#000000" fill-rule="evenodd" fill-opacity="1" /><path clip-path="url(#clip500)" d="M 0 0 M-6.92423 795.526 L-2.04 795.526 L-2.04 801.406 L-6.92423 801.406 L-6.92423 795.526 Z" fill="#000000" fill-rule="evenodd" fill-opacity="1" /><path clip-path="url(#clip500)" d="M 0 0 M3.07572 766.846 L21.4321 766.846 L21.4321 770.781 L7.3581 770.781 L7.3581 779.253 Q8.37661 778.906 9.39513 778.744 Q10.4136 778.559 11.4322 778.559 Q17.2192 778.559 20.5988 781.73 Q23.9784 784.901 23.9784 790.318 Q23.9784 795.897 20.5062 798.999 Q17.034 802.077 10.7146 802.077 Q8.53865 802.077 6.27014 801.707 Q4.02479 801.337 1.61739 800.596 L1.61739 795.897 Q3.70071 797.031 5.92292 797.587 Q8.14513 798.142 10.622 798.142 Q14.6266 798.142 16.9645 796.036 Q19.3025 793.929 19.3025 790.318 Q19.3025 786.707 16.9645 784.601 Q14.6266 782.494 10.622 782.494 Q8.74698 782.494 6.87199 782.911 Q5.02015 783.327 3.07572 784.207 L3.07572 766.846 Z" fill="#000000" fill-rule="evenodd" fill-opacity="1" /><path clip-path="url(#clip500)" d="M 0 0 M39.0477 769.925 Q35.4367 769.925 33.608 773.489 Q31.8024 777.031 31.8024 784.161 Q31.8024 791.267 33.608 794.832 Q35.4367 798.374 39.0477 798.374 Q42.682 798.374 44.4875 794.832 Q46.3162 791.267 46.3162 784.161 Q46.3162 777.031 44.4875 773.489 Q42.682 769.925 39.0477 769.925 M39.0477 766.221 Q44.8579 766.221 47.9134 770.827 Q50.9921 775.411 50.9921 784.161 Q50.9921 792.888 47.9134 797.494 Q44.8579 802.077 39.0477 802.077 Q33.2376 802.077 30.1589 797.494 Q27.1034 792.888 27.1034 784.161 Q27.1034 775.411 30.1589 770.827 Q33.2376 766.221 39.0477 766.221 Z" fill="#000000" fill-rule="evenodd" fill-opacity="1" /><path clip-path="url(#clip500)" d="M 0 0 M-23.0353 422.339 Q-26.6463 422.339 -28.475 425.904 Q-30.2806 429.445 -30.2806 436.575 Q-30.2806 443.681 -28.475 447.246 Q-26.6463 450.788 -23.0353 450.788 Q-19.401 450.788 -17.5955 447.246 Q-15.7668 443.681 -15.7668 436.575 Q-15.7668 429.445 -17.5955 425.904 Q-19.401 422.339 -23.0353 422.339 M-23.0353 418.635 Q-17.2251 418.635 -14.1696 423.242 Q-11.0909 427.825 -11.0909 436.575 Q-11.0909 445.302 -14.1696 449.908 Q-17.2251 454.491 -23.0353 454.491 Q-28.8454 454.491 -31.9241 449.908 Q-34.9796 445.302 -34.9796 436.575 Q-34.9796 427.825 -31.9241 423.242 Q-28.8454 418.635 -23.0353 418.635 Z" fill="#000000" fill-rule="evenodd" fill-opacity="1" /><path clip-path="url(#clip500)" d="M 0 0 M-6.02146 447.941 L-1.13722 447.941 L-1.13722 453.82 L-6.02146 453.82 L-6.02146 447.941 Z" fill="#000000" fill-rule="evenodd" fill-opacity="1" /><path clip-path="url(#clip500)" d="M 0 0 M2.75164 419.26 L24.9737 419.26 L24.9737 421.251 L12.4275 453.82 L7.54328 453.82 L19.3488 423.195 L2.75164 423.195 L2.75164 419.26 Z" fill="#000000" fill-rule="evenodd" fill-opacity="1" /><path clip-path="url(#clip500)" d="M 0 0 M30.0895 419.26 L48.4458 419.26 L48.4458 423.195 L34.3718 423.195 L34.3718 431.668 Q35.3904 431.32 36.4089 431.158 Q37.4274 430.973 38.4459 430.973 Q44.2329 430.973 47.6125 434.144 Q50.9921 437.316 50.9921 442.732 Q50.9921 448.311 47.5199 451.413 Q44.0477 454.491 37.7283 454.491 Q35.5524 454.491 33.2839 454.121 Q31.0385 453.751 28.6311 453.01 L28.6311 448.311 Q30.7145 449.445 32.9367 450.001 Q35.1589 450.556 37.6357 450.556 Q41.6403 450.556 43.9783 448.45 Q46.3162 446.343 46.3162 442.732 Q46.3162 439.121 43.9783 437.015 Q41.6403 434.908 37.6357 434.908 Q35.7607 434.908 33.8857 435.325 Q32.0339 435.742 30.0895 436.621 L30.0895 419.26 Z" fill="#000000" fill-rule="evenodd" fill-opacity="1" /><path clip-path="url(#clip500)" d="M 0 0 M-32.8963 102.299 L-25.2575 102.299 L-25.2575 75.9336 L-33.5676 77.6003 L-33.5676 73.341 L-25.3038 71.6744 L-20.6279 71.6744 L-20.6279 102.299 L-12.989 102.299 L-12.989 106.234 L-32.8963 106.234 L-32.8963 102.299 Z" fill="#000000" fill-rule="evenodd" fill-opacity="1" /><path clip-path="url(#clip500)" d="M 0 0 M-7.9196 100.355 L-3.03536 100.355 L-3.03536 106.234 L-7.9196 106.234 L-7.9196 100.355 Z" fill="#000000" fill-rule="evenodd" fill-opacity="1" /><path clip-path="url(#clip500)" d="M 0 0 M12.034 74.7531 Q8.42291 74.7531 6.59422 78.3179 Q4.78867 81.8595 4.78867 88.9891 Q4.78867 96.0956 6.59422 99.6604 Q8.42291 103.202 12.034 103.202 Q15.6682 103.202 17.4738 99.6604 Q19.3025 96.0956 19.3025 88.9891 Q19.3025 81.8595 17.4738 78.3179 Q15.6682 74.7531 12.034 74.7531 M12.034 71.0494 Q17.8442 71.0494 20.8997 75.6559 Q23.9784 80.2392 23.9784 88.9891 Q23.9784 97.7159 20.8997 102.322 Q17.8442 106.906 12.034 106.906 Q6.22385 106.906 3.14516 102.322 Q0.089621 97.7159 0.089621 88.9891 Q0.089621 80.2392 3.14516 75.6559 Q6.22385 71.0494 12.034 71.0494 Z" fill="#000000" fill-rule="evenodd" fill-opacity="1" /><path clip-path="url(#clip500)" d="M 0 0 M39.0477 74.7531 Q35.4367 74.7531 33.608 78.3179 Q31.8024 81.8595 31.8024 88.9891 Q31.8024 96.0956 33.608 99.6604 Q35.4367 103.202 39.0477 103.202 Q42.682 103.202 44.4875 99.6604 Q46.3162 96.0956 46.3162 88.9891 Q46.3162 81.8595 44.4875 78.3179 Q42.682 74.7531 39.0477 74.7531 M39.0477 71.0494 Q44.8579 71.0494 47.9134 75.6559 Q50.9921 80.2392 50.9921 88.9891 Q50.9921 97.7159 47.9134 102.322 Q44.8579 106.906 39.0477 106.906 Q33.2376 106.906 30.1589 102.322 Q27.1034 97.7159 27.1034 88.9891 Q27.1034 80.2392 30.1589 75.6559 Q33.2376 71.0494 39.0477 71.0494 Z" fill="#000000" fill-rule="evenodd" fill-opacity="1" /><polyline clip-path="url(#clip502)" style="stroke:#009af9; stroke-width:4; stroke-opacity:1; fill:none" points="
  151.118,1479.3 220.07,1479.3 289.022,1479.3 357.974,1479.3 426.926,1479.3 495.878,1479.3 564.83,1479.3 633.782,1479.3 702.734,1479.3 771.686,1479.3 
  840.638,1479.3 909.59,1479.3 978.542,1479.3 1047.49,1479.3 1116.45,1479.3 1185.4,1479.3 1254.35,1479.3 1323.3,1479.3 1392.25,1479.3 1461.21,1479.3 
  1530.16,1479.3 1599.11,1479.3 1668.06,1479.3 1737.01,1479.3 1805.97,1479.3 1874.92,1479.3 1943.87,1479.3 2012.82,1479.3 2081.77,1479.3 2150.73,1479.3 
  2219.68,1479.3 2288.63,1479.3 
  "/>
<path clip-path="url(#clip500)" d="
M1913.97 217.33 L2277.23 217.33 L2277.23 96.3696 L1913.97 96.3696  Z
  " fill="#ffffff" fill-rule="evenodd" fill-opacity="1"/>
<polyline clip-path="url(#clip500)" style="stroke:#000000; stroke-width:4; stroke-opacity:1; fill:none" points="
  1913.97,217.33 2277.23,217.33 2277.23,96.3696 1913.97,96.3696 1913.97,217.33 
  "/>
<polyline clip-path="url(#clip500)" style="stroke:#009af9; stroke-width:4; stroke-opacity:1; fill:none" points="
  1939.15,156.85 2090.2,156.85 
  "/>
<path clip-path="url(#clip500)" d="M 0 0 M2139.4 160.102 L2139.4 162.185 L2119.82 162.185 Q2120.1 166.583 2122.46 168.898 Q2124.84 171.19 2129.08 171.19 Q2131.53 171.19 2133.83 170.588 Q2136.14 169.986 2138.41 168.782 L2138.41 172.81 Q2136.12 173.782 2133.71 174.292 Q2131.3 174.801 2128.83 174.801 Q2122.62 174.801 2118.99 171.19 Q2115.38 167.579 2115.38 161.421 Q2115.38 155.056 2118.8 151.329 Q2122.25 147.579 2128.08 147.579 Q2133.32 147.579 2136.35 150.958 Q2139.4 154.315 2139.4 160.102 M2135.14 158.852 Q2135.1 155.357 2133.18 153.273 Q2131.28 151.19 2128.13 151.19 Q2124.57 151.19 2122.41 153.204 Q2120.28 155.218 2119.96 158.875 L2135.14 158.852 Z" fill="#000000" fill-rule="evenodd" fill-opacity="1" /><path clip-path="url(#clip500)" d="M 0 0 M2157 138.111 L2157 141.653 L2152.92 141.653 Q2150.63 141.653 2149.73 142.579 Q2148.85 143.505 2148.85 145.912 L2148.85 148.204 L2155.86 148.204 L2155.86 151.514 L2148.85 151.514 L2148.85 174.13 L2144.57 174.13 L2144.57 151.514 L2140.49 151.514 L2140.49 148.204 L2144.57 148.204 L2144.57 146.398 Q2144.57 142.07 2146.58 140.102 Q2148.59 138.111 2152.97 138.111 L2157 138.111 Z" fill="#000000" fill-rule="evenodd" fill-opacity="1" /><path clip-path="url(#clip500)" d="M 0 0 M2161.46 148.204 L2165.72 148.204 L2165.72 174.13 L2161.46 174.13 L2161.46 148.204 M2161.46 138.111 L2165.72 138.111 L2165.72 143.505 L2161.46 143.505 L2161.46 138.111 Z" fill="#000000" fill-rule="evenodd" fill-opacity="1" /><path clip-path="url(#clip500)" d="M 0 0 M2192.37 160.102 L2192.37 162.185 L2172.78 162.185 Q2173.06 166.583 2175.42 168.898 Q2177.81 171.19 2182.04 171.19 Q2184.5 171.19 2186.79 170.588 Q2189.1 169.986 2191.37 168.782 L2191.37 172.81 Q2189.08 173.782 2186.67 174.292 Q2184.26 174.801 2181.79 174.801 Q2175.58 174.801 2171.95 171.19 Q2168.34 167.579 2168.34 161.421 Q2168.34 155.056 2171.76 151.329 Q2175.21 147.579 2181.05 147.579 Q2186.28 147.579 2189.31 150.958 Q2192.37 154.315 2192.37 160.102 M2188.11 158.852 Q2188.06 155.357 2186.14 153.273 Q2184.24 151.19 2181.09 151.19 Q2177.53 151.19 2175.38 153.204 Q2173.25 155.218 2172.92 158.875 L2188.11 158.852 Z" fill="#000000" fill-rule="evenodd" fill-opacity="1" /><path clip-path="url(#clip500)" d="M 0 0 M2196.83 138.111 L2201.09 138.111 L2201.09 174.13 L2196.83 174.13 L2196.83 138.111 Z" fill="#000000" fill-rule="evenodd" fill-opacity="1" /><path clip-path="url(#clip500)" d="M 0 0 M2222.62 152.139 L2222.62 138.111 L2226.88 138.111 L2226.88 174.13 L2222.62 174.13 L2222.62 170.241 Q2221.28 172.555 2219.22 173.69 Q2217.18 174.801 2214.31 174.801 Q2209.61 174.801 2206.65 171.051 Q2203.71 167.301 2203.71 161.19 Q2203.71 155.079 2206.65 151.329 Q2209.61 147.579 2214.31 147.579 Q2217.18 147.579 2219.22 148.713 Q2221.28 149.824 2222.62 152.139 M2208.11 161.19 Q2208.11 165.889 2210.03 168.574 Q2211.97 171.236 2215.35 171.236 Q2218.73 171.236 2220.68 168.574 Q2222.62 165.889 2222.62 161.19 Q2222.62 156.491 2220.68 153.829 Q2218.73 151.144 2215.35 151.144 Q2211.97 151.144 2210.03 153.829 Q2208.11 156.491 2208.11 161.19 Z" fill="#000000" fill-rule="evenodd" fill-opacity="1" /></svg>
