<?xml version="1.0" encoding="utf-8"?>
<svg xmlns="http://www.w3.org/2000/svg" xmlns:xlink="http://www.w3.org/1999/xlink" width="600" height="400" viewBox="0 0 2400 1600">
<defs>
  <clipPath id="clip000">
    <rect x="0" y="0" width="2400" height="1600"/>
  </clipPath>
</defs>
<path clip-path="url(#clip000)" d="
M0 1600 L2400 1600 L2400 0 L0 0  Z
  " fill="#ffffff" fill-rule="evenodd" fill-opacity="1"/>
<defs>
  <clipPath id="clip001">
    <rect x="480" y="0" width="1681" height="1600"/>
  </clipPath>
</defs>
<path clip-path="url(#clip000)" d="
M86.9921 1521.01 L2352.76 1521.01 L2352.76 47.2441 L86.9921 47.2441  Z
  " fill="#ffffff" fill-rule="evenodd" fill-opacity="1"/>
<defs>
  <clipPath id="clip002">
    <rect x="86" y="47" width="2267" height="1475"/>
  </clipPath>
</defs>
<polyline clip-path="url(#clip002)" style="stroke:#000000; stroke-width:2; stroke-opacity:0.1; fill:none" points="
  151.118,1521.01 151.118,47.2441 
  "/>
<polyline clip-path="url(#clip002)" style="stroke:#000000; stroke-width:2; stroke-opacity:0.1; fill:none" points="
  685.496,1521.01 685.496,47.2441 
  "/>
<polyline clip-path="url(#clip002)" style="stroke:#000000; stroke-width:2; stroke-opacity:0.1; fill:none" points="
  1219.87,1521.01 1219.87,47.2441 
  "/>
<polyline clip-path="url(#clip002)" style="stroke:#000000; stroke-width:2; stroke-opacity:0.1; fill:none" points="
  1754.25,1521.01 1754.25,47.2441 
  "/>
<polyline clip-path="url(#clip002)" style="stroke:#000000; stroke-width:2; stroke-opacity:0.1; fill:none" points="
  2288.63,1521.01 2288.63,47.2441 
  "/>
<polyline clip-path="url(#clip000)" style="stroke:#000000; stroke-width:4; stroke-opacity:1; fill:none" points="
  86.9921,1521.01 2352.76,1521.01 
  "/>
<polyline clip-path="url(#clip000)" style="stroke:#000000; stroke-width:4; stroke-opacity:1; fill:none" points="
  151.118,1521.01 151.118,1503.32 
  "/>
<polyline clip-path="url(#clip000)" style="stroke:#000000; stroke-width:4; stroke-opacity:1; fill:none" points="
  685.496,1521.01 685.496,1503.32 
  "/>
<polyline clip-path="url(#clip000)" style="stroke:#000000; stroke-width:4; stroke-opacity:1; fill:none" points="
  1219.87,1521.01 1219.87,1503.32 
  "/>
<polyline clip-path="url(#clip000)" style="stroke:#000000; stroke-width:4; stroke-opacity:1; fill:none" points="
  1754.25,1521.01 1754.25,1503.32 
  "/>
<polyline clip-path="url(#clip000)" style="stroke:#000000; stroke-width:4; stroke-opacity:1; fill:none" points="
  2288.63,1521.01 2288.63,1503.32 
  "/>
<path clip-path="url(#clip000)" d="M 0 0 M151.118 1550.2 Q147.506 1550.2 145.678 1553.76 Q143.872 1557.31 143.872 1564.43 Q143.872 1571.54 145.678 1575.11 Q147.506 1578.65 151.118 1578.65 Q154.752 1578.65 156.557 1575.11 Q158.386 1571.54 158.386 1564.43 Q158.386 1557.31 156.557 1553.76 Q154.752 1550.2 151.118 1550.2 M151.118 1546.49 Q156.928 1546.49 159.983 1551.1 Q163.062 1555.68 163.062 1564.43 Q163.062 1573.16 159.983 1577.77 Q156.928 1582.35 151.118 1582.35 Q145.307 1582.35 142.229 1577.77 Q139.173 1573.16 139.173 1564.43 Q139.173 1555.68 142.229 1551.1 Q145.307 1546.49 151.118 1546.49 Z" fill="#000000" fill-rule="evenodd" fill-opacity="1" /><path clip-path="url(#clip000)" d="M 0 0 M667.139 1577.74 L683.459 1577.74 L683.459 1581.68 L661.514 1581.68 L661.514 1577.74 Q664.176 1574.99 668.76 1570.36 Q673.366 1565.71 674.547 1564.37 Q676.792 1561.84 677.672 1560.11 Q678.575 1558.35 678.575 1556.66 Q678.575 1553.9 676.63 1552.17 Q674.709 1550.43 671.607 1550.43 Q669.408 1550.43 666.954 1551.19 Q664.524 1551.96 661.746 1553.51 L661.746 1548.79 Q664.57 1547.65 667.024 1547.07 Q669.477 1546.49 671.514 1546.49 Q676.885 1546.49 680.079 1549.18 Q683.274 1551.87 683.274 1556.36 Q683.274 1558.49 682.463 1560.41 Q681.676 1562.3 679.57 1564.9 Q678.991 1565.57 675.889 1568.79 Q672.788 1571.98 667.139 1577.74 Z" fill="#000000" fill-rule="evenodd" fill-opacity="1" /><path clip-path="url(#clip000)" d="M 0 0 M688.574 1547.12 L706.931 1547.12 L706.931 1551.06 L692.857 1551.06 L692.857 1559.53 Q693.875 1559.18 694.894 1559.02 Q695.912 1558.83 696.931 1558.83 Q702.718 1558.83 706.098 1562 Q709.477 1565.18 709.477 1570.59 Q709.477 1576.17 706.005 1579.27 Q702.533 1582.35 696.213 1582.35 Q694.037 1582.35 691.769 1581.98 Q689.524 1581.61 687.116 1580.87 L687.116 1576.17 Q689.199 1577.3 691.422 1577.86 Q693.644 1578.42 696.121 1578.42 Q700.125 1578.42 702.463 1576.31 Q704.801 1574.2 704.801 1570.59 Q704.801 1566.98 702.463 1564.87 Q700.125 1562.77 696.121 1562.77 Q694.246 1562.77 692.371 1563.18 Q690.519 1563.6 688.574 1564.48 L688.574 1547.12 Z" fill="#000000" fill-rule="evenodd" fill-opacity="1" /><path clip-path="url(#clip000)" d="M 0 0 M1196.64 1547.12 L1215 1547.12 L1215 1551.06 L1200.93 1551.06 L1200.93 1559.53 Q1201.95 1559.18 1202.96 1559.02 Q1203.98 1558.83 1205 1558.83 Q1210.79 1558.83 1214.17 1562 Q1217.55 1565.18 1217.55 1570.59 Q1217.55 1576.17 1214.08 1579.27 Q1210.6 1582.35 1204.28 1582.35 Q1202.11 1582.35 1199.84 1581.98 Q1197.59 1581.61 1195.19 1580.87 L1195.19 1576.17 Q1197.27 1577.3 1199.49 1577.86 Q1201.71 1578.42 1204.19 1578.42 Q1208.2 1578.42 1210.53 1576.31 Q1212.87 1574.2 1212.87 1570.59 Q1212.87 1566.98 1210.53 1564.87 Q1208.2 1562.77 1204.19 1562.77 Q1202.32 1562.77 1200.44 1563.18 Q1198.59 1563.6 1196.64 1564.48 L1196.64 1547.12 Z" fill="#000000" fill-rule="evenodd" fill-opacity="1" /><path clip-path="url(#clip000)" d="M 0 0 M1232.62 1550.2 Q1229.01 1550.2 1227.18 1553.76 Q1225.37 1557.31 1225.37 1564.43 Q1225.37 1571.54 1227.18 1575.11 Q1229.01 1578.65 1232.62 1578.65 Q1236.25 1578.65 1238.06 1575.11 Q1239.89 1571.54 1239.89 1564.43 Q1239.89 1557.31 1238.06 1553.76 Q1236.25 1550.2 1232.62 1550.2 M1232.62 1546.49 Q1238.43 1546.49 1241.48 1551.1 Q1244.56 1555.68 1244.56 1564.43 Q1244.56 1573.16 1241.48 1577.77 Q1238.43 1582.35 1232.62 1582.35 Q1226.81 1582.35 1223.73 1577.77 Q1220.67 1573.16 1220.67 1564.43 Q1220.67 1555.68 1223.73 1551.1 Q1226.81 1546.49 1232.62 1546.49 Z" fill="#000000" fill-rule="evenodd" fill-opacity="1" /><path clip-path="url(#clip000)" d="M 0 0 M1730.13 1547.12 L1752.35 1547.12 L1752.35 1549.11 L1739.81 1581.68 L1734.92 1581.68 L1746.73 1551.06 L1730.13 1551.06 L1730.13 1547.12 Z" fill="#000000" fill-rule="evenodd" fill-opacity="1" /><path clip-path="url(#clip000)" d="M 0 0 M1757.47 1547.12 L1775.83 1547.12 L1775.83 1551.06 L1761.75 1551.06 L1761.75 1559.53 Q1762.77 1559.18 1763.79 1559.02 Q1764.81 1558.83 1765.83 1558.83 Q1771.61 1558.83 1774.99 1562 Q1778.37 1565.18 1778.37 1570.59 Q1778.37 1576.17 1774.9 1579.27 Q1771.43 1582.35 1765.11 1582.35 Q1762.93 1582.35 1760.66 1581.98 Q1758.42 1581.61 1756.01 1580.87 L1756.01 1576.17 Q1758.09 1577.3 1760.32 1577.86 Q1762.54 1578.42 1765.02 1578.42 Q1769.02 1578.42 1771.36 1576.31 Q1773.7 1574.2 1773.7 1570.59 Q1773.7 1566.98 1771.36 1564.87 Q1769.02 1562.77 1765.02 1562.77 Q1763.14 1562.77 1761.27 1563.18 Q1759.41 1563.6 1757.47 1564.48 L1757.47 1547.12 Z" fill="#000000" fill-rule="evenodd" fill-opacity="1" /><path clip-path="url(#clip000)" d="M 0 0 M2252 1577.74 L2259.64 1577.74 L2259.64 1551.38 L2251.33 1553.05 L2251.33 1548.79 L2259.59 1547.12 L2264.27 1547.12 L2264.27 1577.74 L2271.91 1577.74 L2271.91 1581.68 L2252 1581.68 L2252 1577.74 Z" fill="#000000" fill-rule="evenodd" fill-opacity="1" /><path clip-path="url(#clip000)" d="M 0 0 M2286.98 1550.2 Q2283.36 1550.2 2281.54 1553.76 Q2279.73 1557.31 2279.73 1564.43 Q2279.73 1571.54 2281.54 1575.11 Q2283.36 1578.65 2286.98 1578.65 Q2290.61 1578.65 2292.42 1575.11 Q2294.24 1571.54 2294.24 1564.43 Q2294.24 1557.31 2292.42 1553.76 Q2290.61 1550.2 2286.98 1550.2 M2286.98 1546.49 Q2292.79 1546.49 2295.84 1551.1 Q2298.92 1555.68 2298.92 1564.43 Q2298.92 1573.16 2295.84 1577.77 Q2292.79 1582.35 2286.98 1582.35 Q2281.17 1582.35 2278.09 1577.77 Q2275.03 1573.16 2275.03 1564.43 Q2275.03 1555.68 2278.09 1551.1 Q2281.17 1546.49 2286.98 1546.49 Z" fill="#000000" fill-rule="evenodd" fill-opacity="1" /><path clip-path="url(#clip000)" d="M 0 0 M2313.99 1550.2 Q2310.38 1550.2 2308.55 1553.76 Q2306.74 1557.31 2306.74 1564.43 Q2306.74 1571.54 2308.55 1575.11 Q2310.38 1578.65 2313.99 1578.65 Q2317.62 1578.65 2319.43 1575.11 Q2321.26 1571.54 2321.26 1564.43 Q2321.26 1557.31 2319.43 1553.76 Q2317.62 1550.2 2313.99 1550.2 M2313.99 1546.49 Q2319.8 1546.49 2322.85 1551.1 Q2325.93 1555.68 2325.93 1564.43 Q2325.93 1573.16 2322.85 1577.77 Q2319.8 1582.35 2313.99 1582.35 Q2308.18 1582.35 2305.1 1577.77 Q2302.04 1573.16 2302.04 1564.43 Q2302.04 1555.68 2305.1 1551.1 Q2308.18 1546.49 2313.99 1546.49 Z" fill="#000000" fill-rule="evenodd" fill-opacity="1" /><polyline clip-path="url(#clip002)" style="stroke:#000000; stroke-width:2; stroke-opacity:0.1; fill:none" points="
  86.9921,1172.2 2352.76,1172.2 
  "/>
<polyline clip-path="url(#clip002)" style="stroke:#000000; stroke-width:2; stroke-opacity:0.1; fill:none" points="
  86.9921,803.851 2352.76,803.851 
  "/>
<polyline clip-path="url(#clip002)" style="stroke:#000000; stroke-width:2; stroke-opacity:0.1; fill:none" points="
  86.9921,435.5 2352.76,435.5 
  "/>
<polyline clip-path="url(#clip002)" style="stroke:#000000; stroke-width:2; stroke-opacity:0.1; fill:none" points="
  86.9921,67.1493 2352.76,67.1493 
  "/>
<polyline clip-path="url(#clip000)" style="stroke:#000000; stroke-width:4; stroke-opacity:1; fill:none" points="
  86.9921,1521.01 86.9921,47.2441 
  "/>
<polyline clip-path="url(#clip000)" style="stroke:#000000; stroke-width:4; stroke-opacity:1; fill:none" points="
  86.9921,1172.2 114.181,1172.2 
  "/>
<polyline clip-path="url(#clip000)" style="stroke:#000000; stroke-width:4; stroke-opacity:1; fill:none" points="
  86.9921,803.851 114.181,803.851 
  "/>
<polyline clip-path="url(#clip000)" style="stroke:#000000; stroke-width:4; stroke-opacity:1; fill:none" points="
  86.9921,435.5 114.181,435.5 
  "/>
<polyline clip-path="url(#clip000)" style="stroke:#000000; stroke-width:4; stroke-opacity:1; fill:none" points="
  86.9921,67.1493 114.181,67.1493 
  "/>
<path clip-path="url(#clip000)" d="M 0 0 M-31.1139 1172.65 L-1.43815 1172.65 L-1.43815 1176.59 L-31.1139 1176.59 L-31.1139 1172.65 Z" fill="#000000" fill-rule="evenodd" fill-opacity="1" /><path clip-path="url(#clip000)" d="M 0 0 M7.65902 1185.55 L23.9784 1185.55 L23.9784 1189.48 L2.03405 1189.48 L2.03405 1185.55 Q4.69608 1182.79 9.27939 1178.16 Q13.8858 1173.51 15.0664 1172.17 Q17.3118 1169.64 18.1914 1167.91 Q19.0941 1166.15 19.0941 1164.46 Q19.0941 1161.7 17.1497 1159.97 Q15.2284 1158.23 12.1266 1158.23 Q9.92753 1158.23 7.47384 1159 Q5.0433 1159.76 2.26554 1161.31 L2.26554 1156.59 Q5.08959 1155.45 7.54328 1154.88 Q9.99698 1154.3 12.034 1154.3 Q17.4043 1154.3 20.5988 1156.98 Q23.7932 1159.67 23.7932 1164.16 Q23.7932 1166.29 22.983 1168.21 Q22.196 1170.11 20.0895 1172.7 Q19.5108 1173.37 16.409 1176.59 Q13.3071 1179.78 7.65902 1185.55 Z" fill="#000000" fill-rule="evenodd" fill-opacity="1" /><path clip-path="url(#clip000)" d="M 0 0 M39.0477 1158 Q35.4367 1158 33.608 1161.57 Q31.8024 1165.11 31.8024 1172.24 Q31.8024 1179.34 33.608 1182.91 Q35.4367 1186.45 39.0477 1186.45 Q42.682 1186.45 44.4875 1182.91 Q46.3162 1179.34 46.3162 1172.24 Q46.3162 1165.11 44.4875 1161.57 Q42.682 1158 39.0477 1158 M39.0477 1154.3 Q44.8579 1154.3 47.9134 1158.9 Q50.9921 1163.49 50.9921 1172.24 Q50.9921 1180.96 47.9134 1185.57 Q44.8579 1190.15 39.0477 1190.15 Q33.2376 1190.15 30.1589 1185.57 Q27.1034 1180.96 27.1034 1172.24 Q27.1034 1163.49 30.1589 1158.9 Q33.2376 1154.3 39.0477 1154.3 Z" fill="#000000" fill-rule="evenodd" fill-opacity="1" /><path clip-path="url(#clip000)" d="M 0 0 M-30.4889 804.302 L-0.813152 804.302 L-0.813152 808.238 L-30.4889 808.238 L-30.4889 804.302 Z" fill="#000000" fill-rule="evenodd" fill-opacity="1" /><path clip-path="url(#clip000)" d="M 0 0 M5.06645 817.196 L12.7053 817.196 L12.7053 790.83 L4.39515 792.497 L4.39515 788.238 L12.659 786.571 L17.3349 786.571 L17.3349 817.196 L24.9737 817.196 L24.9737 821.131 L5.06645 821.131 L5.06645 817.196 Z" fill="#000000" fill-rule="evenodd" fill-opacity="1" /><path clip-path="url(#clip000)" d="M 0 0 M30.0895 786.571 L48.4458 786.571 L48.4458 790.506 L34.3718 790.506 L34.3718 798.978 Q35.3904 798.631 36.4089 798.469 Q37.4274 798.284 38.4459 798.284 Q44.2329 798.284 47.6125 801.455 Q50.9921 804.627 50.9921 810.043 Q50.9921 815.622 47.5199 818.724 Q44.0477 821.802 37.7283 821.802 Q35.5524 821.802 33.2839 821.432 Q31.0385 821.062 28.6311 820.321 L28.6311 815.622 Q30.7145 816.756 32.9367 817.312 Q35.1589 817.867 37.6357 817.867 Q41.6403 817.867 43.9783 815.761 Q46.3162 813.654 46.3162 810.043 Q46.3162 806.432 43.9783 804.326 Q41.6403 802.219 37.6357 802.219 Q35.7607 802.219 33.8857 802.636 Q32.0339 803.052 30.0895 803.932 L30.0895 786.571 Z" fill="#000000" fill-rule="evenodd" fill-opacity="1" /><path clip-path="url(#clip000)" d="M 0 0 M-31.4843 435.952 L-1.80852 435.952 L-1.80852 439.887 L-31.4843 439.887 L-31.4843 435.952 Z" fill="#000000" fill-rule="evenodd" fill-opacity="1" /><path clip-path="url(#clip000)" d="M 0 0 M4.07108 448.845 L11.7099 448.845 L11.7099 422.479 L3.39979 424.146 L3.39979 419.887 L11.6636 418.22 L16.3395 418.22 L16.3395 448.845 L23.9784 448.845 L23.9784 452.78 L4.07108 452.78 L4.07108 448.845 Z" fill="#000000" fill-rule="evenodd" fill-opacity="1" /><path clip-path="url(#clip000)" d="M 0 0 M39.0477 421.299 Q35.4367 421.299 33.608 424.864 Q31.8024 428.405 31.8024 435.535 Q31.8024 442.641 33.608 446.206 Q35.4367 449.748 39.0477 449.748 Q42.682 449.748 44.4875 446.206 Q46.3162 442.641 46.3162 435.535 Q46.3162 428.405 44.4875 424.864 Q42.682 421.299 39.0477 421.299 M39.0477 417.595 Q44.8579 417.595 47.9134 422.202 Q50.9921 426.785 50.9921 435.535 Q50.9921 444.262 47.9134 448.868 Q44.8579 453.451 39.0477 453.451 Q33.2376 453.451 30.1589 448.868 Q27.1034 444.262 27.1034 435.535 Q27.1034 426.785 30.1589 422.202 Q33.2376 417.595 39.0477 417.595 Z" fill="#000000" fill-rule="evenodd" fill-opacity="1" /><path clip-path="url(#clip000)" d="M 0 0 M-4.70202 67.6007 L24.9737 67.6007 L24.9737 71.5359 L-4.70202 71.5359 L-4.70202 67.6007 Z" fill="#000000" fill-rule="evenodd" fill-opacity="1" /><path clip-path="url(#clip000)" d="M 0 0 M30.0895 49.8693 L48.4458 49.8693 L48.4458 53.8045 L34.3718 53.8045 L34.3718 62.2767 Q35.3904 61.9295 36.4089 61.7674 Q37.4274 61.5822 38.4459 61.5822 Q44.2329 61.5822 47.6125 64.7535 Q50.9921 67.9248 50.9921 73.3414 Q50.9921 78.9201 47.5199 82.0219 Q44.0477 85.1006 37.7283 85.1006 Q35.5524 85.1006 33.2839 84.7303 Q31.0385 84.3599 28.6311 83.6192 L28.6311 78.9201 Q30.7145 80.0544 32.9367 80.6099 Q35.1589 81.1655 37.6357 81.1655 Q41.6403 81.1655 43.9783 79.059 Q46.3162 76.9525 46.3162 73.3414 Q46.3162 69.7303 43.9783 67.6239 Q41.6403 65.5174 37.6357 65.5174 Q35.7607 65.5174 33.8857 65.9341 Q32.0339 66.3507 30.0895 67.2304 L30.0895 49.8693 Z" fill="#000000" fill-rule="evenodd" fill-opacity="1" /><polyline clip-path="url(#clip002)" style="stroke:#009af9; stroke-width:4; stroke-opacity:1; fill:none" points="
  151.118,88.9544 153.257,89.8799 155.397,91.7499 157.536,94.6039 159.676,98.5061 161.816,103.552 163.955,109.879 166.095,117.688 168.235,127.273 170.374,139.089 
  172.514,153.876 174.654,172.96 176.793,199.074 178.933,239.51 181.073,331.796 183.212,306.983 185.352,236.122 187.492,202.833 189.631,181.9 191.771,167.395 
  193.911,156.972 196.05,149.474 198.19,144.255 200.33,140.931 202.469,139.273 204.609,139.148 206.748,140.497 208.888,143.324 211.028,147.694 213.167,153.749 
  215.307,161.728 217.447,172.029 219.586,185.318 221.726,202.794 223.866,226.896 226.005,263.872 228.145,341.471 230.285,355.324 232.424,271.541 234.564,235.17 
  236.704,212.641 238.843,197.064 240.983,185.822 243.123,177.65 245.262,171.852 247.402,168.013 249.542,165.882 251.681,165.314 253.821,166.237 255.96,168.642 
  258.1,172.582 260.24,178.18 262.379,185.654 264.519,195.36 266.659,207.896 268.798,224.317 270.938,246.704 273.078,280.079 275.217,343.23 277.357,423.686 
  279.497,307.508 281.636,266.302 283.776,241.749 285.916,225.019 288.055,213.007 290.195,204.266 292.335,198.014 294.474,193.793 296.614,191.324 298.754,190.444 
  300.893,191.066 303.033,193.171 305.173,196.799 307.312,202.057 309.452,209.142 311.591,218.378 313.731,230.307 315.871,245.867 318.01,266.867 320.15,297.458 
  322.29,351.4 324.429,550.505 326.569,344.343 328.709,297.415 330.848,270.706 332.988,252.81 335.128,240.043 337.267,230.755 339.407,224.073 341.547,219.493 
  343.686,216.708 345.826,215.537 347.966,215.88 350.105,217.704 352.245,221.04 354.385,225.98 356.524,232.703 358.664,241.504 360.803,252.873 362.943,267.653 
  365.083,287.426 367.222,315.679 369.362,362.903 371.502,526.366 373.641,383.334 375.781,329.061 377.921,299.9 380.06,280.737 382.2,267.171 384.34,257.315 
  386.479,250.192 388.619,245.247 390.759,242.144 392.898,240.681 395.038,240.745 397.178,242.293 399.317,245.341 401.457,249.971 403.597,256.343 405.736,264.726 
  407.876,275.565 410.015,289.619 412.155,308.28 414.295,334.506 416.434,376.52 418.574,483.371 420.714,425.747 422.853,361.452 424.993,329.418 427.133,308.852 
  429.272,294.426 431.412,283.969 433.552,276.387 435.691,271.066 437.831,267.637 439.971,265.879 442.11,265.663 444.25,266.934 446.39,269.698 448.529,274.024 
  450.669,280.054 452.809,288.034 454.948,298.369 457.088,311.742 459.227,329.387 461.367,353.835 463.507,391.665 465.646,473.528 467.786,473.789 469.926,394.766 
  472.065,359.312 474.205,337.175 476.345,321.818 478.484,310.723 480.624,302.661 482.764,296.951 484.903,293.189 487.043,291.131 489.183,290.633 491.322,291.628 
  493.462,294.11 495.602,298.135 497.741,303.832 499.881,311.423 502.021,321.277 504.16,334.012 506.3,350.723 508.44,373.593 510.579,407.982 512.719,474.912 
  514.858,532.786 516.998,429.246 519.138,389.635 521.277,365.726 523.417,349.356 525.557,337.582 527.696,329.016 529.836,322.903 531.976,318.8 534.115,316.437 
  536.255,315.655 538.395,316.374 540.534,318.575 542.674,322.305 544.814,327.676 546.953,334.89 549.093,344.284 551.233,356.416 553.372,372.265 555.512,393.726 
  557.652,425.228 559.791,482.021 561.931,623.46 564.07,465.246 566.21,420.459 568.35,394.531 570.489,377.051 572.629,364.552 574.769,355.457 576.908,348.926 
  579.048,344.472 581.188,341.799 583.327,340.73 585.467,341.171 587.607,343.094 589.746,346.532 591.886,351.583 594.026,358.432 596.165,367.385 598.305,378.948 
  600.445,393.997 602.584,414.189 604.724,443.227 606.864,492.617 609.003,707.886 611.143,503.312 613.282,451.871 615.422,423.618 617.562,404.916 619.701,391.639 
  621.841,381.987 623.981,375.022 626.12,370.206 628.26,367.217 630.4,365.857 632.539,366.02 634.679,367.665 636.819,370.814 638.958,375.553 641.098,382.047 
  643.238,390.576 645.377,401.599 647.517,415.902 649.657,434.943 651.796,461.852 653.936,505.563 656.076,626.191 658.215,544.359 660.355,483.99 662.494,453.023 
  664.634,432.968 666.774,418.852 668.913,408.61 671.053,401.192 673.193,396.005 675.332,392.691 677.472,391.037 679.612,390.92 681.751,392.288 683.891,395.152 
  686.031,399.584 688.17,405.732 690.31,413.852 692.45,424.361 694.589,437.968 696.729,455.959 698.869,481.005 701.008,520.205 703.148,609.206 705.288,590.09 
  707.427,516.97 709.567,482.787 711.707,461.221 713.846,446.2 715.986,435.332 718.125,427.441 720.265,421.868 722.405,418.224 724.544,416.271 726.684,415.873 
  728.824,416.964 730.963,419.544 733.103,423.674 735.243,429.486 737.382,437.211 739.522,447.23 741.662,460.183 743.801,477.211 745.941,500.61 748.081,536.127 
  750.22,607.551 752.36,644.305 754.5,551.029 756.639,512.965 758.779,489.698 760.919,473.691 763.058,462.158 765.198,453.77 767.337,447.8 769.477,443.816 
  771.617,441.56 773.756,440.877 775.896,441.691 778.036,443.99 780.175,447.822 782.315,453.305 784.455,460.648 786.594,470.199 788.734,482.536 790.874,498.676 
  793.013,520.608 795.153,553.054 797.293,612.972 799.432,718.895 801.572,586.477 803.712,543.62 805.851,518.421 807.991,501.337 810.131,489.094 812.27,480.185 
  814.41,473.801 816.549,469.469 818.689,466.904 820.829,465.934 822.968,466.471 825.108,468.49 827.248,472.027 829.387,477.188 831.527,484.161 833.667,493.263 
  835.806,505.018 837.946,520.335 840.086,540.948 842.225,570.79 844.365,622.487 846.505,993.47 848.644,623.788 850.784,574.836 852.924,547.419 855.063,529.151 
  857.203,516.147 859.343,506.689 861.482,499.874 863.622,495.184 865.762,492.303 867.901,491.043 870.041,491.301 872.18,493.042 874.32,496.289 876.46,501.134 
  878.599,507.748 880.739,516.418 882.879,527.622 885.018,542.173 887.158,561.593 889.298,589.193 891.437,634.681 893.577,773.643 895.717,663.729 897.856,606.722 
  899.996,576.726 902.136,557.147 904.275,543.324 906.415,533.285 908.555,526.023 910.694,520.963 912.834,517.76 914.974,516.206 917.113,516.184 919.253,517.646 
  921.392,520.605 923.532,525.14 925.672,531.404 927.811,539.66 929.951,550.339 932.091,564.175 934.23,582.508 936.37,608.153 938.51,648.763 940.649,746.082 
  942.789,707.676 944.929,639.42 947.068,606.381 949.208,585.342 951.348,570.633 953.487,559.98 955.627,552.25 957.767,546.808 959.906,543.275 962.046,541.423 
  964.186,541.118 966.325,542.302 968.465,544.977 970.604,549.206 972.744,555.129 974.884,562.984 977.023,573.164 979.163,586.329 981.303,603.667 983.442,627.591 
  985.582,664.252 987.722,740.612 989.861,758.501 992.001,673.129 994.141,636.437 996.28,613.758 998.42,598.086 1000.56,586.779 1002.7,578.558 1004.84,572.72 
  1006.98,568.85 1009.12,566.694 1011.26,566.105 1013.4,567.01 1015.54,569.402 1017.68,573.331 1019.82,578.92 1021.96,586.387 1024.1,596.089 1026.24,608.624 
  1028.38,625.046 1030.51,647.44 1032.65,680.832 1034.79,744.057 1036.93,823.994 1039.07,708.125 1041.21,666.953 1043.35,642.414 1045.49,625.692 1047.63,613.687 
  1049.77,604.95 1051.91,598.703 1054.05,594.485 1056.19,592.021 1058.33,591.144 1060.47,591.771 1062.61,593.88 1064.75,597.513 1066.89,602.776 1069.03,609.868 
  1071.17,619.112 1073.31,631.05 1075.45,646.625 1077.59,667.646 1079.73,698.28 1081.87,752.351 1084.01,947.665 1086.15,744.834 1088.29,698.012 1090.43,671.342 
  1092.56,653.465 1094.7,640.711 1096.84,631.432 1098.98,624.757 1101.12,620.183 1103.26,617.403 1105.4,616.236 1107.54,616.583 1109.68,618.411 1111.82,621.75 
  1113.96,626.694 1116.1,633.421 1118.24,642.226 1120.38,653.6 1122.52,668.387 1124.66,688.171 1126.8,716.443 1128.94,763.718 1131.08,928.044 1133.22,783.91 
  1135.36,729.71 1137.5,700.571 1139.64,681.419 1141.78,667.86 1143.92,658.008 1146.06,650.888 1148.2,645.945 1150.34,642.844 1152.47,641.382 1154.61,641.447 
  1156.75,642.996 1158.89,646.044 1161.03,650.674 1163.17,657.045 1165.31,665.427 1167.45,676.265 1169.59,690.316 1171.73,708.974 1173.87,735.193 1176.01,777.189 
  1178.15,883.916 1180.29,826.528 1182.43,762.188 1184.57,730.143 1186.71,709.57 1188.85,695.141 1190.99,684.68 1193.13,677.096 1195.27,671.772 1197.41,668.341 
  1199.55,666.581 1201.69,666.362 1203.83,667.631 1205.97,670.392 1208.11,674.713 1210.25,680.738 1212.39,688.713 1214.52,699.04 1216.66,712.403 1218.8,730.032 
  1220.94,754.452 1223.08,792.219 1225.22,873.768 1227.36,874.96 1229.5,795.626 1231.64,760.107 1233.78,737.941 1235.92,722.567 1238.06,711.46 1240.2,703.388 
  1242.34,697.67 1244.48,693.902 1246.62,691.836 1248.76,691.332 1250.9,692.319 1253.04,694.794 1255.18,698.81 1257.32,704.497 1259.46,712.076 1261.6,721.915 
  1263.74,734.63 1265.88,751.312 1268.02,774.134 1270.16,808.422 1272.3,874.961 1274.44,934.913 1276.57,830.281 1278.71,790.52 1280.85,766.549 1282.99,750.143 
  1285.13,738.346 1287.27,729.762 1289.41,723.635 1291.55,719.52 1293.69,717.145 1295.83,716.352 1297.97,717.059 1300.11,719.25 1302.25,722.967 1304.39,728.323 
  1306.53,735.52 1308.67,744.893 1310.81,756.997 1312.95,772.805 1315.09,794.2 1317.23,825.569 1319.37,881.938 1321.51,1029.68 1323.65,866.551 1325.79,821.471 
  1327.93,795.434 1330.07,777.894 1332.21,765.356 1334.35,756.232 1336.49,749.679 1338.62,745.205 1340.76,742.513 1342.9,741.427 1345.04,741.851 1347.18,743.756 
  1349.32,747.176 1351.46,752.207 1353.6,759.032 1355.74,767.956 1357.88,779.481 1360.02,794.478 1362.16,814.588 1364.3,843.471 1366.44,892.428 1368.58,1093.85 
  1370.72,904.994 1372.86,853.03 1375,824.604 1377.14,805.815 1379.28,792.482 1381.42,782.789 1383.56,775.793 1385.7,770.952 1387.84,767.938 1389.98,766.557 
  1392.12,766.698 1394.26,768.321 1396.4,771.447 1398.54,776.16 1400.67,782.624 1402.81,791.116 1404.95,802.092 1407.09,816.33 1409.23,835.272 1411.37,862 
  1413.51,905.258 1415.65,1021.91 1417.79,946.719 1419.93,885.378 1422.07,854.139 1424.21,833.951 1426.35,819.754 1428.49,809.454 1430.63,801.991 1432.77,796.767 
  1434.91,793.421 1437.05,791.736 1439.19,791.59 1441.33,792.93 1443.47,795.763 1445.61,800.163 1447.75,806.275 1449.89,814.351 1452.03,824.806 1454.17,838.339 
  1456.31,856.22 1458.45,881.074 1460.58,919.83 1462.72,1006.42 1464.86,993.494 1467,918.606 1469.14,884.03 1471.28,862.285 1473.42,847.158 1475.56,836.218 
  1477.7,828.271 1479.84,822.654 1481.98,818.97 1484.12,816.981 1486.26,816.547 1488.4,817.604 1490.54,820.147 1492.68,824.237 1494.82,830.003 1496.96,837.675 
  1499.1,847.627 1501.24,860.491 1503.38,877.388 1505.52,900.57 1507.66,935.619 1509.8,1005.14 1511.94,1050.25 1514.08,953.091 1516.22,914.411 1518.36,890.884 
  1520.5,874.728 1522.63,863.096 1524.77,854.633 1526.91,848.603 1529.05,844.568 1531.19,842.265 1533.33,841.539 1535.47,842.312 1537.61,844.568 1539.75,848.354 
  1541.89,853.786 1544.03,861.071 1546.17,870.55 1548.31,882.793 1550.45,898.796 1552.59,920.506 1554.73,952.503 1556.87,1010.91 1559.01,1132.14 1561.15,989.021 
  1563.29,945.275 1565.43,919.736 1567.57,902.466 1569.71,890.102 1571.85,881.103 1573.99,874.647 1576.13,870.254 1578.27,867.633 1580.41,866.61 1582.55,867.095 
  1584.68,869.06 1586.82,872.541 1588.96,877.638 1591.1,884.538 1593.24,893.552 1595.38,905.192 1597.52,920.35 1599.66,940.712 1601.8,970.077 1603.94,1020.4 
  1606.08,1279.52 1608.22,1027.18 1610.36,976.801 1612.5,948.898 1614.64,930.376 1616.78,917.211 1618.92,907.638 1621.06,900.735 1623.2,895.971 1625.34,893.025 
  1627.48,891.706 1629.62,891.907 1631.76,893.59 1633.9,896.778 1636.04,901.557 1638.18,908.096 1640.32,916.677 1642.46,927.764 1644.6,942.153 1646.73,961.321 
  1648.87,988.457 1651.01,1032.74 1653.15,1158.73 1655.29,1068.29 1657.43,1009.08 1659.57,978.433 1661.71,958.534 1663.85,944.512 1665.99,934.332 1668.13,926.96 
  1670.27,921.807 1672.41,918.522 1674.55,916.891 1676.69,916.795 1678.83,918.182 1680.97,921.064 1683.11,925.514 1685.25,931.684 1687.39,939.829 1689.53,950.37 
  1691.67,964.021 1693.81,982.08 1695.95,1007.25 1698.09,1046.73 1700.23,1137.34 1702.37,1114.25 1704.51,1042.21 1706.64,1008.28 1708.78,986.823 1710.92,971.869 
  1713.06,961.049 1715.2,953.193 1717.34,947.651 1719.48,944.032 1721.62,942.103 1723.76,941.725 1725.9,942.836 1728.04,945.435 1730.18,949.583 1732.32,955.412 
  1734.46,963.154 1736.6,973.192 1738.74,986.165 1740.88,1003.22 1743.02,1026.66 1745.16,1062.25 1747.3,1133.99 1749.44,1169.4 1751.58,1076.72 1753.72,1038.75 
  1755.86,1015.52 1758,999.527 1760.14,988 1762.28,979.612 1764.42,973.638 1766.56,969.65 1768.69,967.386 1770.83,966.696 1772.97,967.502 1775.11,969.793 
  1777.25,973.617 1779.39,979.092 1781.53,986.429 1783.67,995.975 1785.81,1008.31 1787.95,1024.44 1790.09,1046.37 1792.23,1078.81 1794.37,1138.7 1796.51,1244.89 
  1798.65,1112.3 1800.79,1069.44 1802.93,1044.24 1805.07,1027.16 1807.21,1014.92 1809.35,1006.02 1811.49,999.636 1813.63,995.308 1815.77,992.745 1817.91,991.775 
  1820.05,992.31 1822.19,994.322 1824.33,997.849 1826.47,1002.99 1828.61,1009.94 1830.74,1019.01 1832.88,1030.72 1835.02,1045.96 1837.16,1066.46 1839.3,1096.08 
  1841.44,1147.13 1843.58,1479.3 1845.72,1150.89 1847.86,1101.29 1850,1073.64 1852.14,1055.24 1854.28,1042.15 1856.42,1032.62 1858.56,1025.75 1860.7,1021.01 
  1862.84,1018.09 1864.98,1016.79 1867.12,1017.01 1869.26,1018.72 1871.4,1021.94 1873.54,1026.75 1875.68,1033.33 1877.82,1041.97 1879.96,1053.14 1882.1,1067.64 
  1884.24,1086.98 1886.38,1114.42 1888.52,1159.48 1890.66,1293.4 1892.79,1190.89 1894.93,1133.12 1897.07,1102.91 1899.21,1083.24 1901.35,1069.36 1903.49,1059.28 
  1905.63,1051.99 1907.77,1046.9 1909.91,1043.67 1912.05,1042.08 1914.19,1042.02 1916.33,1043.44 1918.47,1046.34 1920.61,1050.81 1922.75,1056.99 1924.89,1065.15 
  1927.03,1075.7 1929.17,1089.36 1931.31,1107.44 1933.45,1132.65 1935.59,1172.25 1937.73,1263.65 1939.87,1238.57 1942.01,1167.03 1944.15,1133.18 1946.29,1111.76 
  1948.43,1096.82 1950.57,1086 1952.71,1078.15 1954.84,1072.61 1956.98,1069 1959.12,1067.08 1961.26,1066.72 1963.4,1067.86 1965.54,1070.5 1967.68,1074.69 
  1969.82,1080.57 1971.96,1088.38 1974.1,1098.51 1976.24,1111.59 1978.38,1128.79 1980.52,1152.47 1982.66,1188.54 1984.8,1262.19 1986.94,1290.16 1989.08,1200.75 
  1991.22,1163.35 1993.36,1140.38 1995.5,1124.54 1997.64,1113.11 1999.78,1104.79 2001.92,1098.86 2004.06,1094.9 2006.2,1092.65 2008.34,1091.97 2010.48,1092.76 
  2012.62,1095.03 2014.75,1098.82 2016.89,1104.26 2019.03,1111.54 2021.17,1121.03 2023.31,1133.28 2025.45,1149.29 2027.59,1170.97 2029.73,1202.61 2031.87,1256.72 
  2034.01,1305.81 2036.15,1231.87 2038.29,1192.39 2040.43,1168.17 2042.57,1151.58 2044.71,1139.62 2046.85,1130.81 2048.99,1124.3 2051.13,1119.53 2053.27,1116.19 
  2055.41,1114.14 2057.55,1113.46 2059.69,1114.44 2061.83,1117.52 2063.97,1123.23 2066.11,1132.02 2068.25,1143.67 2070.39,1155.64 2072.53,1161.43 2074.67,1156.78 
  2076.8,1147.56 2078.94,1141.01 2081.08,1140.7 2083.22,1148.72 2085.36,1166.83 2087.5,1188.78 2089.64,1176.82 2091.78,1143.78 2093.92,1119.09 2096.06,1104.31 
  2098.2,1098.04 2100.34,1099.71 2102.48,1109.54 2104.62,1127.13 2106.76,1143.45 2108.9,1135.54 2111.04,1113.94 2113.18,1097.91 2115.32,1091 2117.46,1093.78 
  2119.6,1108.29 2121.74,1141.73 2123.88,1224.38 2126.02,1176.12 2128.16,1120.27 2130.3,1095.06 2132.44,1085.06 2134.58,1086.79 2136.72,1100.93 2138.85,1132.48 
  2140.99,1180.43 2143.13,1145.42 2145.27,1104.71 2147.41,1083.94 2149.55,1076.49 2151.69,1080.36 2153.83,1096.84 2155.97,1131.51 2158.11,1176.24 2160.25,1135.05 
  2162.39,1098.26 2164.53,1080.49 2166.67,1075.96 2168.81,1083.57 2170.95,1106.64 2173.09,1162.03 2175.23,1252.16 2177.37,1131.16 2179.51,1094.47 2181.65,1079.35 
  2183.79,1077.75 2185.93,1088.89 2188.07,1117.05 2190.21,1176.86 2192.35,1168.44 2194.49,1113.15 2196.63,1087.48 2198.77,1077.92 2200.9,1080.75 2203.04,1096.82 
  2205.18,1132.94 2207.32,1201.8 2209.46,1151.27 2211.6,1107.35 2213.74,1087.93 2215.88,1083.14 2218.02,1091.1 2220.16,1115.03 2222.3,1172.69 2224.44,1253.78 
  2226.58,1138.79 2228.72,1103.75 2230.86,1090 2233,1089.88 2235.14,1102.92 2237.28,1134.27 2239.42,1202.16 2241.56,1177.46 2243.7,1124.84 2245.84,1101.69 
  2247.98,1094.39 2250.12,1099.76 2252.26,1119.48 2254.4,1163.27 2256.54,1236.49 2258.68,1159.76 2260.82,1121.44 2262.95,1105.66 2265.09,1104.02 2267.23,1115.56 
  2269.37,1145.23 2271.51,1222.11 2273.65,1225.34 2275.79,1149.31 2277.93,1121.59 2280.07,1112.16 2282.21,1115.94 2284.35,1133.78 2286.49,1173.53 2288.63,1244.2 
  
  "/>
<polyline clip-path="url(#clip002)" style="stroke:#e26f46; stroke-width:4; stroke-opacity:1; fill:none" points="
  151.118,103.984 153.257,105.115 155.397,106.245 157.536,107.376 159.676,108.506 161.816,109.637 163.955,110.767 166.095,111.898 168.235,113.028 170.374,114.159 
  172.514,115.289 174.654,116.42 176.793,117.55 178.933,118.681 181.073,119.811 183.212,120.942 185.352,122.072 187.492,123.203 189.631,124.333 191.771,125.464 
  193.911,126.594 196.05,127.725 198.19,128.855 200.33,129.986 202.469,131.116 204.609,132.247 206.748,133.377 208.888,134.508 211.028,135.638 213.167,136.769 
  215.307,137.899 217.447,139.03 219.586,140.16 221.726,141.291 223.866,142.421 226.005,143.552 228.145,144.682 230.285,145.813 232.424,146.943 234.564,148.074 
  236.704,149.204 238.843,150.335 240.983,151.465 243.123,152.596 245.262,153.726 247.402,154.857 249.542,155.987 251.681,157.118 253.821,158.248 255.96,159.379 
  258.1,160.509 260.24,161.64 262.379,162.77 264.519,163.901 266.659,165.031 268.798,166.162 270.938,167.292 273.078,168.423 275.217,169.553 277.357,170.684 
  279.497,171.814 281.636,172.945 283.776,174.075 285.916,175.206 288.055,176.336 290.195,177.467 292.335,178.597 294.474,179.728 296.614,180.858 298.754,181.989 
  300.893,183.119 303.033,184.25 305.173,185.38 307.312,186.511 309.452,187.641 311.591,188.771 313.731,189.902 315.871,191.032 318.01,192.163 320.15,193.293 
  322.29,194.424 324.429,195.554 326.569,196.685 328.709,197.815 330.848,198.946 332.988,200.076 335.128,201.207 337.267,202.337 339.407,203.468 341.547,204.598 
  343.686,205.729 345.826,206.859 347.966,207.99 350.105,209.12 352.245,210.251 354.385,211.381 356.524,212.512 358.664,213.642 360.803,214.773 362.943,215.903 
  365.083,217.034 367.222,218.164 369.362,219.295 371.502,220.425 373.641,221.556 375.781,222.686 377.921,223.817 380.06,224.947 382.2,226.078 384.34,227.208 
  386.479,228.339 388.619,229.469 390.759,230.6 392.898,231.73 395.038,232.861 397.178,233.991 399.317,235.122 401.457,236.252 403.597,237.383 405.736,238.513 
  407.876,239.644 410.015,240.774 412.155,241.905 414.295,243.035 416.434,244.166 418.574,245.296 420.714,246.427 422.853,247.557 424.993,248.688 427.133,249.818 
  429.272,250.949 431.412,252.079 433.552,253.21 435.691,254.34 437.831,255.471 439.971,256.601 442.11,257.732 444.25,258.862 446.39,259.993 448.529,261.123 
  450.669,262.254 452.809,263.384 454.948,264.515 457.088,265.645 459.227,266.776 461.367,267.906 463.507,269.037 465.646,270.167 467.786,271.298 469.926,272.428 
  472.065,273.559 474.205,274.689 476.345,275.82 478.484,276.95 480.624,278.081 482.764,279.211 484.903,280.342 487.043,281.472 489.183,282.603 491.322,283.733 
  493.462,284.864 495.602,285.994 497.741,287.124 499.881,288.255 502.021,289.385 504.16,290.516 506.3,291.646 508.44,292.777 510.579,293.907 512.719,295.038 
  514.858,296.168 516.998,297.299 519.138,298.429 521.277,299.56 523.417,300.69 525.557,301.821 527.696,302.951 529.836,304.082 531.976,305.212 534.115,306.343 
  536.255,307.473 538.395,308.604 540.534,309.734 542.674,310.865 544.814,311.995 546.953,313.126 549.093,314.256 551.233,315.387 553.372,316.517 555.512,317.648 
  557.652,318.778 559.791,319.909 561.931,321.039 564.07,322.17 566.21,323.3 568.35,324.431 570.489,325.561 572.629,326.692 574.769,327.822 576.908,328.953 
  579.048,330.083 581.188,331.214 583.327,332.344 585.467,333.475 587.607,334.605 589.746,335.736 591.886,336.866 594.026,337.997 596.165,339.127 598.305,340.258 
  600.445,341.388 602.584,342.519 604.724,343.649 606.864,344.78 609.003,345.91 611.143,347.041 613.282,348.171 615.422,349.302 617.562,350.432 619.701,351.563 
  621.841,352.693 623.981,353.824 626.12,354.954 628.26,356.085 630.4,357.215 632.539,358.346 634.679,359.476 636.819,360.607 638.958,361.737 641.098,362.868 
  643.238,363.998 645.377,365.129 647.517,366.259 649.657,367.39 651.796,368.52 653.936,369.651 656.076,370.781 658.215,371.912 660.355,373.042 662.494,374.173 
  664.634,375.303 666.774,376.434 668.913,377.564 671.053,378.695 673.193,379.825 675.332,380.956 677.472,382.086 679.612,383.217 681.751,384.347 683.891,385.477 
  686.031,386.608 688.17,387.738 690.31,388.869 692.45,389.999 694.589,391.13 696.729,392.26 698.869,393.391 701.008,394.521 703.148,395.652 705.288,396.782 
  707.427,397.913 709.567,399.043 711.707,400.174 713.846,401.304 715.986,402.435 718.125,403.565 720.265,404.696 722.405,405.826 724.544,406.957 726.684,408.087 
  728.824,409.218 730.963,410.348 733.103,411.479 735.243,412.609 737.382,413.74 739.522,414.87 741.662,416.001 743.801,417.131 745.941,418.262 748.081,419.392 
  750.22,420.523 752.36,421.653 754.5,422.784 756.639,423.914 758.779,425.045 760.919,426.175 763.058,427.306 765.198,428.436 767.337,429.567 769.477,430.697 
  771.617,431.828 773.756,432.958 775.896,434.089 778.036,435.219 780.175,436.35 782.315,437.48 784.455,438.611 786.594,439.741 788.734,440.872 790.874,442.002 
  793.013,443.133 795.153,444.263 797.293,445.394 799.432,446.524 801.572,447.655 803.712,448.785 805.851,449.916 807.991,451.046 810.131,452.177 812.27,453.307 
  814.41,454.438 816.549,455.568 818.689,456.699 820.829,457.829 822.968,458.96 825.108,460.09 827.248,461.221 829.387,462.351 831.527,463.482 833.667,464.612 
  835.806,465.743 837.946,466.873 840.086,468.004 842.225,469.134 844.365,470.265 846.505,471.395 848.644,472.526 850.784,473.656 852.924,474.787 855.063,475.917 
  857.203,477.048 859.343,478.178 861.482,479.309 863.622,480.439 865.762,481.57 867.901,482.7 870.041,483.83 872.18,484.961 874.32,486.091 876.46,487.222 
  878.599,488.352 880.739,489.483 882.879,490.613 885.018,491.744 887.158,492.874 889.298,494.005 891.437,495.135 893.577,496.266 895.717,497.396 897.856,498.527 
  899.996,499.657 902.136,500.788 904.275,501.918 906.415,503.049 908.555,504.179 910.694,505.31 912.834,506.44 914.974,507.571 917.113,508.701 919.253,509.832 
  921.392,510.962 923.532,512.093 925.672,513.223 927.811,514.354 929.951,515.484 932.091,516.615 934.23,517.745 936.37,518.876 938.51,520.006 940.649,521.137 
  942.789,522.267 944.929,523.398 947.068,524.528 949.208,525.659 951.348,526.789 953.487,527.92 955.627,529.05 957.767,530.181 959.906,531.311 962.046,532.442 
  964.186,533.572 966.325,534.703 968.465,535.833 970.604,536.964 972.744,538.094 974.884,539.225 977.023,540.355 979.163,541.486 981.303,542.616 983.442,543.747 
  985.582,544.877 987.722,546.008 989.861,547.138 992.001,548.269 994.141,549.399 996.28,550.53 998.42,551.66 1000.56,552.791 1002.7,553.921 1004.84,555.052 
  1006.98,556.182 1009.12,557.313 1011.26,558.443 1013.4,559.574 1015.54,560.704 1017.68,561.835 1019.82,562.965 1021.96,564.096 1024.1,565.226 1026.24,566.357 
  1028.38,567.487 1030.51,568.618 1032.65,569.748 1034.79,570.879 1036.93,572.009 1039.07,573.14 1041.21,574.27 1043.35,575.401 1045.49,576.531 1047.63,577.662 
  1049.77,578.792 1051.91,579.923 1054.05,581.053 1056.19,582.183 1058.33,583.314 1060.47,584.444 1062.61,585.575 1064.75,586.705 1066.89,587.836 1069.03,588.966 
  1071.17,590.097 1073.31,591.227 1075.45,592.358 1077.59,593.488 1079.73,594.619 1081.87,595.749 1084.01,596.88 1086.15,598.01 1088.29,599.141 1090.43,600.271 
  1092.56,601.402 1094.7,602.532 1096.84,603.663 1098.98,604.793 1101.12,605.924 1103.26,607.054 1105.4,608.185 1107.54,609.315 1109.68,610.446 1111.82,611.576 
  1113.96,612.707 1116.1,613.837 1118.24,614.968 1120.38,616.098 1122.52,617.229 1124.66,618.359 1126.8,619.49 1128.94,620.62 1131.08,621.751 1133.22,622.881 
  1135.36,624.012 1137.5,625.142 1139.64,626.273 1141.78,627.403 1143.92,628.534 1146.06,629.664 1148.2,630.795 1150.34,631.925 1152.47,633.056 1154.61,634.186 
  1156.75,635.317 1158.89,636.447 1161.03,637.578 1163.17,638.708 1165.31,639.839 1167.45,640.969 1169.59,642.1 1171.73,643.23 1173.87,644.361 1176.01,645.491 
  1178.15,646.622 1180.29,647.752 1182.43,648.883 1184.57,650.013 1186.71,651.144 1188.85,652.274 1190.99,653.405 1193.13,654.535 1195.27,655.666 1197.41,656.796 
  1199.55,657.927 1201.69,659.057 1203.83,660.188 1205.97,661.318 1208.11,662.449 1210.25,663.579 1212.39,664.71 1214.52,665.84 1216.66,666.971 1218.8,668.101 
  1220.94,669.232 1223.08,670.362 1225.22,671.493 1227.36,672.623 1229.5,673.754 1231.64,674.884 1233.78,676.015 1235.92,677.145 1238.06,678.276 1240.2,679.406 
  1242.34,680.536 1244.48,681.667 1246.62,682.797 1248.76,683.928 1250.9,685.058 1253.04,686.189 1255.18,687.319 1257.32,688.45 1259.46,689.58 1261.6,690.711 
  1263.74,691.841 1265.88,692.972 1268.02,694.102 1270.16,695.233 1272.3,696.363 1274.44,697.494 1276.57,698.624 1278.71,699.755 1280.85,700.885 1282.99,702.016 
  1285.13,703.146 1287.27,704.277 1289.41,705.407 1291.55,706.538 1293.69,707.668 1295.83,708.799 1297.97,709.929 1300.11,711.06 1302.25,712.19 1304.39,713.321 
  1306.53,714.451 1308.67,715.582 1310.81,716.712 1312.95,717.843 1315.09,718.973 1317.23,720.104 1319.37,721.234 1321.51,722.365 1323.65,723.495 1325.79,724.626 
  1327.93,725.756 1330.07,726.887 1332.21,728.017 1334.35,729.148 1336.49,730.278 1338.62,731.409 1340.76,732.539 1342.9,733.67 1345.04,734.8 1347.18,735.931 
  1349.32,737.061 1351.46,738.192 1353.6,739.322 1355.74,740.453 1357.88,741.583 1360.02,742.714 1362.16,743.844 1364.3,744.975 1366.44,746.105 1368.58,747.236 
  1370.72,748.366 1372.86,749.497 1375,750.627 1377.14,751.758 1379.28,752.888 1381.42,754.019 1383.56,755.149 1385.7,756.28 1387.84,757.41 1389.98,758.541 
  1392.12,759.671 1394.26,760.802 1396.4,761.932 1398.54,763.063 1400.67,764.193 1402.81,765.324 1404.95,766.454 1407.09,767.585 1409.23,768.715 1411.37,769.846 
  1413.51,770.976 1415.65,772.107 1417.79,773.237 1419.93,774.368 1422.07,775.498 1424.21,776.629 1426.35,777.759 1428.49,778.889 1430.63,780.02 1432.77,781.15 
  1434.91,782.281 1437.05,783.411 1439.19,784.542 1441.33,785.672 1443.47,786.803 1445.61,787.933 1447.75,789.064 1449.89,790.194 1452.03,791.325 1454.17,792.455 
  1456.31,793.586 1458.45,794.716 1460.58,795.847 1462.72,796.977 1464.86,798.108 1467,799.238 1469.14,800.369 1471.28,801.499 1473.42,802.63 1475.56,803.76 
  1477.7,804.891 1479.84,806.021 1481.98,807.152 1484.12,808.282 1486.26,809.413 1488.4,810.543 1490.54,811.674 1492.68,812.804 1494.82,813.935 1496.96,815.065 
  1499.1,816.196 1501.24,817.326 1503.38,818.457 1505.52,819.587 1507.66,820.718 1509.8,821.848 1511.94,822.979 1514.08,824.109 1516.22,825.24 1518.36,826.37 
  1520.5,827.501 1522.63,828.631 1524.77,829.762 1526.91,830.892 1529.05,832.023 1531.19,833.153 1533.33,834.284 1535.47,835.414 1537.61,836.545 1539.75,837.675 
  1541.89,838.806 1544.03,839.936 1546.17,841.067 1548.31,842.197 1550.45,843.328 1552.59,844.458 1554.73,845.589 1556.87,846.719 1559.01,847.85 1561.15,848.98 
  1563.29,850.111 1565.43,851.241 1567.57,852.372 1569.71,853.502 1571.85,854.633 1573.99,855.763 1576.13,856.894 1578.27,858.024 1580.41,859.155 1582.55,860.285 
  1584.68,861.416 1586.82,862.546 1588.96,863.677 1591.1,864.807 1593.24,865.938 1595.38,867.068 1597.52,868.199 1599.66,869.329 1601.8,870.46 1603.94,871.59 
  1606.08,872.721 1608.22,873.851 1610.36,874.982 1612.5,876.112 1614.64,877.242 1616.78,878.373 1618.92,879.503 1621.06,880.634 1623.2,881.764 1625.34,882.895 
  1627.48,884.025 1629.62,885.156 1631.76,886.286 1633.9,887.417 1636.04,888.547 1638.18,889.678 1640.32,890.808 1642.46,891.939 1644.6,893.069 1646.73,894.2 
  1648.87,895.33 1651.01,896.461 1653.15,897.591 1655.29,898.722 1657.43,899.852 1659.57,900.983 1661.71,902.113 1663.85,903.244 1665.99,904.374 1668.13,905.505 
  1670.27,906.635 1672.41,907.766 1674.55,908.896 1676.69,910.027 1678.83,911.157 1680.97,912.288 1683.11,913.418 1685.25,914.549 1687.39,915.679 1689.53,916.81 
  1691.67,917.94 1693.81,919.071 1695.95,920.201 1698.09,921.332 1700.23,922.462 1702.37,923.593 1704.51,924.723 1706.64,925.854 1708.78,926.984 1710.92,928.115 
  1713.06,929.245 1715.2,930.376 1717.34,931.506 1719.48,932.637 1721.62,933.767 1723.76,934.898 1725.9,936.028 1728.04,937.159 1730.18,938.289 1732.32,939.42 
  1734.46,940.55 1736.6,941.681 1738.74,942.811 1740.88,943.942 1743.02,945.072 1745.16,946.203 1747.3,947.333 1749.44,948.464 1751.58,949.594 1753.72,950.725 
  1755.86,951.855 1758,952.986 1760.14,954.116 1762.28,955.247 1764.42,956.377 1766.56,957.508 1768.69,958.638 1770.83,959.769 1772.97,960.899 1775.11,962.03 
  1777.25,963.16 1779.39,964.291 1781.53,965.421 1783.67,966.552 1785.81,967.682 1787.95,968.813 1790.09,969.943 1792.23,971.074 1794.37,972.204 1796.51,973.335 
  1798.65,974.465 1800.79,975.595 1802.93,976.726 1805.07,977.856 1807.21,978.987 1809.35,980.117 1811.49,981.248 1813.63,982.378 1815.77,983.509 1817.91,984.639 
  1820.05,985.77 1822.19,986.9 1824.33,988.031 1826.47,989.161 1828.61,990.292 1830.74,991.422 1832.88,992.553 1835.02,993.683 1837.16,994.814 1839.3,995.944 
  1841.44,997.075 1843.58,998.205 1845.72,999.336 1847.86,1000.47 1850,1001.6 1852.14,1002.73 1854.28,1003.86 1856.42,1004.99 1858.56,1006.12 1860.7,1007.25 
  1862.84,1008.38 1864.98,1009.51 1867.12,1010.64 1869.26,1011.77 1871.4,1012.9 1873.54,1014.03 1875.68,1015.16 1877.82,1016.29 1879.96,1017.42 1882.1,1018.55 
  1884.24,1019.68 1886.38,1020.82 1888.52,1021.95 1890.66,1023.08 1892.79,1024.21 1894.93,1025.34 1897.07,1026.47 1899.21,1027.6 1901.35,1028.73 1903.49,1029.86 
  1905.63,1030.99 1907.77,1032.12 1909.91,1033.25 1912.05,1034.38 1914.19,1035.51 1916.33,1036.64 1918.47,1037.77 1920.61,1038.9 1922.75,1040.03 1924.89,1041.16 
  1927.03,1042.29 1929.17,1043.43 1931.31,1044.56 1933.45,1045.69 1935.59,1046.82 1937.73,1047.95 1939.87,1049.08 1942.01,1050.21 1944.15,1051.34 1946.29,1052.47 
  1948.43,1053.6 1950.57,1054.73 1952.71,1055.86 1954.84,1056.99 1956.98,1058.12 1959.12,1059.25 1961.26,1060.38 1963.4,1061.51 1965.54,1062.64 1967.68,1063.77 
  1969.82,1064.9 1971.96,1066.04 1974.1,1067.17 1976.24,1068.3 1978.38,1069.43 1980.52,1070.56 1982.66,1071.69 1984.8,1072.82 1986.94,1073.95 1989.08,1075.08 
  1991.22,1076.21 1993.36,1077.34 1995.5,1078.47 1997.64,1079.6 1999.78,1080.73 2001.92,1081.86 2004.06,1082.99 2006.2,1084.12 2008.34,1085.25 2010.48,1086.38 
  2012.62,1087.51 2014.75,1088.64 2016.89,1089.78 2019.03,1090.91 2021.17,1092.04 2023.31,1093.17 2025.45,1094.3 2027.59,1095.43 2029.73,1096.56 2031.87,1097.69 
  2034.01,1098.82 2036.15,1099.95 2038.29,1101.08 2040.43,1102.21 2042.57,1103.34 2044.71,1104.47 2046.85,1105.6 2048.99,1106.73 2051.13,1107.86 2053.27,1108.99 
  2055.41,1110.12 2057.55,1111.25 2059.69,1112.39 2061.83,1113.52 2063.97,1114.65 2066.11,1115.78 2068.25,1116.91 2070.39,1118.04 2072.53,1119.17 2074.67,1120.3 
  2076.8,1121.43 2078.94,1122.56 2081.08,1123.69 2083.22,1124.82 2085.36,1125.95 2087.5,1127.08 2089.64,1128.21 2091.78,1129.34 2093.92,1130.47 2096.06,1131.6 
  2098.2,1132.73 2100.34,1133.86 2102.48,1135 2104.62,1136.13 2106.76,1137.26 2108.9,1138.39 2111.04,1139.52 2113.18,1140.65 2115.32,1141.78 2117.46,1142.91 
  2119.6,1144.04 2121.74,1145.17 2123.88,1146.3 2126.02,1147.43 2128.16,1148.56 2130.3,1149.69 2132.44,1150.82 2134.58,1151.95 2136.72,1153.08 2138.85,1154.21 
  2140.99,1155.34 2143.13,1156.47 2145.27,1157.61 2147.41,1158.74 2149.55,1159.87 2151.69,1161 2153.83,1162.13 2155.97,1163.26 2158.11,1164.39 2160.25,1165.52 
  2162.39,1166.65 2164.53,1167.78 2166.67,1168.91 2168.81,1170.04 2170.95,1171.17 2173.09,1172.3 2175.23,1173.43 2177.37,1174.56 2179.51,1175.69 2181.65,1176.82 
  2183.79,1177.95 2185.93,1179.08 2188.07,1180.21 2190.21,1181.35 2192.35,1182.48 2194.49,1183.61 2196.63,1184.74 2198.77,1185.87 2200.9,1187 2203.04,1188.13 
  2205.18,1189.26 2207.32,1190.39 2209.46,1191.52 2211.6,1192.65 2213.74,1193.78 2215.88,1194.91 2218.02,1196.04 2220.16,1197.17 2222.3,1198.3 2224.44,1199.43 
  2226.58,1200.56 2228.72,1201.69 2230.86,1202.82 2233,1203.96 2235.14,1205.09 2237.28,1206.22 2239.42,1207.35 2241.56,1208.48 2243.7,1209.61 2245.84,1210.74 
  2247.98,1211.87 2250.12,1213 2252.26,1214.13 2254.4,1215.26 2256.54,1216.39 2258.68,1217.52 2260.82,1218.65 2262.95,1219.78 2265.09,1220.91 2267.23,1222.04 
  2269.37,1223.17 2271.51,1224.3 2273.65,1225.43 2275.79,1226.57 2277.93,1227.7 2280.07,1228.83 2282.21,1229.96 2284.35,1231.09 2286.49,1232.22 2288.63,1233.35 
  
  "/>
<path clip-path="url(#clip000)" d="
M1767.31 277.81 L2277.23 277.81 L2277.23 96.3696 L1767.31 96.3696  Z
  " fill="#ffffff" fill-rule="evenodd" fill-opacity="1"/>
<polyline clip-path="url(#clip000)" style="stroke:#000000; stroke-width:4; stroke-opacity:1; fill:none" points="
  1767.31,277.81 2277.23,277.81 2277.23,96.3696 1767.31,96.3696 1767.31,277.81 
  "/>
<polyline clip-path="url(#clip000)" style="stroke:#009af9; stroke-width:4; stroke-opacity:1; fill:none" points="
  1792.48,156.85 1943.54,156.85 
  "/>
<path clip-path="url(#clip000)" d="M 0 0 M1968.71 139.57 L1990.56 139.57 L1990.56 143.505 L1973.39 143.505 L1973.39 153.736 L1989.84 153.736 L1989.84 157.671 L1973.39 157.671 L1973.39 170.194 L1990.98 170.194 L1990.98 174.13 L1968.71 174.13 L1968.71 139.57 Z" fill="#000000" fill-rule="evenodd" fill-opacity="1" /><polyline clip-path="url(#clip000)" style="stroke:#e26f46; stroke-width:4; stroke-opacity:1; fill:none" points="
  1792.48,217.33 1943.54,217.33 
  "/>
<path clip-path="url(#clip000)" d="M 0 0 M1968.71 219.725 L1981.19 219.725 L1981.19 223.522 L1968.71 223.522 L1968.71 219.725 Z" fill="#000000" fill-rule="evenodd" fill-opacity="1" /><path clip-path="url(#clip000)" d="M 0 0 M1996.26 203.128 Q1992.65 203.128 1990.82 206.693 Q1989.01 210.235 1989.01 217.364 Q1989.01 224.471 1990.82 228.036 Q1992.65 231.577 1996.26 231.577 Q1999.89 231.577 2001.7 228.036 Q2003.52 224.471 2003.52 217.364 Q2003.52 210.235 2001.7 206.693 Q1999.89 203.128 1996.26 203.128 M1996.26 199.425 Q2002.07 199.425 2005.12 204.031 Q2008.2 208.614 2008.2 217.364 Q2008.2 226.091 2005.12 230.698 Q2002.07 235.281 1996.26 235.281 Q1990.45 235.281 1987.37 230.698 Q1984.31 226.091 1984.31 217.364 Q1984.31 208.614 1987.37 204.031 Q1990.45 199.425 1996.26 199.425 Z" fill="#000000" fill-rule="evenodd" fill-opacity="1" /><path clip-path="url(#clip000)" d="M 0 0 M2013.27 228.73 L2018.15 228.73 L2018.15 234.61 L2013.27 234.61 L2013.27 228.73 Z" fill="#000000" fill-rule="evenodd" fill-opacity="1" /><path clip-path="url(#clip000)" d="M 0 0 M2024.03 230.674 L2031.67 230.674 L2031.67 204.309 L2023.36 205.975 L2023.36 201.716 L2031.63 200.05 L2036.3 200.05 L2036.3 230.674 L2043.94 230.674 L2043.94 234.61 L2024.03 234.61 L2024.03 230.674 Z" fill="#000000" fill-rule="evenodd" fill-opacity="1" /><path clip-path="url(#clip000)" d="M 0 0 M2049.06 200.05 L2067.41 200.05 L2067.41 203.985 L2053.34 203.985 L2053.34 212.457 Q2054.36 212.11 2055.38 211.948 Q2056.39 211.762 2057.41 211.762 Q2063.2 211.762 2066.58 214.934 Q2069.96 218.105 2069.96 223.522 Q2069.96 229.1 2066.49 232.202 Q2063.02 235.281 2056.7 235.281 Q2054.52 235.281 2052.25 234.91 Q2050.01 234.54 2047.6 233.799 L2047.6 229.1 Q2049.68 230.235 2051.9 230.79 Q2054.13 231.346 2056.6 231.346 Q2060.61 231.346 2062.95 229.239 Q2065.28 227.133 2065.28 223.522 Q2065.28 219.911 2062.95 217.804 Q2060.61 215.698 2056.6 215.698 Q2054.73 215.698 2052.85 216.114 Q2051 216.531 2049.06 217.411 L2049.06 200.05 Z" fill="#000000" fill-rule="evenodd" fill-opacity="1" /><path clip-path="url(#clip000)" d="M 0 0 M2089.2 215.975 Q2092.55 216.693 2094.43 218.961 Q2096.33 221.23 2096.33 224.563 Q2096.33 229.679 2092.81 232.48 Q2089.29 235.281 2082.81 235.281 Q2080.63 235.281 2078.32 234.841 Q2076.02 234.424 2073.57 233.568 L2073.57 229.054 Q2075.52 230.188 2077.83 230.767 Q2080.14 231.346 2082.67 231.346 Q2087.07 231.346 2089.36 229.61 Q2091.67 227.873 2091.67 224.563 Q2091.67 221.508 2089.52 219.795 Q2087.39 218.059 2083.57 218.059 L2079.54 218.059 L2079.54 214.216 L2083.76 214.216 Q2087.2 214.216 2089.03 212.85 Q2090.86 211.462 2090.86 208.869 Q2090.86 206.207 2088.96 204.795 Q2087.09 203.36 2083.57 203.36 Q2081.65 203.36 2079.45 203.776 Q2077.25 204.193 2074.61 205.073 L2074.61 200.906 Q2077.27 200.165 2079.59 199.795 Q2081.93 199.425 2083.99 199.425 Q2089.31 199.425 2092.41 201.855 Q2095.52 204.262 2095.52 208.383 Q2095.52 211.253 2093.87 213.244 Q2092.23 215.212 2089.2 215.975 Z" fill="#000000" fill-rule="evenodd" fill-opacity="1" /><path clip-path="url(#clip000)" d="M 0 0 M2115.56 215.975 Q2118.92 216.693 2120.79 218.961 Q2122.69 221.23 2122.69 224.563 Q2122.69 229.679 2119.17 232.48 Q2115.65 235.281 2109.17 235.281 Q2107 235.281 2104.68 234.841 Q2102.39 234.424 2099.94 233.568 L2099.94 229.054 Q2101.88 230.188 2104.2 230.767 Q2106.51 231.346 2109.03 231.346 Q2113.43 231.346 2115.72 229.61 Q2118.04 227.873 2118.04 224.563 Q2118.04 221.508 2115.89 219.795 Q2113.76 218.059 2109.94 218.059 L2105.91 218.059 L2105.91 214.216 L2110.12 214.216 Q2113.57 214.216 2115.4 212.85 Q2117.23 211.462 2117.23 208.869 Q2117.23 206.207 2115.33 204.795 Q2113.45 203.36 2109.94 203.36 Q2108.02 203.36 2105.82 203.776 Q2103.62 204.193 2100.98 205.073 L2100.98 200.906 Q2103.64 200.165 2105.95 199.795 Q2108.29 199.425 2110.35 199.425 Q2115.68 199.425 2118.78 201.855 Q2121.88 204.262 2121.88 208.383 Q2121.88 211.253 2120.24 213.244 Q2118.59 215.212 2115.56 215.975 Z" fill="#000000" fill-rule="evenodd" fill-opacity="1" /><path clip-path="url(#clip000)" d="M 0 0 M2131.37 201.323 L2131.37 208.684 L2140.14 208.684 L2140.14 211.994 L2131.37 211.994 L2131.37 226.068 Q2131.37 229.239 2132.23 230.142 Q2133.11 231.045 2135.77 231.045 L2140.14 231.045 L2140.14 234.61 L2135.77 234.61 Q2130.84 234.61 2128.96 232.781 Q2127.09 230.929 2127.09 226.068 L2127.09 211.994 L2123.96 211.994 L2123.96 208.684 L2127.09 208.684 L2127.09 201.323 L2131.37 201.323 Z" fill="#000000" fill-rule="evenodd" fill-opacity="1" /><path clip-path="url(#clip000)" d="M 0 0 M2145.21 228.73 L2150.1 228.73 L2150.1 234.61 L2145.21 234.61 L2145.21 228.73 Z" fill="#000000" fill-rule="evenodd" fill-opacity="1" /><path clip-path="url(#clip000)" d="M 0 0 M2152.41 219.725 L2164.89 219.725 L2164.89 223.522 L2152.41 223.522 L2152.41 219.725 Z" fill="#000000" fill-rule="evenodd" fill-opacity="1" /><path clip-path="url(#clip000)" d="M 0 0 M2170.01 200.05 L2188.36 200.05 L2188.36 203.985 L2174.29 203.985 L2174.29 212.457 Q2175.31 212.11 2176.32 211.948 Q2177.34 211.762 2178.36 211.762 Q2184.15 211.762 2187.53 214.934 Q2190.91 218.105 2190.91 223.522 Q2190.91 229.1 2187.44 232.202 Q2183.96 235.281 2177.64 235.281 Q2175.47 235.281 2173.2 234.91 Q2170.95 234.54 2168.55 233.799 L2168.55 229.1 Q2170.63 230.235 2172.85 230.79 Q2175.07 231.346 2177.55 231.346 Q2181.56 231.346 2183.89 229.239 Q2186.23 227.133 2186.23 223.522 Q2186.23 219.911 2183.89 217.804 Q2181.56 215.698 2177.55 215.698 Q2175.68 215.698 2173.8 216.114 Q2171.95 216.531 2170.01 217.411 L2170.01 200.05 Z" fill="#000000" fill-rule="evenodd" fill-opacity="1" /><path clip-path="url(#clip000)" d="M 0 0 M2195.98 228.73 L2200.86 228.73 L2200.86 234.61 L2195.98 234.61 L2195.98 228.73 Z" fill="#000000" fill-rule="evenodd" fill-opacity="1" /><path clip-path="url(#clip000)" d="M 0 0 M2205.98 200.05 L2224.33 200.05 L2224.33 203.985 L2210.26 203.985 L2210.26 212.457 Q2211.28 212.11 2212.3 211.948 Q2213.32 211.762 2214.33 211.762 Q2220.12 211.762 2223.5 214.934 Q2226.88 218.105 2226.88 223.522 Q2226.88 229.1 2223.41 232.202 Q2219.94 235.281 2213.62 235.281 Q2211.44 235.281 2209.17 234.91 Q2206.93 234.54 2204.52 233.799 L2204.52 229.1 Q2206.6 230.235 2208.82 230.79 Q2211.05 231.346 2213.52 231.346 Q2217.53 231.346 2219.87 229.239 Q2222.2 227.133 2222.2 223.522 Q2222.2 219.911 2219.87 217.804 Q2217.53 215.698 2213.52 215.698 Q2211.65 215.698 2209.77 216.114 Q2207.92 216.531 2205.98 217.411 L2205.98 200.05 Z" fill="#000000" fill-rule="evenodd" fill-opacity="1" /></svg>
