<?xml version="1.0" encoding="utf-8"?>
<svg xmlns="http://www.w3.org/2000/svg" xmlns:xlink="http://www.w3.org/1999/xlink" width="900" height="600" viewBox="0 0 3600 2400">
<defs>
  <clipPath id="clip4200">
    <rect x="0" y="0" width="3600" height="2400"/>
  </clipPath>
</defs>
<path clip-path="url(#clip4200)" d="
M0 2400 L3600 2400 L3600 0 L0 0  Z
  " fill="#ffffff" fill-rule="evenodd" fill-opacity="1"/>
<defs>
  <clipPath id="clip4201">
    <rect x="720" y="0" width="2521" height="2400"/>
  </clipPath>
</defs>
<path clip-path="url(#clip4200)" d="
M180.627 2279.47 L3552.76 2279.47 L3552.76 47.2441 L180.627 47.2441  Z
  " fill="#ffffff" fill-rule="evenodd" fill-opacity="1"/>
<defs>
  <clipPath id="clip4202">
    <rect x="180" y="47" width="3373" height="2233"/>
  </clipPath>
</defs>
<polyline clip-path="url(#clip4202)" style="stroke:#000000; stroke-width:2; stroke-opacity:0.1; fill:none" points="
  276.065,2279.47 276.065,47.2441 
  "/>
<polyline clip-path="url(#clip4202)" style="stroke:#000000; stroke-width:2; stroke-opacity:0.1; fill:none" points="
  806.273,2279.47 806.273,47.2441 
  "/>
<polyline clip-path="url(#clip4202)" style="stroke:#000000; stroke-width:2; stroke-opacity:0.1; fill:none" points="
  1336.48,2279.47 1336.48,47.2441 
  "/>
<polyline clip-path="url(#clip4202)" style="stroke:#000000; stroke-width:2; stroke-opacity:0.1; fill:none" points="
  1866.69,2279.47 1866.69,47.2441 
  "/>
<polyline clip-path="url(#clip4202)" style="stroke:#000000; stroke-width:2; stroke-opacity:0.1; fill:none" points="
  2396.9,2279.47 2396.9,47.2441 
  "/>
<polyline clip-path="url(#clip4202)" style="stroke:#000000; stroke-width:2; stroke-opacity:0.1; fill:none" points="
  2927.11,2279.47 2927.11,47.2441 
  "/>
<polyline clip-path="url(#clip4202)" style="stroke:#000000; stroke-width:2; stroke-opacity:0.1; fill:none" points="
  3457.32,2279.47 3457.32,47.2441 
  "/>
<polyline clip-path="url(#clip4202)" style="stroke:#000000; stroke-width:2; stroke-opacity:0.1; fill:none" points="
  180.627,2078.9 3552.76,2078.9 
  "/>
<polyline clip-path="url(#clip4202)" style="stroke:#000000; stroke-width:2; stroke-opacity:0.1; fill:none" points="
  180.627,1409.26 3552.76,1409.26 
  "/>
<polyline clip-path="url(#clip4202)" style="stroke:#000000; stroke-width:2; stroke-opacity:0.1; fill:none" points="
  180.627,739.623 3552.76,739.623 
  "/>
<polyline clip-path="url(#clip4202)" style="stroke:#000000; stroke-width:2; stroke-opacity:0.1; fill:none" points="
  180.627,69.9833 3552.76,69.9833 
  "/>
<polyline clip-path="url(#clip4200)" style="stroke:#000000; stroke-width:4; stroke-opacity:1; fill:none" points="
  180.627,2279.47 3552.76,2279.47 
  "/>
<polyline clip-path="url(#clip4200)" style="stroke:#000000; stroke-width:4; stroke-opacity:1; fill:none" points="
  180.627,2279.47 180.627,47.2441 
  "/>
<polyline clip-path="url(#clip4200)" style="stroke:#000000; stroke-width:4; stroke-opacity:1; fill:none" points="
  276.065,2279.47 276.065,2252.69 
  "/>
<polyline clip-path="url(#clip4200)" style="stroke:#000000; stroke-width:4; stroke-opacity:1; fill:none" points="
  806.273,2279.47 806.273,2252.69 
  "/>
<polyline clip-path="url(#clip4200)" style="stroke:#000000; stroke-width:4; stroke-opacity:1; fill:none" points="
  1336.48,2279.47 1336.48,2252.69 
  "/>
<polyline clip-path="url(#clip4200)" style="stroke:#000000; stroke-width:4; stroke-opacity:1; fill:none" points="
  1866.69,2279.47 1866.69,2252.69 
  "/>
<polyline clip-path="url(#clip4200)" style="stroke:#000000; stroke-width:4; stroke-opacity:1; fill:none" points="
  2396.9,2279.47 2396.9,2252.69 
  "/>
<polyline clip-path="url(#clip4200)" style="stroke:#000000; stroke-width:4; stroke-opacity:1; fill:none" points="
  2927.11,2279.47 2927.11,2252.69 
  "/>
<polyline clip-path="url(#clip4200)" style="stroke:#000000; stroke-width:4; stroke-opacity:1; fill:none" points="
  3457.32,2279.47 3457.32,2252.69 
  "/>
<polyline clip-path="url(#clip4200)" style="stroke:#000000; stroke-width:4; stroke-opacity:1; fill:none" points="
  180.627,2078.9 221.092,2078.9 
  "/>
<polyline clip-path="url(#clip4200)" style="stroke:#000000; stroke-width:4; stroke-opacity:1; fill:none" points="
  180.627,1409.26 221.092,1409.26 
  "/>
<polyline clip-path="url(#clip4200)" style="stroke:#000000; stroke-width:4; stroke-opacity:1; fill:none" points="
  180.627,739.623 221.092,739.623 
  "/>
<polyline clip-path="url(#clip4200)" style="stroke:#000000; stroke-width:4; stroke-opacity:1; fill:none" points="
  180.627,69.9833 221.092,69.9833 
  "/>
<g clip-path="url(#clip4200)">
<text style="fill:#000000; fill-opacity:1; font-family:Arial,Helvetica Neue,Helvetica,sans-serif; font-size:48px; text-anchor:middle;" transform="rotate(0, 276.065, 2339.47)" x="276.065" y="2339.47">0</text>
</g>
<g clip-path="url(#clip4200)">
<text style="fill:#000000; fill-opacity:1; font-family:Arial,Helvetica Neue,Helvetica,sans-serif; font-size:48px; text-anchor:middle;" transform="rotate(0, 806.273, 2339.47)" x="806.273" y="2339.47">10</text>
</g>
<g clip-path="url(#clip4200)">
<text style="fill:#000000; fill-opacity:1; font-family:Arial,Helvetica Neue,Helvetica,sans-serif; font-size:48px; text-anchor:middle;" transform="rotate(0, 1336.48, 2339.47)" x="1336.48" y="2339.47">20</text>
</g>
<g clip-path="url(#clip4200)">
<text style="fill:#000000; fill-opacity:1; font-family:Arial,Helvetica Neue,Helvetica,sans-serif; font-size:48px; text-anchor:middle;" transform="rotate(0, 1866.69, 2339.47)" x="1866.69" y="2339.47">30</text>
</g>
<g clip-path="url(#clip4200)">
<text style="fill:#000000; fill-opacity:1; font-family:Arial,Helvetica Neue,Helvetica,sans-serif; font-size:48px; text-anchor:middle;" transform="rotate(0, 2396.9, 2339.47)" x="2396.9" y="2339.47">40</text>
</g>
<g clip-path="url(#clip4200)">
<text style="fill:#000000; fill-opacity:1; font-family:Arial,Helvetica Neue,Helvetica,sans-serif; font-size:48px; text-anchor:middle;" transform="rotate(0, 2927.11, 2339.47)" x="2927.11" y="2339.47">50</text>
</g>
<g clip-path="url(#clip4200)">
<text style="fill:#000000; fill-opacity:1; font-family:Arial,Helvetica Neue,Helvetica,sans-serif; font-size:48px; text-anchor:middle;" transform="rotate(0, 3457.32, 2339.47)" x="3457.32" y="2339.47">60</text>
</g>
<g clip-path="url(#clip4200)">
<text style="fill:#000000; fill-opacity:1; font-family:Arial,Helvetica Neue,Helvetica,sans-serif; font-size:48px; text-anchor:end;" transform="rotate(0, 144.627, 2096.4)" x="144.627" y="2096.4">-20</text>
</g>
<g clip-path="url(#clip4200)">
<text style="fill:#000000; fill-opacity:1; font-family:Arial,Helvetica Neue,Helvetica,sans-serif; font-size:48px; text-anchor:end;" transform="rotate(0, 144.627, 1426.76)" x="144.627" y="1426.76">-15</text>
</g>
<g clip-path="url(#clip4200)">
<text style="fill:#000000; fill-opacity:1; font-family:Arial,Helvetica Neue,Helvetica,sans-serif; font-size:48px; text-anchor:end;" transform="rotate(0, 144.627, 757.123)" x="144.627" y="757.123">-10</text>
</g>
<g clip-path="url(#clip4200)">
<text style="fill:#000000; fill-opacity:1; font-family:Arial,Helvetica Neue,Helvetica,sans-serif; font-size:48px; text-anchor:end;" transform="rotate(0, 144.627, 87.4833)" x="144.627" y="87.4833">-5</text>
</g>
<polyline clip-path="url(#clip4202)" style="stroke:#009af9; stroke-width:4; stroke-opacity:1; fill:none" points="
  276.065,134.269 281.375,136.325 286.686,138.382 291.997,140.438 297.308,142.495 302.619,144.551 307.93,146.608 313.241,148.664 318.552,150.721 323.863,152.778 
  329.174,154.834 334.485,156.891 339.796,158.947 345.107,161.004 350.418,163.06 355.729,165.117 361.04,167.173 366.351,169.23 371.661,171.286 376.972,173.343 
  382.283,175.4 387.594,177.456 392.905,179.513 398.216,181.569 403.527,183.626 408.838,185.682 414.149,187.739 419.46,189.795 424.771,191.852 430.082,193.908 
  435.393,195.965 440.704,198.022 446.015,200.078 451.326,202.135 456.637,204.191 461.947,206.248 467.258,208.304 472.569,210.361 477.88,212.417 483.191,214.474 
  488.502,216.53 493.813,218.587 499.124,220.643 504.435,222.7 509.746,224.757 515.057,226.813 520.368,228.87 525.679,230.926 530.99,232.983 536.301,235.039 
  541.612,237.096 546.923,239.152 552.233,241.209 557.544,243.265 562.855,245.322 568.166,247.379 573.477,249.435 578.788,251.492 584.099,253.548 589.41,255.605 
  594.721,257.661 600.032,259.718 605.343,261.774 610.654,263.831 615.965,265.887 621.276,267.944 626.587,270.001 631.898,272.057 637.209,274.114 642.519,276.17 
  647.83,278.227 653.141,280.283 658.452,282.34 663.763,284.396 669.074,286.453 674.385,288.509 679.696,290.566 685.007,292.622 690.318,294.679 695.629,296.736 
  700.94,298.792 706.251,300.849 711.562,302.905 716.873,304.962 722.184,307.018 727.495,309.075 732.805,311.131 738.116,313.188 743.427,315.244 748.738,317.301 
  754.049,319.358 759.36,321.414 764.671,323.471 769.982,325.527 775.293,327.584 780.604,329.64 785.915,331.697 791.226,333.753 796.537,335.81 801.848,337.866 
  807.159,339.923 812.47,341.98 817.781,344.036 823.091,346.093 828.402,348.149 833.713,350.206 839.024,352.262 844.335,354.319 849.646,356.375 854.957,358.432 
  860.268,360.488 865.579,362.545 870.89,364.601 876.201,366.658 881.512,368.715 886.823,370.771 892.134,372.828 897.445,374.884 902.756,376.941 908.067,378.997 
  913.377,381.054 918.688,383.11 923.999,385.167 929.31,387.223 934.621,389.28 939.932,391.337 945.243,393.393 950.554,395.45 955.865,397.506 961.176,399.563 
  966.487,401.619 971.798,403.676 977.109,405.732 982.42,407.789 987.731,409.845 993.042,411.902 998.353,413.959 1003.66,416.015 1008.97,418.072 1014.29,420.128 
  1019.6,422.185 1024.91,424.241 1030.22,426.298 1035.53,428.354 1040.84,430.411 1046.15,432.467 1051.46,434.524 1056.77,436.58 1062.08,438.637 1067.39,440.694 
  1072.71,442.75 1078.02,444.807 1083.33,446.863 1088.64,448.92 1093.95,450.976 1099.26,453.033 1104.57,455.089 1109.88,457.146 1115.19,459.202 1120.5,461.259 
  1125.82,463.316 1131.13,465.372 1136.44,467.429 1141.75,469.485 1147.06,471.542 1152.37,473.598 1157.68,475.655 1162.99,477.711 1168.3,479.768 1173.61,481.824 
  1178.92,483.881 1184.24,485.938 1189.55,487.994 1194.86,490.051 1200.17,492.107 1205.48,494.164 1210.79,496.22 1216.1,498.277 1221.41,500.333 1226.72,502.39 
  1232.03,504.446 1237.34,506.503 1242.66,508.559 1247.97,510.616 1253.28,512.673 1258.59,514.729 1263.9,516.786 1269.21,518.842 1274.52,520.899 1279.83,522.955 
  1285.14,525.012 1290.45,527.068 1295.77,529.125 1301.08,531.181 1306.39,533.238 1311.7,535.295 1317.01,537.351 1322.32,539.408 1327.63,541.464 1332.94,543.521 
  1338.25,545.577 1343.56,547.634 1348.87,549.69 1354.19,551.747 1359.5,553.803 1364.81,555.86 1370.12,557.917 1375.43,559.973 1380.74,562.03 1386.05,564.086 
  1391.36,566.143 1396.67,568.199 1401.98,570.256 1407.29,572.312 1412.61,574.369 1417.92,576.425 1423.23,578.482 1428.54,580.538 1433.85,582.595 1439.16,584.652 
  1444.47,586.708 1449.78,588.765 1455.09,590.821 1460.4,592.878 1465.72,594.934 1471.03,596.991 1476.34,599.047 1481.65,601.104 1486.96,603.16 1492.27,605.217 
  1497.58,607.274 1502.89,609.33 1508.2,611.387 1513.51,613.443 1518.82,615.5 1524.14,617.556 1529.45,619.613 1534.76,621.669 1540.07,623.726 1545.38,625.782 
  1550.69,627.839 1556,629.895 1561.31,631.952 1566.62,634.009 1571.93,636.065 1577.25,638.122 1582.56,640.178 1587.87,642.235 1593.18,644.291 1598.49,646.348 
  1603.8,648.404 1609.11,650.461 1614.42,652.517 1619.73,654.574 1625.04,656.631 1630.35,658.687 1635.67,660.744 1640.98,662.8 1646.29,664.857 1651.6,666.913 
  1656.91,668.97 1662.22,671.026 1667.53,673.083 1672.84,675.139 1678.15,677.196 1683.46,679.253 1688.77,681.309 1694.09,683.366 1699.4,685.422 1704.71,687.479 
  1710.02,689.535 1715.33,691.592 1720.64,693.648 1725.95,695.705 1731.26,697.761 1736.57,699.818 1741.88,701.874 1747.2,703.931 1752.51,705.988 1757.82,708.044 
  1763.13,710.101 1768.44,712.157 1773.75,714.214 1779.06,716.27 1784.37,718.327 1789.68,720.383 1794.99,722.44 1800.3,724.496 1805.62,726.553 1810.93,728.61 
  1816.24,730.666 1821.55,732.723 1826.86,734.779 1832.17,736.836 1837.48,738.892 1842.79,740.949 1848.1,743.005 1853.41,745.062 1858.72,747.118 1864.04,749.175 
  1869.35,751.232 1874.66,753.288 1879.97,755.345 1885.28,757.401 1890.59,759.458 1895.9,761.514 1901.21,763.571 1906.52,765.627 1911.83,767.684 1917.15,769.74 
  1922.46,771.797 1927.77,773.853 1933.08,775.91 1938.39,777.967 1943.7,780.023 1949.01,782.08 1954.32,784.136 1959.63,786.193 1964.94,788.249 1970.25,790.306 
  1975.57,792.362 1980.88,794.419 1986.19,796.475 1991.5,798.532 1996.81,800.589 2002.12,802.645 2007.43,804.702 2012.74,806.758 2018.05,808.815 2023.36,810.871 
  2028.68,812.928 2033.99,814.984 2039.3,817.041 2044.61,819.097 2049.92,821.154 2055.23,823.211 2060.54,825.267 2065.85,827.324 2071.16,829.38 2076.47,831.437 
  2081.78,833.493 2087.1,835.55 2092.41,837.606 2097.72,839.663 2103.03,841.719 2108.34,843.776 2113.65,845.832 2118.96,847.889 2124.27,849.946 2129.58,852.002 
  2134.89,854.059 2140.2,856.115 2145.52,858.172 2150.83,860.228 2156.14,862.285 2161.45,864.341 2166.76,866.398 2172.07,868.454 2177.38,870.511 2182.69,872.568 
  2188,874.624 2193.31,876.681 2198.63,878.737 2203.94,880.794 2209.25,882.85 2214.56,884.907 2219.87,886.963 2225.18,889.02 2230.49,891.076 2235.8,893.133 
  2241.11,895.19 2246.42,897.246 2251.73,899.303 2257.05,901.359 2262.36,903.416 2267.67,905.472 2272.98,907.529 2278.29,909.585 2283.6,911.642 2288.91,913.698 
  2294.22,915.755 2299.53,917.811 2304.84,919.868 2310.15,921.925 2315.47,923.981 2320.78,926.038 2326.09,928.094 2331.4,930.151 2336.71,932.207 2342.02,934.264 
  2347.33,936.32 2352.64,938.377 2357.95,940.433 2363.26,942.49 2368.58,944.547 2373.89,946.603 2379.2,948.66 2384.51,950.716 2389.82,952.773 2395.13,954.829 
  2400.44,956.886 2405.75,958.942 2411.06,960.999 2416.37,963.055 2421.68,965.112 2427,967.169 2432.31,969.225 2437.62,971.282 2442.93,973.338 2448.24,975.395 
  2453.55,977.451 2458.86,979.508 2464.17,981.564 2469.48,983.621 2474.79,985.677 2480.11,987.734 2485.42,989.79 2490.73,991.847 2496.04,993.904 2501.35,995.96 
  2506.66,998.017 2511.97,1000.07 2517.28,1002.13 2522.59,1004.19 2527.9,1006.24 2533.21,1008.3 2538.53,1010.36 2543.84,1012.41 2549.15,1014.47 2554.46,1016.53 
  2559.77,1018.58 2565.08,1020.64 2570.39,1022.7 2575.7,1024.75 2581.01,1026.81 2586.32,1028.86 2591.63,1030.92 2596.95,1032.98 2602.26,1035.03 2607.57,1037.09 
  2612.88,1039.15 2618.19,1041.2 2623.5,1043.26 2628.81,1045.32 2634.12,1047.37 2639.43,1049.43 2644.74,1051.49 2650.06,1053.54 2655.37,1055.6 2660.68,1057.66 
  2665.99,1059.71 2671.3,1061.77 2676.61,1063.83 2681.92,1065.88 2687.23,1067.94 2692.54,1070 2697.85,1072.05 2703.16,1074.11 2708.48,1076.17 2713.79,1078.22 
  2719.1,1080.28 2724.41,1082.33 2729.72,1084.39 2735.03,1086.45 2740.34,1088.5 2745.65,1090.56 2750.96,1092.62 2756.27,1094.67 2761.58,1096.73 2766.9,1098.79 
  2772.21,1100.84 2777.52,1102.9 2782.83,1104.96 2788.14,1107.01 2793.45,1109.07 2798.76,1111.13 2804.07,1113.18 2809.38,1115.24 2814.69,1117.3 2820.01,1119.35 
  2825.32,1121.41 2830.63,1123.47 2835.94,1125.52 2841.25,1127.58 2846.56,1129.64 2851.87,1131.69 2857.18,1133.75 2862.49,1135.81 2867.8,1137.86 2873.11,1139.92 
  2878.43,1141.97 2883.74,1144.03 2889.05,1146.09 2894.36,1148.14 2899.67,1150.2 2904.98,1152.26 2910.29,1154.31 2915.6,1156.37 2920.91,1158.43 2926.22,1160.48 
  2931.54,1162.54 2936.85,1164.6 2942.16,1166.65 2947.47,1168.71 2952.78,1170.77 2958.09,1172.82 2963.4,1174.88 2968.71,1176.94 2974.02,1178.99 2979.33,1181.05 
  2984.64,1183.11 2989.96,1185.16 2995.27,1187.22 3000.58,1189.28 3005.89,1191.33 3011.2,1193.39 3016.51,1195.44 3021.82,1197.5 3027.13,1199.56 3032.44,1201.61 
  3037.75,1203.67 3043.06,1205.73 3048.38,1207.78 3053.69,1209.84 3059,1211.9 3064.31,1213.95 3069.62,1216.01 3074.93,1218.07 3080.24,1220.12 3085.55,1222.18 
  3090.86,1224.24 3096.17,1226.29 3101.49,1228.35 3106.8,1230.41 3112.11,1232.46 3117.42,1234.52 3122.73,1236.58 3128.04,1238.63 3133.35,1240.69 3138.66,1242.75 
  3143.97,1244.8 3149.28,1246.86 3154.59,1248.91 3159.91,1250.97 3165.22,1253.03 3170.53,1255.08 3175.84,1257.14 3181.15,1259.2 3186.46,1261.25 3191.77,1263.31 
  3197.08,1265.37 3202.39,1267.42 3207.7,1269.48 3213.01,1271.54 3218.33,1273.59 3223.64,1275.65 3228.95,1277.71 3234.26,1279.76 3239.57,1281.82 3244.88,1283.88 
  3250.19,1285.93 3255.5,1287.99 3260.81,1290.05 3266.12,1292.1 3271.44,1294.16 3276.75,1296.22 3282.06,1298.27 3287.37,1300.33 3292.68,1302.38 3297.99,1304.44 
  3303.3,1306.5 3308.61,1308.55 3313.92,1310.61 3319.23,1312.67 3324.54,1314.72 3329.86,1316.78 3335.17,1318.84 3340.48,1320.89 3345.79,1322.95 3351.1,1325.01 
  3356.41,1327.06 3361.72,1329.12 3367.03,1331.18 3372.34,1333.23 3377.65,1335.29 3382.97,1337.35 3388.28,1339.4 3393.59,1341.46 3398.9,1343.52 3404.21,1345.57 
  3409.52,1347.63 3414.83,1349.69 3420.14,1351.74 3425.45,1353.8 3430.76,1355.86 3436.07,1357.91 3441.39,1359.97 3446.7,1362.02 3452.01,1364.08 3457.32,1366.14 
  
  "/>
<polyline clip-path="url(#clip4202)" style="stroke:#e26f46; stroke-width:4; stroke-opacity:1; fill:none" points="
  276.065,110.42 281.375,112.954 286.686,117.234 291.997,123.354 297.308,131.457 302.619,141.751 307.93,154.538 313.241,170.256 318.552,189.565 323.863,213.509 
  329.174,243.858 334.485,283.983 339.796,341.615 345.107,442.614 350.418,764.521 355.729,426.447 361.04,343.385 366.351,296.166 371.661,264.666 376.972,242.329 
  382.283,226.206 387.594,214.74 392.905,207.028 398.216,202.529 403.527,200.919 408.838,202.028 414.149,205.807 419.46,212.317 424.771,221.741 430.082,234.417 
  435.393,250.906 440.704,272.136 446.015,299.71 451.326,336.668 456.637,389.814 461.947,480.409 467.258,899.916 472.569,496.957 477.88,404.336 483.191,353.298 
  488.502,319.483 493.813,295.468 499.124,278.01 504.435,265.417 509.746,256.718 515.057,251.325 520.368,248.888 525.679,249.21 530.99,252.222 536.301,257.961 
  541.612,266.585 546.923,278.394 552.233,293.895 557.544,313.923 562.855,339.903 568.166,374.477 573.477,423.311 578.788,502.551 584.099,719.797 589.41,574.419 
  594.721,464.192 600.032,407.76 605.343,371.235 610.654,345.533 615.965,326.883 621.276,313.373 626.587,303.922 631.898,297.879 637.209,294.854 642.519,294.623 
  647.83,297.091 653.141,302.277 658.452,310.311 663.763,321.464 669.074,336.194 674.385,355.261 679.696,379.946 685.007,412.575 690.318,457.973 695.629,528.925 
  700.94,689.025 706.251,658.569 711.562,524.436 716.873,462.021 722.184,422.692 727.495,395.31 732.805,375.504 738.116,361.119 743.427,350.958 748.738,344.307 
  754.049,340.734 759.36,339.986 764.671,341.949 769.982,346.618 775.293,354.102 780.604,364.641 785.915,378.655 791.226,396.833 796.537,420.332 801.848,451.217 
  807.159,493.638 812.47,557.952 817.781,686.753 823.091,758.019 828.402,586.428 833.713,516.902 839.024,474.467 844.335,445.288 849.646,424.27 854.957,408.984 
  860.268,398.098 865.579,390.831 870.89,386.706 876.201,385.443 881.512,386.903 886.823,391.062 892.134,398.006 897.445,407.95 902.756,421.273 908.067,438.603 
  913.377,460.989 918.688,490.269 923.999,530.041 929.31,588.828 934.621,697.082 939.932,895.978 945.243,650.93 950.554,572.637 955.865,526.681 961.176,495.542 
  966.487,473.234 971.798,457 977.109,445.365 982.42,437.465 987.731,432.78 993.042,430.997 998.353,431.954 1003.66,435.605 1008.97,442.017 1014.29,451.378 
  1019.6,464.031 1024.91,480.549 1030.22,501.883 1035.53,529.676 1040.84,567.069 1046.15,621.165 1051.46,714.695 1056.77,1943.84 1062.08,718.825 1067.39,629.386 
  1072.71,579.39 1078.02,546.098 1083.33,522.407 1088.64,505.177 1093.95,492.762 1099.26,484.212 1104.57,478.955 1109.88,476.646 1115.19,477.098 1120.5,480.245 
  1125.82,486.131 1131.13,494.92 1136.44,506.923 1141.75,522.661 1147.06,542.998 1152.37,569.409 1157.68,604.648 1162.99,654.704 1168.3,737.089 1173.61,986.1 
  1178.92,791.513 1184.24,687.342 1189.55,632.653 1194.86,596.981 1200.17,571.803 1205.48,553.52 1210.79,540.293 1216.1,531.073 1221.41,525.233 1226.72,522.392 
  1232.03,522.336 1237.34,524.979 1242.66,530.345 1247.97,538.573 1253.28,549.944 1258.59,564.932 1263.9,584.321 1269.21,609.44 1274.52,642.72 1279.83,689.253 
  1285.14,762.869 1290.45,938.478 1295.77,871.504 1301.08,746.764 1306.39,686.543 1311.7,648.221 1317.01,621.437 1322.32,602.04 1327.63,587.964 1332.94,578.053 
  1338.25,571.616 1343.56,568.235 1348.87,567.669 1354.19,569.809 1359.5,574.659 1364.81,582.336 1370.12,593.09 1375.43,607.354 1380.74,625.841 1386.05,649.749 
  1391.36,681.233 1396.67,724.664 1401.98,791.177 1407.29,929.392 1412.61,964.027 1417.92,808.001 1423.23,741.147 1428.54,699.851 1433.85,671.325 1439.16,650.743 
  1444.47,635.78 1449.78,625.153 1455.09,618.105 1460.4,614.176 1465.72,613.095 1471.03,614.733 1476.34,619.071 1481.65,626.205 1486.96,636.357 1492.27,649.921 
  1497.58,667.546 1502.89,690.316 1508.2,720.147 1513.51,760.819 1518.82,821.445 1524.14,936.101 1529.45,1083.35 1534.76,871.556 1540.07,796.577 1545.38,751.914 
  1550.69,721.486 1556,699.642 1561.31,683.747 1566.62,672.379 1571.93,664.704 1577.25,660.216 1582.56,658.617 1587.87,659.751 1593.18,663.58 1598.49,670.179 
  1603.8,679.742 1609.11,692.628 1614.42,709.428 1619.73,731.123 1625.04,759.425 1630.35,797.625 1635.67,853.283 1640.98,951.481 1646.29,1309.43 1651.6,938.17 
  1656.91,852.969 1662.22,804.456 1667.53,771.943 1672.84,748.748 1678.15,731.873 1683.46,719.734 1688.77,711.414 1694.09,706.358 1699.4,704.234 1704.71,704.863 
  1710.02,708.186 1715.33,714.255 1720.64,723.242 1725.95,735.47 1731.26,751.477 1736.57,772.155 1741.88,799.037 1747.2,835.004 1752.51,886.402 1757.82,972.353 
  1763.13,1271.21 1768.44,1009.03 1773.75,910.504 1779.06,857.535 1784.37,822.721 1789.68,798.073 1794.99,780.164 1800.3,767.223 1805.62,758.239 1810.93,752.603 
  1816.24,749.948 1821.55,750.069 1826.86,752.887 1832.17,758.433 1837.48,766.854 1842.79,778.442 1848.1,793.687 1853.41,813.399 1858.72,838.956 1864.04,872.894 
  1869.35,920.594 1874.66,997.028 1879.97,1191.68 1885.28,1086.16 1890.59,969.416 1895.9,911.219 1901.21,873.847 1906.52,847.634 1911.83,828.629 1917.15,814.851 
  1922.46,805.181 1927.77,798.952 1933.08,795.758 1938.39,795.369 1943.7,797.683 1949.01,802.71 1954.32,810.575 1959.63,821.539 1964.94,836.049 1970.25,854.841 
  1975.57,879.157 1980.88,911.241 1986.19,955.694 1991.5,1024.49 1996.81,1173.42 2002.12,1173.58 2007.43,1030.02 2012.74,965.592 2018.05,925.357 2023.36,897.445 
  2028.68,877.278 2033.99,862.624 2039.3,852.245 2044.61,845.408 2049.92,841.667 2055.23,840.763 2060.54,842.573 2065.85,847.085 2071.16,854.404 2076.47,864.759 
  2081.78,878.559 2087.1,896.473 2092.41,919.623 2097.72,950.001 2103.03,991.577 2108.34,1054.09 2113.65,1175.74 2118.96,1281.07 2124.27,1092.78 2129.58,1020.76 
  2134.89,977.29 2140.2,947.527 2145.52,926.121 2150.83,910.548 2156.14,899.434 2161.45,891.973 2166.76,887.676 2172.07,886.253 2177.38,887.557 2182.69,891.558 
  2188,898.336 2193.31,908.097 2198.63,921.209 2203.94,938.282 2209.25,960.332 2214.56,989.136 2219.87,1028.14 2225.18,1085.38 2230.49,1188.54 2235.8,1446.94 
  2241.11,1158.33 2246.42,1076.85 2251.73,1029.69 2257.05,997.9 2262.36,975.169 2267.67,958.629 2272.98,946.752 2278.29,938.65 2283.6,933.786 2288.91,931.838 
  2294.22,932.636 2299.53,936.128 2304.84,942.373 2310.15,951.551 2315.47,963.995 2320.78,980.262 2326.09,1001.27 2331.4,1028.61 2336.71,1065.3 2342.02,1118.04 
  2347.33,1207.7 2352.64,1594.47 2357.95,1227.7 2363.26,1134.03 2368.58,1082.62 2373.89,1048.59 2379.2,1024.44 2384.51,1006.88 2389.82,994.204 2395.13,985.442 
  2400.44,979.999 2405.75,977.519 2411.06,977.808 2416.37,980.792 2421.68,986.509 2427,995.115 2432.31,1006.91 2437.62,1022.4 2442.93,1042.43 2448.24,1068.41 
  2453.55,1102.99 2458.86,1151.84 2464.17,1231.15 2469.48,1449.02 2474.79,1302.6 2480.11,1192.52 2485.42,1136.13 2490.73,1099.62 2496.04,1073.94 2501.35,1055.3 
  2506.66,1041.8 2511.97,1032.35 2517.28,1026.32 2522.59,1023.3 2527.9,1023.08 2533.21,1025.55 2538.53,1030.75 2543.84,1038.79 2549.15,1049.95 2554.46,1064.7 
  2559.77,1083.78 2565.08,1108.49 2570.39,1141.15 2575.7,1186.6 2581.01,1257.68 2586.32,1418.47 2591.63,1386.26 2596.95,1252.62 2602.26,1190.32 2607.57,1151.04 
  2612.88,1123.69 2618.19,1103.9 2623.5,1089.53 2628.81,1079.38 2634.12,1072.74 2639.43,1069.18 2644.74,1068.44 2650.06,1070.41 2655.37,1075.08 2660.68,1082.57 
  2665.99,1093.12 2671.3,1107.14 2676.61,1125.33 2681.92,1148.84 2687.23,1179.74 2692.54,1222.19 2697.85,1286.56 2703.16,1415.59 2708.48,1485.87 2713.79,1314.73 
  2719.1,1245.27 2724.41,1202.87 2729.72,1173.71 2735.03,1152.7 2740.34,1137.42 2745.65,1126.54 2750.96,1119.28 2756.27,1115.16 2761.58,1113.89 2766.9,1115.36 
  2772.21,1119.52 2777.52,1126.46 2782.83,1136.4 2788.14,1149.73 2793.45,1167.05 2798.76,1189.44 2804.07,1218.71 2809.38,1258.48 2814.69,1317.25 2820.01,1425.45 
  2825.32,1624.86 2830.63,1379.46 2835.94,1301.13 2841.25,1255.16 2846.56,1224.02 2851.87,1201.7 2857.18,1185.47 2862.49,1173.83 2867.8,1165.92 2873.11,1161.23 
  2878.43,1159.45 2883.74,1160.4 2889.05,1164.04 2894.36,1170.45 2899.67,1179.8 2904.98,1192.45 2910.29,1208.96 2915.6,1230.27 2920.91,1258.04 2926.22,1295.4 
  2931.54,1349.43 2936.85,1442.75 2942.16,2216.3 2947.47,1447.69 2952.78,1358.04 2958.09,1307.98 2963.4,1274.65 2968.71,1250.93 2974.02,1233.68 2979.33,1221.25 
  2984.64,1212.69 2989.96,1207.42 2995.27,1205.1 3000.58,1205.54 3005.89,1208.67 3011.2,1214.54 3016.51,1223.32 3021.82,1235.3 3027.13,1251.01 3032.44,1271.32 
  3037.75,1297.69 3043.06,1332.86 3048.38,1382.8 3053.69,1464.87 3059,1710.36 3064.31,1520.94 3069.62,1416.22 3074.93,1361.37 3080.24,1325.61 3085.55,1300.38 
  3090.86,1282.07 3096.17,1268.81 3101.49,1259.57 3106.8,1253.71 3112.11,1250.84 3117.42,1250.77 3122.73,1253.39 3128.04,1258.74 3133.35,1266.94 3138.66,1278.28 
  3143.97,1293.24 3149.28,1312.58 3154.59,1337.64 3159.91,1370.83 3165.22,1417.2 3170.53,1490.44 3175.84,1663.68 3181.15,1601.92 3186.46,1475.95 3191.77,1415.43 
  3197.08,1376.97 3202.39,1350.1 3207.7,1330.65 3213.01,1316.53 3218.33,1306.58 3223.64,1300.11 3228.95,1296.69 3234.26,1296.1 3239.57,1298.21 3244.88,1303.02 
  3250.19,1310.67 3255.5,1321.38 3260.81,1335.6 3266.12,1354.03 3271.44,1377.86 3276.75,1409.23 3282.06,1452.46 3287.37,1518.54 3292.68,1654.85 3297.99,1696.33 
  3303.3,1537.58 3308.61,1470.23 3313.92,1428.72 3319.23,1400.07 3324.54,1379.41 3329.86,1364.38 3335.17,1353.71 3340.48,1346.61 3345.79,1342.64 3351.1,1341.52 
  3356.41,1343.12 3361.72,1347.42 3367.03,1354.51 3372.34,1364.61 3377.65,1378.12 3382.97,1395.67 3388.28,1418.34 3393.59,1448.03 3398.9,1488.47 3404.21,1548.61 
  3409.52,1661.55 3414.83,1821.04 3420.14,1601.77 3425.45,1525.97 3430.76,1480.97 3436.07,1450.36 3441.39,1428.4 3446.7,1412.41 3452.01,1400.97 3457.32,1393.23 
  
  "/>
<path clip-path="url(#clip4200)" d="
M2921.58 384.204 L3444.76 384.204 L3444.76 202.764 L2921.58 202.764  Z
  " fill="#ffffff" fill-rule="evenodd" fill-opacity="1"/>
<polyline clip-path="url(#clip4200)" style="stroke:#000000; stroke-width:4; stroke-opacity:1; fill:none" points="
  2921.58,384.204 3444.76,384.204 3444.76,202.764 2921.58,202.764 2921.58,384.204 
  "/>
<polyline clip-path="url(#clip4200)" style="stroke:#009af9; stroke-width:4; stroke-opacity:1; fill:none" points="
  2957.58,263.244 3173.58,263.244 
  "/>
<g clip-path="url(#clip4200)">
<text style="fill:#000000; fill-opacity:1; font-family:Arial,Helvetica Neue,Helvetica,sans-serif; font-size:48px; text-anchor:start;" transform="rotate(0, 3209.58, 280.744)" x="3209.58" y="280.744">y1</text>
</g>
<polyline clip-path="url(#clip4200)" style="stroke:#e26f46; stroke-width:4; stroke-opacity:1; fill:none" points="
  2957.58,323.724 3173.58,323.724 
  "/>
<g clip-path="url(#clip4200)">
<text style="fill:#000000; fill-opacity:1; font-family:Arial,Helvetica Neue,Helvetica,sans-serif; font-size:48px; text-anchor:start;" transform="rotate(0, 3209.58, 341.224)" x="3209.58" y="341.224">ampere</text>
</g>
</svg>
